<svg xmlns="http://www.w3.org/2000/svg" width="930.956" height="863.794" viewBox="0 0 930.956 863.794">
  <g id="Banner_jukon_01" data-name="Banner jukon 01" transform="translate(-119.322 101.744)">
    <g id="Warstwa_1" data-name="Warstwa 1" transform="translate(28 -14)">
      <path id="Path_1" data-name="Path 1" d="M799.69,799.08a8.31,8.31,0,1,1-8.31-8.31,8.31,8.31,0,0,1,8.31,8.31" transform="translate(-647.07 -321.62)" fill="#f26531"/>
      <path id="Path_2" data-name="Path 2" d="M839.67,799.08a8.31,8.31,0,1,1-8.31-8.31,8.31,8.31,0,0,1,8.31,8.31" transform="translate(-647.07 -321.62)" fill="#f26531"/>
      <path id="Path_3" data-name="Path 3" d="M879.65,799.08a8.31,8.31,0,1,1-8.31-8.31,8.31,8.31,0,0,1,8.31,8.31" transform="translate(-647.07 -321.62)" fill="#f26531"/>
      <path id="Path_4" data-name="Path 4" d="M919.63,799.08a8.31,8.31,0,1,1-8.31-8.31,8.31,8.31,0,0,1,8.31,8.31" transform="translate(-647.07 -321.62)" fill="#f26531"/>
      <path id="Path_5" data-name="Path 5" d="M959.61,799.08a8.31,8.31,0,1,1-8.31-8.31,8.31,8.31,0,0,1,8.31,8.31" transform="translate(-647.07 -321.62)" fill="#f26531"/>
      <path id="Path_6" data-name="Path 6" d="M999.59,799.08a8.31,8.31,0,1,1-8.31-8.31,8.31,8.31,0,0,1,8.31,8.31" transform="translate(-647.07 -321.62)" fill="#f26531"/>
      <path id="Path_7" data-name="Path 7" d="M1036.19,799.08a8.31,8.31,0,1,1-8.31-8.31,8.31,8.31,0,0,1,8.31,8.31" transform="translate(-647.07 -321.62)" fill="#f26531"/>
      <path id="Path_8" data-name="Path 8" d="M799.69,836.65a8.31,8.31,0,1,1-8.31-8.31,8.31,8.31,0,0,1,8.31,8.31" transform="translate(-647.07 -321.62)" fill="#f26531"/>
      <path id="Path_9" data-name="Path 9" d="M839.67,836.65a8.31,8.31,0,1,1-8.31-8.31,8.31,8.31,0,0,1,8.31,8.31" transform="translate(-647.07 -321.62)" fill="#f26531"/>
      <path id="Path_10" data-name="Path 10" d="M879.65,836.65a8.31,8.31,0,1,1-8.31-8.31,8.31,8.31,0,0,1,8.31,8.31" transform="translate(-647.07 -321.62)" fill="#f26531"/>
      <path id="Path_11" data-name="Path 11" d="M919.63,836.65a8.31,8.31,0,1,1-8.31-8.31,8.31,8.31,0,0,1,8.31,8.31" transform="translate(-647.07 -321.62)" fill="#f26531"/>
      <path id="Path_12" data-name="Path 12" d="M959.61,836.65a8.31,8.31,0,1,1-8.31-8.31,8.31,8.31,0,0,1,8.31,8.31" transform="translate(-647.07 -321.62)" fill="#f26531"/>
      <path id="Path_13" data-name="Path 13" d="M999.59,836.65a8.31,8.31,0,1,1-8.31-8.31,8.31,8.31,0,0,1,8.31,8.31" transform="translate(-647.07 -321.62)" fill="#f26531"/>
      <path id="Path_14" data-name="Path 14" d="M1036.19,836.65a8.31,8.31,0,1,1-8.31-8.31,8.31,8.31,0,0,1,8.31,8.31" transform="translate(-647.07 -321.62)" fill="#f26531"/>
      <path id="Path_15" data-name="Path 15" d="M799.69,874.23a8.31,8.31,0,1,1-8.31-8.31,8.31,8.31,0,0,1,8.31,8.31" transform="translate(-647.07 -321.62)" fill="#f26531"/>
      <path id="Path_16" data-name="Path 16" d="M839.67,874.23a8.31,8.31,0,1,1-8.31-8.31,8.31,8.31,0,0,1,8.31,8.31" transform="translate(-647.07 -321.62)" fill="#f26531"/>
      <path id="Path_17" data-name="Path 17" d="M879.65,874.23a8.31,8.31,0,1,1-8.31-8.31,8.31,8.31,0,0,1,8.31,8.31" transform="translate(-647.07 -321.62)" fill="#f26531"/>
      <path id="Path_18" data-name="Path 18" d="M919.63,874.23a8.31,8.31,0,1,1-8.31-8.31,8.31,8.31,0,0,1,8.31,8.31" transform="translate(-647.07 -321.62)" fill="#f26531"/>
      <path id="Path_19" data-name="Path 19" d="M959.61,874.23a8.31,8.31,0,1,1-8.31-8.31,8.31,8.31,0,0,1,8.31,8.31" transform="translate(-647.07 -321.62)" fill="#f26531"/>
      <path id="Path_20" data-name="Path 20" d="M999.59,874.23a8.31,8.31,0,1,1-8.31-8.31,8.31,8.31,0,0,1,8.31,8.31" transform="translate(-647.07 -321.62)" fill="#f26531"/>
      <path id="Path_21" data-name="Path 21" d="M1036.19,874.23a8.31,8.31,0,1,1-8.31-8.31,8.31,8.31,0,0,1,8.31,8.31" transform="translate(-647.07 -321.62)" fill="#f26531"/>
      <path id="Path_22" data-name="Path 22" d="M799.69,911.8a8.31,8.31,0,1,1-8.31-8.31,8.31,8.31,0,0,1,8.31,8.31" transform="translate(-647.07 -321.62)" fill="#f26531"/>
      <path id="Path_23" data-name="Path 23" d="M839.67,911.8a8.31,8.31,0,1,1-8.31-8.31,8.31,8.31,0,0,1,8.31,8.31" transform="translate(-647.07 -321.62)" fill="#f26531"/>
      <path id="Path_24" data-name="Path 24" d="M879.65,911.8a8.31,8.31,0,1,1-8.31-8.31,8.31,8.31,0,0,1,8.31,8.31" transform="translate(-647.07 -321.62)" fill="#f26531"/>
      <path id="Path_25" data-name="Path 25" d="M919.63,911.8a8.31,8.31,0,1,1-8.31-8.31,8.31,8.31,0,0,1,8.31,8.31" transform="translate(-647.07 -321.62)" fill="#f26531"/>
      <path id="Path_26" data-name="Path 26" d="M959.61,911.8a8.31,8.31,0,1,1-8.31-8.31,8.31,8.31,0,0,1,8.31,8.31" transform="translate(-647.07 -321.62)" fill="#f26531"/>
      <path id="Path_27" data-name="Path 27" d="M999.59,911.8a8.31,8.31,0,1,1-8.31-8.31,8.31,8.31,0,0,1,8.31,8.31" transform="translate(-647.07 -321.62)" fill="#f26531"/>
      <path id="Path_28" data-name="Path 28" d="M1036.19,911.8a8.31,8.31,0,1,1-8.31-8.31,8.31,8.31,0,0,1,8.31,8.31" transform="translate(-647.07 -321.62)" fill="#f26531"/>
      <path id="Path_29" data-name="Path 29" d="M799.69,949.37a8.31,8.31,0,1,1-8.31-8.31,8.31,8.31,0,0,1,8.31,8.31" transform="translate(-647.07 -321.62)" fill="#f26531"/>
      <path id="Path_30" data-name="Path 30" d="M839.67,949.37a8.31,8.31,0,1,1-8.31-8.31,8.31,8.31,0,0,1,8.31,8.31" transform="translate(-647.07 -321.62)" fill="#f26531"/>
      <path id="Path_31" data-name="Path 31" d="M879.65,949.37a8.31,8.31,0,1,1-8.31-8.31,8.31,8.31,0,0,1,8.31,8.31" transform="translate(-647.07 -321.62)" fill="#f26531"/>
      <path id="Path_32" data-name="Path 32" d="M919.63,949.37a8.31,8.31,0,1,1-8.31-8.31,8.31,8.31,0,0,1,8.31,8.31" transform="translate(-647.07 -321.62)" fill="#f26531"/>
      <path id="Path_33" data-name="Path 33" d="M959.61,949.37a8.31,8.31,0,1,1-8.31-8.31,8.31,8.31,0,0,1,8.31,8.31" transform="translate(-647.07 -321.62)" fill="#f26531"/>
      <path id="Path_34" data-name="Path 34" d="M999.59,949.37a8.31,8.31,0,1,1-8.31-8.31,8.31,8.31,0,0,1,8.31,8.31" transform="translate(-647.07 -321.62)" fill="#f26531"/>
      <path id="Path_35" data-name="Path 35" d="M1036.19,949.37a8.31,8.31,0,1,1-8.31-8.31,8.31,8.31,0,0,1,8.31,8.31" transform="translate(-647.07 -321.62)" fill="#f26531"/>
      <path id="Path_36" data-name="Path 36" d="M799.69,986.94a8.31,8.31,0,1,1-8.31-8.31,8.31,8.31,0,0,1,8.31,8.31" transform="translate(-647.07 -321.62)" fill="#f26531"/>
      <path id="Path_37" data-name="Path 37" d="M839.67,986.94a8.31,8.31,0,1,1-8.31-8.31,8.31,8.31,0,0,1,8.31,8.31" transform="translate(-647.07 -321.62)" fill="#f26531"/>
      <path id="Path_38" data-name="Path 38" d="M879.65,986.94a8.31,8.31,0,1,1-8.31-8.31,8.31,8.31,0,0,1,8.31,8.31" transform="translate(-647.07 -321.62)" fill="#f26531"/>
      <path id="Path_39" data-name="Path 39" d="M919.63,986.94a8.31,8.31,0,1,1-8.31-8.31,8.31,8.31,0,0,1,8.31,8.31" transform="translate(-647.07 -321.62)" fill="#f26531"/>
      <path id="Path_40" data-name="Path 40" d="M959.61,986.94a8.31,8.31,0,1,1-8.31-8.31,8.31,8.31,0,0,1,8.31,8.31" transform="translate(-647.07 -321.62)" fill="#f26531"/>
      <path id="Path_41" data-name="Path 41" d="M999.59,986.94a8.31,8.31,0,1,1-8.31-8.31,8.31,8.31,0,0,1,8.31,8.31" transform="translate(-647.07 -321.62)" fill="#f26531"/>
      <path id="Path_42" data-name="Path 42" d="M1036.19,986.94a8.31,8.31,0,1,1-8.31-8.31,8.31,8.31,0,0,1,8.31,8.31" transform="translate(-647.07 -321.62)" fill="#f26531"/>
      <path id="Path_43" data-name="Path 43" d="M1509.27,107.92a8.31,8.31,0,1,1-8.31-8.3,8.31,8.31,0,0,1,8.31,8.3" transform="translate(-783.07 -99.62)" fill="#ffb79c"/>
      <path id="Path_44" data-name="Path 44" d="M1549.25,107.92a8.31,8.31,0,1,1-8.31-8.3,8.31,8.31,0,0,1,8.31,8.3" transform="translate(-783.07 -99.62)" fill="#ffb79c"/>
      <path id="Path_45" data-name="Path 45" d="M1589.23,107.92a8.31,8.31,0,1,1-8.31-8.3,8.31,8.31,0,0,1,8.31,8.3" transform="translate(-783.07 -99.62)" fill="#ffb79c"/>
      <path id="Path_46" data-name="Path 46" d="M1629.21,107.92a8.31,8.31,0,1,1-8.31-8.3,8.31,8.31,0,0,1,8.31,8.3" transform="translate(-783.07 -99.62)" fill="#ffb79c"/>
      <path id="Path_47" data-name="Path 47" d="M1669.19,107.92a8.31,8.31,0,1,1-8.31-8.3,8.31,8.31,0,0,1,8.31,8.3" transform="translate(-783.07 -99.62)" fill="#ffb79c"/>
      <path id="Path_48" data-name="Path 48" d="M1709.17,107.92a8.31,8.31,0,1,1-8.31-8.3,8.31,8.31,0,0,1,8.31,8.3" transform="translate(-783.07 -99.62)" fill="#ffb79c"/>
      <path id="Path_49" data-name="Path 49" d="M1745.78,107.92a8.31,8.31,0,1,1-8.31-8.3,8.31,8.31,0,0,1,8.31,8.3" transform="translate(-783.07 -99.62)" fill="#ffb79c"/>
      <path id="Path_50" data-name="Path 50" d="M1509.27,145.5a8.31,8.31,0,1,1-8.31-8.31,8.31,8.31,0,0,1,8.31,8.31" transform="translate(-783.07 -99.62)" fill="#ffb79c"/>
      <path id="Path_51" data-name="Path 51" d="M1549.25,145.5a8.31,8.31,0,1,1-8.31-8.31,8.31,8.31,0,0,1,8.31,8.31" transform="translate(-783.07 -99.62)" fill="#ffb79c"/>
      <path id="Path_52" data-name="Path 52" d="M1589.23,145.5a8.31,8.31,0,1,1-8.31-8.31,8.31,8.31,0,0,1,8.31,8.31" transform="translate(-783.07 -99.62)" fill="#ffb79c"/>
      <path id="Path_53" data-name="Path 53" d="M1629.21,145.5a8.31,8.31,0,1,1-8.31-8.31,8.31,8.31,0,0,1,8.31,8.31" transform="translate(-783.07 -99.62)" fill="#ffb79c"/>
      <path id="Path_54" data-name="Path 54" d="M1669.19,145.5a8.31,8.31,0,1,1-8.31-8.31,8.31,8.31,0,0,1,8.31,8.31" transform="translate(-783.07 -99.62)" fill="#ffb79c"/>
      <path id="Path_55" data-name="Path 55" d="M1709.17,145.5a8.31,8.31,0,1,1-8.31-8.31,8.31,8.31,0,0,1,8.31,8.31" transform="translate(-783.07 -99.62)" fill="#ffb79c"/>
      <path id="Path_56" data-name="Path 56" d="M1745.78,145.5a8.31,8.31,0,1,1-8.31-8.31,8.31,8.31,0,0,1,8.31,8.31" transform="translate(-783.07 -99.62)" fill="#ffb79c"/>
      <path id="Path_57" data-name="Path 57" d="M1509.27,183.07a8.31,8.31,0,1,1-8.31-8.31,8.31,8.31,0,0,1,8.31,8.31" transform="translate(-783.07 -99.62)" fill="#ffb79c"/>
      <path id="Path_58" data-name="Path 58" d="M1549.25,183.07a8.31,8.31,0,1,1-8.31-8.31,8.31,8.31,0,0,1,8.31,8.31" transform="translate(-783.07 -99.62)" fill="#ffb79c"/>
      <path id="Path_59" data-name="Path 59" d="M1589.23,183.07a8.31,8.31,0,1,1-8.31-8.31,8.31,8.31,0,0,1,8.31,8.31" transform="translate(-783.07 -99.62)" fill="#ffb79c"/>
      <path id="Path_60" data-name="Path 60" d="M1629.21,183.07a8.31,8.31,0,1,1-8.31-8.31,8.31,8.31,0,0,1,8.31,8.31" transform="translate(-783.07 -99.62)" fill="#ffb79c"/>
      <path id="Path_61" data-name="Path 61" d="M1669.19,183.07a8.31,8.31,0,1,1-8.31-8.31,8.31,8.31,0,0,1,8.31,8.31" transform="translate(-783.07 -99.62)" fill="#ffb79c"/>
      <path id="Path_62" data-name="Path 62" d="M1709.17,183.07a8.31,8.31,0,1,1-8.31-8.31,8.31,8.31,0,0,1,8.31,8.31" transform="translate(-783.07 -99.62)" fill="#ffb79c"/>
      <path id="Path_63" data-name="Path 63" d="M1745.78,183.07a8.31,8.31,0,1,1-8.31-8.31,8.31,8.31,0,0,1,8.31,8.31" transform="translate(-783.07 -99.62)" fill="#ffb79c"/>
      <path id="Path_64" data-name="Path 64" d="M1509.27,220.64a8.31,8.31,0,1,1-8.31-8.31,8.31,8.31,0,0,1,8.31,8.31" transform="translate(-783.07 -99.62)" fill="#ffb79c"/>
      <path id="Path_65" data-name="Path 65" d="M1549.25,220.64a8.31,8.31,0,1,1-8.31-8.31,8.31,8.31,0,0,1,8.31,8.31" transform="translate(-783.07 -99.62)" fill="#ffb79c"/>
      <path id="Path_66" data-name="Path 66" d="M1589.23,220.64a8.31,8.31,0,1,1-8.31-8.31,8.31,8.31,0,0,1,8.31,8.31" transform="translate(-783.07 -99.62)" fill="#ffb79c"/>
      <path id="Path_67" data-name="Path 67" d="M1629.21,220.64a8.31,8.31,0,1,1-8.31-8.31,8.31,8.31,0,0,1,8.31,8.31" transform="translate(-783.07 -99.62)" fill="#ffb79c"/>
      <path id="Path_68" data-name="Path 68" d="M1669.19,220.64a8.31,8.31,0,1,1-8.31-8.31,8.31,8.31,0,0,1,8.31,8.31" transform="translate(-783.07 -99.62)" fill="#ffb79c"/>
      <path id="Path_69" data-name="Path 69" d="M1709.17,220.64a8.31,8.31,0,1,1-8.31-8.31,8.31,8.31,0,0,1,8.31,8.31" transform="translate(-783.07 -99.62)" fill="#ffb79c"/>
      <path id="Path_70" data-name="Path 70" d="M1745.78,220.64a8.31,8.31,0,1,1-8.31-8.31,8.31,8.31,0,0,1,8.31,8.31" transform="translate(-783.07 -99.62)" fill="#ffb79c"/>
      <path id="Path_71" data-name="Path 71" d="M1509.27,258.21a8.31,8.31,0,1,1-8.31-8.31,8.31,8.31,0,0,1,8.31,8.31" transform="translate(-783.07 -99.62)" fill="#a5dff9"/>
      <path id="Path_72" data-name="Path 72" d="M1549.25,258.21a8.31,8.31,0,1,1-8.31-8.31,8.31,8.31,0,0,1,8.31,8.31" transform="translate(-783.07 -99.62)" fill="#ffb79c"/>
      <path id="Path_73" data-name="Path 73" d="M1589.23,258.21a8.31,8.31,0,1,1-8.31-8.31,8.31,8.31,0,0,1,8.31,8.31" transform="translate(-783.07 -99.62)" fill="#ffb79c"/>
      <path id="Path_74" data-name="Path 74" d="M1629.21,258.21a8.31,8.31,0,1,1-8.31-8.31,8.31,8.31,0,0,1,8.31,8.31" transform="translate(-783.07 -99.62)" fill="#ffb79c"/>
      <path id="Path_75" data-name="Path 75" d="M1669.19,258.21a8.31,8.31,0,1,1-8.31-8.31,8.31,8.31,0,0,1,8.31,8.31" transform="translate(-783.07 -99.62)" fill="#ffb79c"/>
      <path id="Path_76" data-name="Path 76" d="M1709.17,258.21a8.31,8.31,0,1,1-8.31-8.31,8.31,8.31,0,0,1,8.31,8.31" transform="translate(-783.07 -99.62)" fill="#ffb79c"/>
      <path id="Path_77" data-name="Path 77" d="M1745.78,258.21a8.31,8.31,0,1,1-8.31-8.31,8.31,8.31,0,0,1,8.31,8.31" transform="translate(-783.07 -99.62)" fill="#ffb79c"/>
      <path id="Path_78" data-name="Path 78" d="M1509.27,295.78a8.31,8.31,0,1,1-8.31-8.31,8.31,8.31,0,0,1,8.31,8.31" transform="translate(-783.07 -99.62)" fill="#ffb79c"/>
      <path id="Path_79" data-name="Path 79" d="M1549.25,295.78a8.31,8.31,0,1,1-8.31-8.31,8.31,8.31,0,0,1,8.31,8.31" transform="translate(-783.07 -99.62)" fill="#ffb79c"/>
      <path id="Path_80" data-name="Path 80" d="M1589.23,295.78a8.31,8.31,0,1,1-8.31-8.31,8.31,8.31,0,0,1,8.31,8.31" transform="translate(-783.07 -99.62)" fill="#ffb79c"/>
      <path id="Path_81" data-name="Path 81" d="M1629.21,295.78a8.31,8.31,0,1,1-8.31-8.31,8.31,8.31,0,0,1,8.31,8.31" transform="translate(-783.07 -99.62)" fill="#ffb79c"/>
      <path id="Path_82" data-name="Path 82" d="M1669.19,295.78a8.31,8.31,0,1,1-8.31-8.31,8.31,8.31,0,0,1,8.31,8.31" transform="translate(-783.07 -99.62)" fill="#ffb79c"/>
      <path id="Path_83" data-name="Path 83" d="M1709.17,295.78a8.31,8.31,0,1,1-8.31-8.31,8.31,8.31,0,0,1,8.31,8.31" transform="translate(-783.07 -99.62)" fill="#ffb79c"/>
      <path id="Path_84" data-name="Path 84" d="M1745.78,295.78a8.31,8.31,0,1,1-8.31-8.31,8.31,8.31,0,0,1,8.31,8.31" transform="translate(-783.07 -99.62)" fill="#ffb79c"/>
      <path id="Path_85" data-name="Path 85" d="M935.36,369.45l-24.2-24.21,24.2-24.21" fill="none" stroke="#a5dff9" stroke-linecap="round" stroke-linejoin="round" stroke-width="3.9"/>
      <path id="Path_86" data-name="Path 86" d="M956.4,369.45l-24.2-24.21,24.2-24.21" fill="none" stroke="#a5dff9" stroke-linecap="round" stroke-linejoin="round" stroke-width="3.9"/>
      <path id="Path_87" data-name="Path 87" d="M977.44,369.45l-24.2-24.21,24.2-24.21" fill="none" stroke="#a5dff9" stroke-linecap="round" stroke-linejoin="round" stroke-width="3.9"/>
      <path id="Path_88" data-name="Path 88" d="M998.48,369.45l-24.2-24.21,24.2-24.21" fill="none" stroke="#a5dff9" stroke-linecap="round" stroke-linejoin="round" stroke-width="3.9"/>
      <path id="Path_89" data-name="Path 89" d="M1019.52,369.45l-24.2-24.21,24.2-24.21" fill="none" stroke="#a5dff9" stroke-linecap="round" stroke-linejoin="round" stroke-width="3.9"/>
      <circle id="Ellipse_2" data-name="Ellipse 2" cx="264.51" cy="264.51" r="264.51" transform="translate(91.322 286.331) rotate(-45)" fill="#026185"/>
      <circle id="Ellipse_3" data-name="Ellipse 3" cx="232.07" cy="232.07" r="232.07" transform="translate(275.314 268.583) rotate(-45)" fill="none" stroke="#231f20" stroke-miterlimit="10" stroke-width="1"/>
      <path id="Path_90" data-name="Path 90" d="M1274.91,309.67c-.11,5.34,1.16,10.61,2.41,15.8,2.06,8.55,4.34,17.52,10.4,23.89a32.69,32.69,0,0,1,3.77,4.13,6,6,0,0,1,1,5.31c-1.14,3-5.17,3.6-8.22,2.75-7-2-11.47-8.81-14.86-15.29A192.532,192.532,0,0,1,1256,313.71a2.819,2.819,0,0,1-.17-1.59,2.67,2.67,0,0,1,1.19-1.32,18,18,0,0,1,17.42-1.19" transform="translate(-783.07 -99.62)" fill="#374586"/>
      <path id="Path_91" data-name="Path 91" d="M1274.42,309.61l.49.06c-.11,5.34,1.16,10.61,2.41,15.8,2.06,8.55,4.34,17.52,10.4,23.89a32.69,32.69,0,0,1,3.77,4.13,7.816,7.816,0,0,1,.68,1.24,1.731,1.731,0,0,1-.49-.11c-7-2-11.47-8.8-14.85-15.29a192.154,192.154,0,0,1-12.94-31.15,17.811,17.811,0,0,1,10.53,1.43Z" transform="translate(-783.07 -99.62)" fill="#1f2f6d"/>
      <path id="Path_92" data-name="Path 92" d="M1305.21,230.81s-4.55,14.3-21.06,23-16.8,9.31-27.31,10.81-18.46,5.17-21.62,17.11c-3.27,12.41.61,25.51,9.91,31.51s20.71,3,23.72,2.11,9.3-3.61,22.51-3,27.32,5.11,32.71,8.11a118.349,118.349,0,0,0,10.85,5.24s5.06-10.34,2.36-30.75-12-46.53-13.5-48.63S1311.25,223.41,1305.21,230.81Z" transform="translate(-783.07 -99.62)" fill="#f26531"/>
      <path id="Path_93" data-name="Path 93" d="M1235.22,281.73c1.49-5.61,4-9.38,7.42-12-.42,9.93,3.54,19.33,11,24.14,9.3,6,20.71,3,23.71,2.11s9.31-3.61,22.51-3,27.32,5.11,32.72,8.11c1.89,1,3.77,2,5.43,2.79.46,14.45-3.1,21.79-3.1,21.79a118.353,118.353,0,0,1-10.85-5.24c-5.39-3-19.5-7.5-32.71-8.11s-19.51,2.11-22.51,3-14.41,3.9-23.72-2.11S1232,294.14,1235.22,281.73Z" transform="translate(-783.07 -99.62)" fill="#f26531"/>
      <path id="Path_94" data-name="Path 94" d="M1305.21,230.81c2.07-5.23,5.68-9,11.82-8.28a14.54,14.54,0,0,1,7.19,3.45c9.83,7.89,15.3,20.7,19.33,32.36a112.29,112.29,0,0,1,5.53,51c-.91,7.09-4.15,20.65-14.16,16.36-6.64-2.86-11.39-10.37-15-16.3-10.39-16.95-15.88-36.5-17.16-56.28C1302.39,247.79,1302.38,237.91,1305.21,230.81Z" transform="translate(-783.07 -99.62)" fill="#374586"/>
      <path id="Path_95" data-name="Path 95" d="M1254.81,264.94c.67-.12,1.34-.22,2-.32a55.133,55.133,0,0,0,8.63-1.71,39.942,39.942,0,0,0-1.93,7.73c-.75,5.34,0,11.07,1.11,16.31a64.006,64.006,0,0,0,4.88,14.32,54.137,54.137,0,0,0,6.93,11.05c.22.27.44.54.68.8a58.253,58.253,0,0,0-8.29,2.23c-.45.13-1.1.31-1.88.5-.52-.47-1-1-1.51-1.48a46,46,0,0,1-5.31-6.81,59,59,0,0,1-8.26-22.65C1250.89,278.09,1251.39,270.91,1254.81,264.94Z" transform="translate(-783.07 -99.62)" fill="#374586"/>
      <path id="Path_96" data-name="Path 96" d="M1315.12,297.8c3.22-5.6,11-11.75,16.12-15.68a1.2,1.2,0,0,0,.56-.7,1.271,1.271,0,0,0-.23-.74c-3.25-5.89-5.76-12.62-5.28-19.33a46.661,46.661,0,0,1-21-.39c.65,3,1.29,6.08,1.94,9.12,1.25,5.93,2.52,11.9,5,17.42,1.3,2.9,3,5.77,3.06,8.94" transform="translate(-783.07 -99.62)" fill="#f26531"/>
      <path id="Path_97" data-name="Path 97" d="M1322.82,264.22a4.54,4.54,0,0,1,5.13-3.16,5.83,5.83,0,0,1,2.63,1.62c2.94,2.93,4.34,7.57,4.5,11.63.11,2.82-.07,7.09-3.61,7.72s-6.24-3.67-7.51-6.37a17.42,17.42,0,0,1-1.39-10.71C1322.65,264.71,1322.73,264.47,1322.82,264.22Z" transform="translate(-783.07 -99.62)" fill="#fff"/>
      <path id="Path_98" data-name="Path 98" d="M1302.74,253.11c1.28,19.78,6.77,39.33,17.16,56.28,3.63,5.93,8.38,13.44,15,16.3,10,4.29,13.25-9.27,14.16-16.36a112.29,112.29,0,0,0-5.53-51c-4-11.66-9.5-24.47-19.33-32.36a14.54,14.54,0,0,0-7.19-3.45c-6.14-.68-9.75,3.05-11.82,8.28C1302.38,237.91,1302.39,247.79,1302.74,253.11Zm5.43-20.69c1.76-4.76,4.83-8.15,10-7.53a12,12,0,0,1,6.12,3.15c8.36,7.18,14.13,19.47,17.55,30.1,4.81,14.91,7.33,32.89,5.45,48.58-.78,6.45-3.54,18.8-12,14.89-5.65-2.6-10.43-11.58-13.51-17-8.84-15.44-13.52-33.25-14.61-51.26C1306.88,248.52,1305.76,238.9,1308.17,232.42Z" transform="translate(-783.07 -99.62)" fill="#fff"/>
      <line id="Line_1" data-name="Line 1" y1="28.25" x2="38.16" transform="translate(561.34 133.09)" fill="none" stroke="#231f20" stroke-miterlimit="10" stroke-width="1"/>
      <line id="Line_2" data-name="Line 2" y1="5.95" x2="73.72" transform="translate(566.88 162.39)" fill="none" stroke="#231f20" stroke-miterlimit="10" stroke-width="1"/>
      <line id="Line_3" data-name="Line 3" x2="52.77" y2="11.93" transform="translate(569.04 177.84)" fill="none" stroke="#231f20" stroke-miterlimit="10" stroke-width="1"/>
      <rect id="Rectangle_1" data-name="Rectangle 1" width="247.03" height="500.69" rx="25.56" transform="translate(453 225.53)" fill="#002c54"/>
      <path id="Path_99" data-name="Path 99" d="M1457.54,333.2h-54.66v1.89a11.35,11.35,0,0,1-11.36,11.35h-63.88a11.36,11.36,0,0,1-11.36-11.35V333.2h-54.66a17.52,17.52,0,0,0-17.5,17.5V800.28a17.52,17.52,0,0,0,17.5,17.51h195.92a17.53,17.53,0,0,0,17.51-17.51V350.7A17.53,17.53,0,0,0,1457.54,333.2Z" transform="translate(-783.07 -99.62)" fill="#fffefd"/>
      <path id="Path_100" data-name="Path 100" d="M1420.63,364.79a3.41,3.41,0,0,1-3.41,3.41H1301.94a3.41,3.41,0,0,1-3.41-3.41h0a3.42,3.42,0,0,1,3.41-3.42h115.28A3.42,3.42,0,0,1,1420.63,364.79Z" transform="translate(-783.07 -99.62)" fill="#002e50"/>
      <path id="Path_101" data-name="Path 101" d="M1451.2,767.65l-3.66-3.66-3.49,3.47v-10.5h7.14Zm-3.66-4.12.11.11,3.22,3.23V757.3h-6.49v9.4Z" transform="translate(-783.07 -99.62)" fill="#263238"/>
      <path id="Path_102" data-name="Path 102" d="M1353.8,766.29l-1.29-.58a3.68,3.68,0,0,1-1.68.51,3.58,3.58,0,1,1,2.67-1.22Zm-3-7a3.34,3.34,0,0,0,0,6.68,3.482,3.482,0,0,0,1.61-.5h0l1,.42-.21-.93h0a3.29,3.29,0,0,0,.87-2.27,3.35,3.35,0,0,0-3.29-3.4Z" transform="translate(-783.07 -99.62)" fill="#263238"/>
      <path id="Path_103" data-name="Path 103" d="M1362.09,765.73l-1.48-3.6-2.77-2.54,6.73-.05Zm-3.62-5.9,2.36,2.17,1.26,3.08,2.12-5.29Z" transform="translate(-783.07 -99.62)" fill="#263238"/>
      <path id="Path_104" data-name="Path 104" d="M577.83,662.52l-.14-.21,3.68-2.38.13.2Z" fill="#263238"/>
      <path id="Path_105" data-name="Path 105" d="M1343.21,760.35a4.6,4.6,0,0,1-6.12-1.64,2.14,2.14,0,0,0-2.09,1.71,2.781,2.781,0,0,0,.51,2A8.638,8.638,0,0,0,1337,764l2.2,2c.73-.68,1.36-1.32,2.1-2a8.3,8.3,0,0,0,1.45-1.57,2.79,2.79,0,0,0,.46-2.08Z" transform="translate(-783.07 -99.62)" fill="#e8505b"/>
      <path id="Path_106" data-name="Path 106" d="M1458.69,776.94v-4.58c0-3,0-7.42-.06-13.14,0-11.44-.06-28.09-.12-49l.22.21-199.1.12h0l.33-.33v66.69l-.31-.31,142.47.15,41.59.08h.11l-41.52.09-142.69.15h-.31V709.74h.33l199.1.11h.21v.21c-.05,20.94-.09,37.63-.11,49.1v16.47a5.645,5.645,0,0,1-.14,1.31Z" transform="translate(-783.07 -99.62)" fill="#263238"/>
      <path id="Path_107" data-name="Path 107" d="M1442.34,679.41l-5.43-5.45-5.18,5.17V663.52h10.61Zm-5.43-6.13.17.18,4.79,4.8V664.02h-9.65v14Z" transform="translate(-783.07 -99.62)" fill="#263238"/>
      <path id="Path_108" data-name="Path 108" d="M1304.33,677.77l-2.55-1.13a6.44,6.44,0,1,1,2-1.41ZM1298.39,664a6.57,6.57,0,1,0,.1,13.14,6.87,6.87,0,0,0,3.17-1l.11-.06,1.87.84-.43-1.85.09-.09a6.481,6.481,0,0,0,1.71-4.47A6.57,6.57,0,0,0,1298.39,664Z" transform="translate(-802.07 -99.62)" fill="#263238"/>
      <path id="Path_109" data-name="Path 109" d="M1320.66,676.68l-2.91-7.1-5.46-5,13.24-.11Zm-7.14-11.61,4.66,4.28,2.48,6,4.16-10.41Z" transform="translate(-802.07 -99.62)" fill="#263238"/>
      <path id="Path_110" data-name="Path 110" d="M535.24,569.98l-.26-.4,7.22-4.7.26.4Z" transform="translate(-19)" fill="#263238"/>
      <path id="Path_112" data-name="Path 112" d="M1291.26,435.68a9,9,0,1,1-9-9,9,9,0,0,1,9,9Z" transform="translate(-783.07 -99.62)" fill="#ebebeb"/>
      <rect id="Rectangle_2" data-name="Rectangle 2" width="199.11" height="121.76" transform="translate(477.71 336.95)" fill="#e0e0e0"/>
      <path id="Path_113" data-name="Path 113" d="M496.09,458.74l57.05-76.37,35.37,47.76,23.98-25.55,47.01,54.1Z" fill="#f5f5f5"/>
      <path id="Path_114" data-name="Path 114" d="M1386.58,472.62a12.87,12.87,0,1,1-12.88-12.87A12.87,12.87,0,0,1,1386.58,472.62Z" transform="translate(-783.07 -99.62)" fill="#f5f5f5"/>
      <path id="Path_115" data-name="Path 115" d="M1459.35,688.38c0-2.6-.12-112.6-.29-275.44l.29.3H1260.27l.33-.33c0,103,0,198.34-.07,275.44l-.26-.26,199.11.26-199.11.26H1260v-.27c0-77.1,0-172.43-.06-275.44v-.32h199.72v.29c-.06,81.5-.11,150.39-.14,198.92,0,24.22-.07,43.36-.08,56.46v18.78A8.568,8.568,0,0,1,1459.35,688.38Z" transform="translate(-783.07 -99.62)" fill="#263238"/>
      <line id="Line_4" data-name="Line 4" x2="21.17" transform="translate(648.59 285.21)" fill="none" stroke="#231f20" stroke-miterlimit="10" stroke-width="0.5"/>
      <line id="Line_5" data-name="Line 5" x2="21.17" transform="translate(648.59 291.12)" fill="none" stroke="#231f20" stroke-miterlimit="10" stroke-width="0.5"/>
      <line id="Line_6" data-name="Line 6" x2="21.17" transform="translate(648.59 297.03)" fill="none" stroke="#231f20" stroke-miterlimit="10" stroke-width="0.5"/>
      <line id="Line_7" data-name="Line 7" x2="98.69" transform="translate(520.33 326.33)" fill="none" stroke="#231f20" stroke-miterlimit="10" stroke-width="0.5"/>
      <line id="Line_8" data-name="Line 8" x2="177.92" transform="translate(490.22 505.59)" fill="none" stroke="#231f20" stroke-miterlimit="10" stroke-width="0.5"/>
      <line id="Line_9" data-name="Line 9" x2="177.92" transform="translate(490.22 523.93)" fill="none" stroke="#231f20" stroke-miterlimit="10" stroke-width="0.5"/>
      <line id="Line_10" data-name="Line 10" x2="121.96" transform="translate(490.22 542.27)" fill="none" stroke="#231f20" stroke-miterlimit="10" stroke-width="0.5"/>
      <line id="Line_11" data-name="Line 11" x2="121.39" transform="translate(548.37 621.78)" fill="none" stroke="#231f20" stroke-miterlimit="10" stroke-width="0.5"/>
      <line id="Line_12" data-name="Line 12" x2="121.39" transform="translate(548.37 633.8)" fill="none" stroke="#231f20" stroke-miterlimit="10" stroke-width="0.5"/>
      <line id="Line_13" data-name="Line 13" x2="74.39" transform="translate(548.37 646.87)" fill="none" stroke="#231f20" stroke-miterlimit="10" stroke-width="0.5"/>
      <rect id="Rectangle_3" data-name="Rectangle 3" width="52.24" height="38.21" transform="translate(483.63 623.01)" fill="none" stroke="#231f20" stroke-miterlimit="10" stroke-width="0.5"/>
      <rect id="Rectangle_4" data-name="Rectangle 4" width="38.54" height="51.27" transform="translate(486.389 663.069) rotate(-89.656)" fill="#e0e0e0"/>
      <path id="Path_120" data-name="Path 120" d="M1285.21,333.32l-33,33.12.18,33.64h160.48l.06-.07c14.29-15.68,28.68-31.24,42.9-47V333.32Z" transform="translate(-791.07 -99.62)" fill="#ffb79c" opacity="0.4"/>
      <path id="Path_117" data-name="Path 117" d="M486.46,663.11l18.05-23.86,11.01,15.05,7.57-7.97,14.65,17.07Z" fill="#026185"/>
      <path id="Path_118" data-name="Path 118" d="M1303.4,736a4,4,0,1,1-4-4.06,4.05,4.05,0,0,1,4,4.06Z" transform="translate(-783.07 -99.62)" fill="#026185"/>
      <path id="Path_119" data-name="Path 119" d="M1413.38,798.25a10.05,10.05,0,0,1-10.05,10.06h-81a10.05,10.05,0,0,1-10-10.06h0a10.05,10.05,0,0,1,10-10h81a10.05,10.05,0,0,1,10.05,10Z" transform="translate(-783.07 -99.62)" fill="#0b1c30"/>
      <path id="Path_121" data-name="Path 121" d="M1401.73,383.93,1459,441.14a1.414,1.414,0,0,0,2-2l-57.21-57.22a1.414,1.414,0,0,0-2,2Z" transform="translate(-783.07 -99.62)" fill="#f26531"/>
      <path id="Path_122" data-name="Path 122" d="M1229,384.73,1286.16,442a1.414,1.414,0,0,0,2-2l-57.22-57.22a1.414,1.414,0,0,0-2,2Z" transform="translate(-783.07 -99.62)" fill="#f26531"/>
      <path id="Path_123" data-name="Path 123" d="M477.5,233.71l-47.64,49.92h19.51l47.64-49.92Z" fill="#f26531"/>
      <path id="Path_124" data-name="Path 124" d="M1212.92,383.25V384a9.77,9.77,0,1,0,19.52,0v-.74Z" transform="translate(-783.07 -99.62)" fill="#f26531"/>
      <path id="Path_125" data-name="Path 125" d="M497.01,233.71l-47.64,49.92h19.52l47.77-49.92Z" fill="#fbf9fa"/>
      <path id="Path_126" data-name="Path 126" d="M1232.44,383.25V384a9.76,9.76,0,1,0,19.51,0v-.74Z" transform="translate(-783.07 -99.62)" fill="#fbf9fa"/>
      <path id="Path_127" data-name="Path 127" d="M516.53,233.71l-47.64,49.92H488.4l47.77-49.92Z" fill="#f26531"/>
      <path id="Path_128" data-name="Path 128" d="M1252,383.25V384a9.77,9.77,0,1,0,19.52,0v-.74Z" transform="translate(-783.07 -99.62)" fill="#f26531"/>
      <path id="Path_129" data-name="Path 129" d="M536.04,233.71,488.4,283.63h19.51l47.78-49.92Z" fill="#fbf9fa"/>
      <path id="Path_130" data-name="Path 130" d="M1271.47,383.25V384a9.76,9.76,0,1,0,19.51,0v-.74Z" transform="translate(-783.07 -99.62)" fill="#fbf9fa"/>
      <path id="Path_131" data-name="Path 131" d="M555.55,233.71l-47.64,49.92h19.52l47.77-49.92Z" fill="#f26531"/>
      <path id="Path_132" data-name="Path 132" d="M1291,383.25V384a9.77,9.77,0,1,0,19.52,0v-.74Z" transform="translate(-783.07 -99.62)" fill="#f26531"/>
      <path id="Path_133" data-name="Path 133" d="M575.07,233.71l-47.64,49.92h19.51l47.77-49.92Z" fill="#fbf9fa"/>
      <path id="Path_134" data-name="Path 134" d="M1310.5,383.25V384a9.76,9.76,0,1,0,19.51,0v-.74Z" transform="translate(-783.07 -99.62)" fill="#fbf9fa"/>
      <path id="Path_135" data-name="Path 135" d="M594.58,233.71l-47.64,49.92h19.52l47.77-49.92Z" fill="#f26531"/>
      <path id="Path_136" data-name="Path 136" d="M1330,383.25V384a9.77,9.77,0,1,0,19.52,0v-.74Z" transform="translate(-783.07 -99.62)" fill="#f26531"/>
      <path id="Path_137" data-name="Path 137" d="M614.1,233.71l-47.64,49.92h19.51l47.78-49.92Z" fill="#fbf9fa"/>
      <path id="Path_138" data-name="Path 138" d="M1349.53,383.25V384a9.76,9.76,0,1,0,19.51,0v-.74Z" transform="translate(-783.07 -99.62)" fill="#fbf9fa"/>
      <path id="Path_139" data-name="Path 139" d="M633.61,233.71l-47.64,49.92h19.52l47.77-49.92Z" fill="#f26531"/>
      <path id="Path_140" data-name="Path 140" d="M1369,383.25V384a9.77,9.77,0,1,0,19.52,0v-.74Z" transform="translate(-783.07 -99.62)" fill="#f26531"/>
      <path id="Path_141" data-name="Path 141" d="M653.13,233.71l-47.64,49.92H625l47.78-49.92Z" fill="#fbf9fa"/>
      <path id="Path_142" data-name="Path 142" d="M1388.56,383.25V384a9.76,9.76,0,1,0,19.51,0v-.74Z" transform="translate(-783.07 -99.62)" fill="#fbf9fa"/>
      <path id="Path_143" data-name="Path 143" d="M1393.15,590.72H1221a21.18,21.18,0,0,1-21.16-21.16V491.49A21.17,21.17,0,0,1,1221,470.34h172.18a21.17,21.17,0,0,1,21.16,21.15v78.07a21.18,21.18,0,0,1-21.19,21.16ZM1221,471.79a19.73,19.73,0,0,0-19.71,19.7v78.07a19.73,19.73,0,0,0,19.71,19.7h172.18a19.73,19.73,0,0,0,19.7-19.7V491.49a19.73,19.73,0,0,0-19.7-19.7Z" transform="translate(-783.07 -99.62)" fill="#ffb79c"/>
      <rect id="Rectangle_5" data-name="Rectangle 5" width="213.04" height="118.93" rx="20.43" transform="translate(446.16 348.1)" fill="#ffd5c5"/>
      <rect id="Rectangle_6" data-name="Rectangle 6" width="108.47" height="22.86" transform="translate(537.49 377.41)" fill="#f26531"/>
      <rect id="Rectangle_7" data-name="Rectangle 7" width="76.36" height="2.43" transform="translate(537.49 410.49)" fill="#026185"/>
      <rect id="Rectangle_8" data-name="Rectangle 8" width="76.36" height="2.43" transform="translate(537.49 420.21)" fill="#026185"/>
      <path id="Path_144" data-name="Path 144" d="M1297.11,482.51h-3.22a1.59,1.59,0,0,1-1.59-1.59V469.28a1.59,1.59,0,0,1,1.59-1.59h4a1.61,1.61,0,0,1,1.63,1.59v11.64a1.61,1.61,0,0,1-1.63,1.59Zm0-1.2h.39a.39.39,0,0,0,.4-.39V469.28a.39.39,0,0,0-.4-.39h-3.22a.42.42,0,0,0-.39.39v11.64a.42.42,0,0,0,.39.39h2.83ZM1309,467.69l-11.24,28.05h-1.59l11.2-28.05Zm4.13,14.82v11.64a1.6,1.6,0,0,1-1.63,1.59h-4a1.59,1.59,0,0,1-1.59-1.59V482.51a1.59,1.59,0,0,1,1.59-1.59h4a1.6,1.6,0,0,1,1.65,1.59Zm-1.63,3.61v-3.61a.4.4,0,0,0-.39-.4H1308a.44.44,0,0,0-.44.4v11.64a.43.43,0,0,0,.44.39h3.18a.39.39,0,0,0,.39-.39v-8Z" transform="translate(-783.07 -99.62)"/>
      <path id="Path_145" data-name="Path 145" d="M1259.38,478.71s5.2,5.21,12.77,0h11.12l11.6,17L1284.63,501l-4.67-5.21-1.19,39h-31.7l-.71-39-9.94,6.63-.35-13.91,10.53-9.75Z" transform="translate(-783.07 -99.62)" fill="#026185"/>
      <path id="Path_146" data-name="Path 146" d="M1347,489.27h66.73a.63.63,0,0,0,0-1.25H1347a.63.63,0,0,0,0,1.25Z" transform="translate(-783.07 -99.62)" fill="#f15a29"/>
      <rect id="Rectangle_9" data-name="Rectangle 9" width="120.58" height="16.54" transform="translate(537.49 505.54)" fill="#f26531"/>
      <rect id="Rectangle_10" data-name="Rectangle 10" width="83.18" height="2.92" transform="translate(537.49 531.8)" fill="#ffb79c"/>
      <rect id="Rectangle_11" data-name="Rectangle 11" width="83.18" height="2.91" transform="translate(537.49 545.42)" fill="#ffb79c"/>
      <path id="Path_147" data-name="Path 147" d="M785.49,618.39l4.28-12.72,17.85-53.11-1.29-2.1-62.85-.35L715.6,606.28l1.29,2.1,55.2,8.05Z" fill="#566c81"/>
      <rect id="Rectangle_12" data-name="Rectangle 12" width="98.279" height="73.029" transform="matrix(0.853, -0.522, 0.522, 0.853, 706.573, 598.216)" fill="#f5f5f5"/>
      <path id="Path_148" data-name="Path 148" d="M715.6,606.28l37.22,60.49,17.97-52.43Z" fill="#00529d"/>
      <path id="Path_149" data-name="Path 149" d="M784.2,616.29l-13.41-1.95-17.97,52.43,90.73-55.82-55.07-7.38Z" fill="#566c81"/>
      <path id="Path_150" data-name="Path 150" d="M788.48,603.57l55.07,7.38-37.22-60.49Z" fill="#026185"/>
      <path id="Path_151" data-name="Path 151" d="M1500.08,535.86c-23.66,0-42.83,15.16-42.83,33.86,0,13.47,10,25.09,24.35,30.55-3.93,8.71-12.4,12.46-12.4,12.46,21.34.5,27.19-9.29,27.19-9.29h0c1.21.08,2.44.13,3.69.13,23.65,0,42.83-15.15,42.83-33.85S1523.73,535.86,1500.08,535.86Z" transform="translate(-783.07 -99.62)" fill="#026185"/>
      <path id="Path_152" data-name="Path 152" d="M1538.8,509.38c27.94,0,50.59,17.91,50.59,40,0,15.91-11.75,29.64-28.77,36.08,4.65,10.29,14.66,14.71,14.66,14.71-25.22.61-32.11-11-32.11-11h0c-1.43.1-2.88.15-4.36.15-27.94,0-50.59-17.89-50.59-40S1510.86,509.38,1538.8,509.38Z" transform="translate(-783.07 -99.62)" fill="#f26531"/>
      <path id="Path_153" data-name="Path 153" d="M1509.92,550.08a6.77,6.77,0,1,0,6.76-6.76A6.77,6.77,0,0,0,1509.92,550.08Z" transform="translate(-783.07 -99.62)" fill="#f5f5f5"/>
      <path id="Path_154" data-name="Path 154" d="M1531.47,550.08a6.77,6.77,0,1,0,6.77-6.76A6.77,6.77,0,0,0,1531.47,550.08Z" transform="translate(-783.07 -99.62)" fill="#f5f5f5"/>
      <path id="Path_155" data-name="Path 155" d="M1553.34,550.08a6.78,6.78,0,1,0,6.78-6.76,6.78,6.78,0,0,0-6.78,6.76Z" transform="translate(-783.07 -99.62)" fill="#f5f5f5"/>
      <rect id="Rectangle_13" data-name="Rectangle 13" width="122.36" height="77.63" transform="translate(710.42 251.66)" fill="#f26531"/>
      <path id="Path_156" data-name="Path 156" d="M751.21,325.48l15.06,21.78V323.29Z" fill="#f26531"/>
      <rect id="Rectangle_14" data-name="Rectangle 14" width="62.46" height="26.83" transform="translate(725.29 263.64)" fill="#fff"/>
      <rect id="Rectangle_15" data-name="Rectangle 15" width="77.33" height="2.05" transform="translate(725.29 295.95)" fill="#fff"/>
      <rect id="Rectangle_16" data-name="Rectangle 16" width="77.33" height="2.05" transform="translate(725.29 304.72)" fill="#fff"/>
      <rect id="Rectangle_17" data-name="Rectangle 17" width="40.98" height="2.05" transform="translate(725.29 313.49)" fill="#fff"/>
      <path id="Path_157" data-name="Path 157" d="M1592.47,377.38h-2.89a1.43,1.43,0,0,1-1.43-1.42V365.5a1.43,1.43,0,0,1,1.43-1.42h3.6a1.43,1.43,0,0,1,1.46,1.42V376a1.43,1.43,0,0,1-1.46,1.42Zm0-1.07h.35a.35.35,0,0,0,.36-.35V365.5a.36.36,0,0,0-.36-.35h-2.89a.38.38,0,0,0-.35.35V376a.38.38,0,0,0,.35.35h2.54Zm10.7-12.23-10.09,25.18h-1.43l10.06-25.18Zm3.71,13.3v10.46a1.43,1.43,0,0,1-1.46,1.42h-3.6a1.43,1.43,0,0,1-1.43-1.42V377.38a1.43,1.43,0,0,1,1.43-1.42h3.6a1.43,1.43,0,0,1,1.46,1.42Zm-1.46,3.25v-3.25a.35.35,0,0,0-.36-.35h-2.85a.38.38,0,0,0-.39.35v10.46a.38.38,0,0,0,.39.35h2.85a.36.36,0,0,0,.36-.35Z" transform="translate(-783.07 -99.62)"/>
      <path id="Path_158" data-name="Path 158" d="M1474.79,714.69l.3-31.13a25.8,25.8,0,0,1,51.6.51l-.3,31.12h-2.84l.3-31.13a23,23,0,1,0-45.91-.45l-.3,31.13Z" transform="translate(-783.07 -99.62)" fill="#fff"/>
      <path id="Path_159" data-name="Path 159" d="M650.97,607.41l25.16-6.11,103.9.77L756.8,620.69,654.06,609.45" fill="#dbd6cc"/>
      <path id="Path_160" data-name="Path 160" d="M776.73,744.25l7.87-5.29,12.44,1.76L780.03,602.07l-13.7,6.94Z" fill="#ffb79c"/>
      <path id="Path_161" data-name="Path 161" d="M776.73,744.25l-139.75-2.22,13.99-134.62,115.36,1.6Z" fill="#ffb79c"/>
      <path id="Path_162" data-name="Path 162" d="M1429.59,749.87l-4.74,45.57q22.92,23.52,45.88,47l50.44.81Z" transform="translate(-783.07 -99.62)" fill="#f26531"/>
      <path id="Path_163" data-name="Path 163" d="M768.57,638.15l-2.24-29.14-26.7-.36Z" fill="#f26531"/>
      <path id="Path_164" data-name="Path 164" d="M695.96,608.04l-44.99-.63-.32,3.14L776.3,738.67l-4.07-52.87Z" fill="#f26531"/>
      <path id="Path_165" data-name="Path 165" d="M1514.38,715.5a5,5,0,1,0,3.239-2.086A5,5,0,0,0,1514.38,715.5Z" transform="translate(-783.07 -99.62)" fill="#fff"/>
      <path id="Path_166" data-name="Path 166" d="M1465.62,715a5,5,0,1,0,3.239-2.086A5,5,0,0,0,1465.62,715Z" transform="translate(-783.07 -99.62)" fill="#fff"/>
      <path id="Path_167" data-name="Path 167" d="M1468.32,717.9l.31-31.12a25.8,25.8,0,0,1,51.6.49l-.3,31.13h-2.84l.29-31.12a23,23,0,1,0-45.91-.45l-.3,31.12Z" transform="translate(-783.07 -99.62)" fill="#fff"/>
      <path id="Path_168" data-name="Path 168" d="M1395.34,746.49l.3-31.13a25.8,25.8,0,1,1,51.6.5L1447,747h-2.86l.31-31.12a23,23,0,1,0-45.91-.45l-.3,31.13Z" transform="translate(-783.07 -99.62)" fill="#fff"/>
      <path id="Path_169" data-name="Path 169" d="M571.52,639.21l25.16-6.11,103.9.77-23.22,18.62L574.61,641.25" fill="#dbd6cc"/>
      <path id="Path_170" data-name="Path 170" d="M697.28,776.05l7.87-5.29,12.44,1.76L700.58,633.87l-13.71,6.94Z" fill="#ffb79c"/>
      <path id="Path_171" data-name="Path 171" d="M697.28,776.05l-139.75-2.22,13.99-134.62,115.35,1.6Z" fill="#ffb79c"/>
      <path id="Path_172" data-name="Path 172" d="M1350.14,781.67l-4.74,45.57q22.92,23.52,45.88,47l50.44.8Z" transform="translate(-783.07 -99.62)" fill="#f26531"/>
      <path id="Path_173" data-name="Path 173" d="M689.12,669.95l-2.25-29.14-26.69-.36Z" fill="#f26531"/>
      <path id="Path_174" data-name="Path 174" d="M616.51,639.84l-44.99-.63-.32,3.13L696.85,770.47l-4.07-52.86Z" fill="#f26531"/>
      <path id="Path_175" data-name="Path 175" d="M1434.93,747.3a5,5,0,1,0,7-1.25,5.06,5.06,0,0,0-7,1.25Z" transform="translate(-783.07 -99.62)" fill="#fff"/>
      <path id="Path_176" data-name="Path 176" d="M1386.17,746.83a5,5,0,1,0,3.239-2.086,5,5,0,0,0-3.239,2.086Z" transform="translate(-783.07 -99.62)" fill="#fff"/>
      <path id="Path_178" data-name="Path 178" d="M1388.88,749.69l.3-31.12a25.8,25.8,0,0,1,51.6.5l-.3,31.13h-2.84l.3-31.12a23,23,0,0,0-45.92-.45l-.3,31.12Z" transform="translate(-783.07 -99.62)" fill="#fff"/>
      <rect id="Rectangle_21" data-name="Rectangle 21" width="68.23" height="13.9" transform="translate(797.04 503.68)" fill="#ffb79c"/>
      <rect id="Rectangle_22" data-name="Rectangle 22" width="44.81" height="13.9" transform="translate(872.28 503.68)" fill="#ffb79c"/>
      <path id="Path_181" data-name="Path 181" d="M700.54,149.46h52.57a4.42,4.42,0,0,1,4.42,4.42V191.1a4.42,4.42,0,0,1-4.42,4.42H700.54a4.41,4.41,0,0,1-4.41-4.41V153.88a4.42,4.42,0,0,1,4.41-4.42Z" fill="#f26531"/>
      <path id="Path_182" data-name="Path 182" d="M1487.72,292.31v12.74l13-13S1487.45,292,1487.72,292.31Z" transform="translate(-783.07 -99.62)" fill="#f26531"/>
      <g id="Group_1" data-name="Group 1" opacity="0.61">
        <path id="Path_183" data-name="Path 183" d="M717.18,165.57l4.14,2.58-4.33,2.44" fill="#345091"/>
        <path id="Path_184" data-name="Path 184" d="M737.28,171.08l-4.14-2.58,4.33-2.44" fill="#345091"/>
        <path id="Path_185" data-name="Path 185" d="M1500.9,279a10.75,10.75,0,0,0,17.9.43c-1.89-1.41-5.16-2.39-8.9-2.48a16.518,16.518,0,0,0-9,2.05Z" transform="translate(-783.07 -99.62)" fill="#345091"/>
        <path id="Path_186" data-name="Path 186" d="M1499.26,272.66v.38a10.7,10.7,0,0,0,1.66,6,16.2,16.2,0,0,1,9-2.05c3.73.1,7,1.07,8.9,2.48a10.67,10.67,0,0,0,2-5.91Z" transform="translate(-783.07 -99.62)" fill="#345091"/>
      </g>
      <path id="Path_187" data-name="Path 187" d="M1526.7,272.51a16.81,16.81,0,1,1-16.4-17.21A16.81,16.81,0,0,1,1526.7,272.51Z" transform="translate(-783.07 -99.62)" fill="#fff"/>
      <path id="Path_188" data-name="Path 188" d="M717.08,164.38l4.13,2.57-4.32,2.45" fill="none" stroke="#262935" stroke-linecap="round" stroke-linejoin="round" stroke-width="1.66"/>
      <path id="Path_189" data-name="Path 189" d="M737.17,169.89l-4.13-2.58,4.32-2.44" fill="none" stroke="#262935" stroke-linecap="round" stroke-linejoin="round" stroke-width="1.66"/>
      <path id="Path_190" data-name="Path 190" d="M1500.8,277.84a10.74,10.74,0,0,0,17.9.43c-1.89-1.41-5.16-2.39-8.9-2.48S1502.76,276.52,1500.8,277.84Z" transform="translate(-783.07 -99.62)" fill="#d93a63"/>
      <path id="Path_191" data-name="Path 191" d="M1499.16,271.46v.38a10.6,10.6,0,0,0,1.66,6,15.865,15.865,0,0,1,9-2c3.74.14,7,1.07,8.9,2.48a10.69,10.69,0,0,0,2-5.9Z" transform="translate(-783.07 -99.62)" fill="#262935"/>
      <rect id="Rectangle_23" data-name="Rectangle 23" width="61.41" height="46.05" rx="4.42" transform="translate(423.22 638.37)" fill="#f26531"/>
      <path id="Path_192" data-name="Path 192" d="M1214.82,781.21V794l13-13S1214.55,780.94,1214.82,781.21Z" transform="translate(-783.07 -99.62)" fill="#f26531"/>
      <g id="Group_2" data-name="Group 2" opacity="0.61">
        <path id="Path_193" data-name="Path 193" d="M444.28,654.47l4.14,2.58-4.33,2.44" fill="#345091"/>
        <path id="Path_194" data-name="Path 194" d="M464.37,659.98l-4.13-2.58,4.32-2.44" fill="#345091"/>
        <path id="Path_195" data-name="Path 195" d="M1228,767.94a10.74,10.74,0,0,0,17.9.43c-1.89-1.41-5.16-2.39-8.9-2.49A16.171,16.171,0,0,0,1228,767.94Z" transform="translate(-783.07 -99.62)" fill="#345091"/>
        <path id="Path_196" data-name="Path 196" d="M1226.35,761.56v.38a10.68,10.68,0,0,0,1.66,6,16.277,16.277,0,0,1,9-2.06c3.73.09,7,1.08,8.9,2.49a10.7,10.7,0,0,0,1.95-5.91Z" transform="translate(-783.07 -99.62)" fill="#345091"/>
      </g>
      <path id="Path_197" data-name="Path 197" d="M1253.8,761.41a16.81,16.81,0,1,1-16.4-17.21,16.81,16.81,0,0,1,16.4,17.21Z" transform="translate(-783.07 -99.62)" fill="#fff"/>
      <path id="Path_198" data-name="Path 198" d="M444.18,653.27l4.13,2.59-4.32,2.43" fill="none" stroke="#262935" stroke-linecap="round" stroke-linejoin="round" stroke-width="1.66"/>
      <path id="Path_199" data-name="Path 199" d="M464.27,658.79l-4.13-2.58,4.32-2.44" fill="none" stroke="#262935" stroke-linecap="round" stroke-linejoin="round" stroke-width="1.66"/>
      <path id="Path_200" data-name="Path 200" d="M1227.89,766.74a10.75,10.75,0,0,0,17.91.43c-1.9-1.41-5.16-2.39-8.9-2.48S1229.85,765.42,1227.89,766.74Z" transform="translate(-783.07 -99.62)" fill="#d93a63"/>
      <path id="Path_201" data-name="Path 201" d="M1226.25,760.37v.38a10.658,10.658,0,0,0,1.65,6,15.887,15.887,0,0,1,9-2c3.73.14,7,1.07,8.9,2.48a10.611,10.611,0,0,0,1.94-5.9Z" transform="translate(-783.07 -99.62)" fill="#262935"/>
      <path id="Path_202" data-name="Path 202" d="M1587.92,424.45,1560,440a7.26,7.26,0,0,0-2.81,9.88l9.56,17.16a7.26,7.26,0,0,0,9.89,2.81l27.9-15.54a7.26,7.26,0,0,0,2.81-9.88l-9.56-17.17a7.28,7.28,0,0,0-9.87-2.81Z" transform="translate(-783.07 -99.62)" fill="#ffb79c"/>
      <path id="Path_203" data-name="Path 203" d="M1590.26,440.08c-1.44-2.41-4.15-3.82-7.13-2.19a5.32,5.32,0,0,0-2.77,4.93,5.35,5.35,0,0,0-5.65-.33c-4.08,2.23-3.1,7.4.21,9.71a17.669,17.669,0,0,0,12,2.77h.06c2.49-3.1,4.48-7.26,4.3-11.32a7.739,7.739,0,0,0-1.02-3.57Z" transform="translate(-783.07 -99.62)" fill="#f2f3f3"/>
    </g>
  </g>
</svg>
