<svg xmlns="http://www.w3.org/2000/svg" xmlns:xlink="http://www.w3.org/1999/xlink" width="677.151" height="570.129" viewBox="0 0 677.151 570.129">
  <defs>
    <linearGradient id="linear-gradient" y1="0.5" x2="1" y2="0.5" gradientUnits="objectBoundingBox">
      <stop offset="0" stop-color="#fff"/>
      <stop offset="1" stop-color="#fff" stop-opacity="0.302"/>
    </linearGradient>
  </defs>
  <g id="Group_3" data-name="Group 3" transform="translate(-324.22 -118.043)">
    <g id="undraw_Personal_goals_re_iow7" transform="translate(292 100)">
      <path id="Path_102" data-name="Path 102" d="M930.373,515.185c-.8,1.529-1.625,3.032-2.481,4.526-32.833,57.2-109.208,92.722-238.013,73.921-73.135-11.183-104.281,29.836-134.44,71.85-.516.725-1.031,1.45-1.555,2.175-31.583,44.059-62.852,88.24-141.036,73.554-82.885-13.1-134.038-80.4-141.953-152.254-.1-.874-.183-1.756-.262-2.63-4.447-46.584,9.3-94.819,44.356-131.234,21.178-21.99,51.267-33.671,82.326-33.3a151.325,151.325,0,0,0,27.922-2.071c2.036-.358,4.01-.751,5.932-1.2,39.568-9.042,57.8-35.925,68.985-68.731.262-.778.524-1.555.778-2.341,25.677-78.237,13.8-188.048,153.4-171.894,124.917,9.208,216.591,78.473,261.558,158.387.446.8.891,1.608,1.328,2.411a243.745,243.745,0,0,1,26.14,71.038c.28,1.4.533,2.8.769,4.194C950.485,448.7,946.317,484.772,930.373,515.185Z" transform="translate(-237.602 -155.914)" fill="#3f3d56"/>
    </g>
    <g id="Group_2" data-name="Group 2" transform="translate(7 -52)">
      <g id="undraw_Online_posts_re_7ucl" transform="translate(444.327 232.675)">
        <path id="Path_60" data-name="Path 60" d="M482.748,198.49h-2.63V126.441a41.7,41.7,0,0,0-41.7-41.7H285.771a41.7,41.7,0,0,0-41.7,41.7V521.71a41.7,41.7,0,0,0,41.7,41.7H438.418a41.7,41.7,0,0,0,41.7-41.7V249.776h2.63Z" transform="translate(-244.071 -84.741)" fill="#302f46"/>
        <path id="Path_61" data-name="Path 61" d="M446.089,101.236H426.163a14.8,14.8,0,0,1-13.7,20.383H325.016a14.8,14.8,0,0,1-13.7-20.383h-18.61a31.141,31.141,0,0,0-31.141,31.141V527.065a31.141,31.141,0,0,0,31.141,31.141H446.089a31.141,31.141,0,0,0,31.141-31.141h0V132.377a31.141,31.141,0,0,0-31.141-31.141Z" transform="translate(-250.059 -90.387)" fill="#f2f2f2"/>
        <rect id="Rectangle_7" data-name="Rectangle 7" width="40.39" height="40.39" rx="5" transform="translate(43.193 74.283)" fill="#0fa"/>
        <rect id="Rectangle_15" data-name="Rectangle 15" width="40.39" height="40.39" rx="5" transform="translate(43.193 126.504)" fill="#0fa"/>
      </g>
      <path id="Path_87" data-name="Path 87" d="M643.932,462.176H556.161c-2.53,0-3.354-1.068-3.354-2.386s.824-2.386,3.354-2.386h87.772c2.53,0,3.424,1.068,3.424,2.386S646.463,462.176,643.932,462.176Z" transform="translate(-13.4 -62.337)" opacity="0.1"/>
      <path id="Path_88" data-name="Path 88" d="M643.932,462.176H556.161c-2.53,0-3.354-1.068-3.354-2.386s.824-2.386,3.354-2.386h87.772c2.53,0,3.424,1.068,3.424,2.386S646.463,462.176,643.932,462.176Z" transform="translate(-13.4 -80.096)" opacity="0.1"/>
      <path id="Path_89" data-name="Path 89" d="M602.679,462.176H554.2a2.4,2.4,0,1,1,0-4.773h48.482a2.4,2.4,0,1,1,0,4.773Z" transform="translate(-12.326 -97.854)" fill="#0fa"/>
      <path id="Path_90" data-name="Path 90" d="M643.932,462.176H556.161c-2.53,0-3.354-1.068-3.354-2.386s.824-2.386,3.354-2.386h87.772c2.53,0,3.424,1.068,3.424,2.386S646.463,462.176,643.932,462.176Z" transform="translate(-13.4 -114.297)" opacity="0.1"/>
      <path id="Path_91" data-name="Path 91" d="M643.932,462.176H556.161c-2.53,0-3.354-1.068-3.354-2.386s.824-2.386,3.354-2.386h87.772c2.53,0,3.424,1.068,3.424,2.386S646.463,462.176,643.932,462.176Z" transform="translate(-13.4 -132.055)" opacity="0.1"/>
      <path id="Path_92" data-name="Path 92" d="M602.679,462.176H554.2a2.4,2.4,0,1,1,0-4.773h48.482a2.4,2.4,0,1,1,0,4.773Z" transform="translate(-12.326 -149.813)" fill="#0fa"/>
      <path id="Path_680" data-name="Path 680" d="M350.43,473.123a2.456,2.456,0,0,0,0,4.913h25.777a2.456,2.456,0,1,0,0-4.913Z" transform="translate(254.166 -3.491)" fill="#0fa"/>
      <path id="Path_680-2" data-name="Path 680" d="M254.829,443.43a2.457,2.457,0,0,0,0,4.913H396.4a2.457,2.457,0,0,0,0-4.913Z" transform="translate(235.123 -9.877)" opacity="0.1"/>
      <path id="Path_680-3" data-name="Path 680" d="M254.829,458.277a2.457,2.457,0,0,0,0,4.913H396.4a2.457,2.457,0,0,0,0-4.913Z" transform="translate(235.123 -6.684)" opacity="0.1"/>
      <rect id="Rectangle_17" data-name="Rectangle 17" width="40.39" height="40.39" rx="5" transform="translate(487.52 490.591)" fill="#0fa"/>
      <path id="Path_96" data-name="Path 96" d="M643.932,462.176H556.161c-2.53,0-3.354-1.068-3.354-2.386s.824-2.386,3.354-2.386h87.772c2.53,0,3.424,1.068,3.424,2.386S646.463,462.176,643.932,462.176Z" transform="translate(-13.4 68.547)" opacity="0.11"/>
      <path id="Path_97" data-name="Path 97" d="M643.932,462.176H556.161c-2.53,0-3.354-1.068-3.354-2.386s.824-2.386,3.354-2.386h87.772c2.53,0,3.424,1.068,3.424,2.386S646.463,462.176,643.932,462.176Z" transform="translate(-13.4 50.789)" opacity="0.11"/>
      <path id="Path_98" data-name="Path 98" d="M602.679,462.176H554.2a2.4,2.4,0,1,1,0-4.773h48.482a2.4,2.4,0,1,1,0,4.773Z" transform="translate(-12.326 33.031)" fill="#0fa"/>
      <path id="Path_680-4" data-name="Path 680" d="M254.829,443.43a2.457,2.457,0,0,0,0,4.913H396.4a2.457,2.457,0,0,0,0-4.913Z" transform="translate(235.123 -27.635)" opacity="0.1"/>
      <rect id="Rectangle_18" data-name="Rectangle 18" width="40.39" height="40.39" rx="5" transform="translate(487.52 543.866)" fill="#0fa"/>
      <path id="Path_99" data-name="Path 99" d="M643.932,462.176H556.161c-2.53,0-3.354-1.068-3.354-2.386s.824-2.386,3.354-2.386h87.772c2.53,0,3.424,1.068,3.424,2.386S646.463,462.176,643.932,462.176Z" transform="translate(-13.4 121.822)" opacity="0.11"/>
      <path id="Path_100" data-name="Path 100" d="M643.932,462.176H556.161c-2.53,0-3.354-1.068-3.354-2.386s.824-2.386,3.354-2.386h87.772c2.53,0,3.424,1.068,3.424,2.386S646.463,462.176,643.932,462.176Z" transform="translate(-13.4 104.064)" opacity="0.11"/>
      <path id="Path_101" data-name="Path 101" d="M602.679,462.176H554.2a2.4,2.4,0,1,1,0-4.773h48.482a2.4,2.4,0,1,1,0,4.773Z" transform="translate(-12.326 86.306)" fill="#0fa"/>
      <rect id="Rectangle_19" data-name="Rectangle 19" width="104.188" height="31.839" rx="5" transform="translate(513.991 610.706)" fill="#0fa"/>
    </g>
    <circle id="Ellipse_3" data-name="Ellipse 3" cx="12" cy="12" r="12" transform="translate(388.004 582.746)" fill="#0fa"/>
    <circle id="Ellipse_4" data-name="Ellipse 4" cx="7" cy="7" r="7" transform="translate(631.004 153.746)" fill="#0fa"/>
    <circle id="Ellipse_5" data-name="Ellipse 5" cx="4.5" cy="4.5" r="4.5" transform="translate(421.004 499.746)" fill="#0fa"/>
    <circle id="Ellipse_6" data-name="Ellipse 6" cx="10" cy="10" r="10" transform="translate(731.004 477.746)" fill="#0fa"/>
    <circle id="Ellipse_7" data-name="Ellipse 7" cx="10" cy="10" r="10" transform="translate(861.004 246.746)" fill="#0fa"/>
    <circle id="Ellipse_8" data-name="Ellipse 8" cx="4.5" cy="4.5" r="4.5" transform="translate(697.004 402.746)" fill="#0fa"/>
    <circle id="Ellipse_9" data-name="Ellipse 9" cx="4.5" cy="4.5" r="4.5" transform="translate(914.004 409.746)" fill="#0fa"/>
    <circle id="Ellipse_10" data-name="Ellipse 10" cx="4.5" cy="4.5" r="4.5" transform="translate(945.004 350.746)" fill="#0fa"/>
    <circle id="Ellipse_11" data-name="Ellipse 11" cx="4.5" cy="4.5" r="4.5" transform="translate(812.004 391.746)" fill="#0fa"/>
    <circle id="Ellipse_12" data-name="Ellipse 12" cx="7" cy="7" r="7" transform="translate(751.004 176.746)" fill="#0fa"/>
    <circle id="Ellipse_13" data-name="Ellipse 13" cx="7" cy="7" r="7" transform="translate(881.004 330.746)" fill="#0fa"/>
    <circle id="Ellipse_14" data-name="Ellipse 14" cx="2" cy="2" r="2" transform="translate(357.004 495.746)" fill="#0fa"/>
    <circle id="Ellipse_15" data-name="Ellipse 15" cx="3" cy="3" r="3" transform="translate(392.004 415.746)" fill="#0fa"/>
    <circle id="Ellipse_16" data-name="Ellipse 16" cx="4" cy="4" r="4" transform="translate(706.004 302.746)" fill="#0fa"/>
    <circle id="Ellipse_17" data-name="Ellipse 17" cx="4" cy="4" r="4" transform="translate(829.004 479.746)" fill="#0fa"/>
    <circle id="Ellipse_18" data-name="Ellipse 18" cx="4" cy="4" r="4" transform="translate(829.004 190.746)" fill="#0fa"/>
    <circle id="Ellipse_19" data-name="Ellipse 19" cx="4" cy="4" r="4" transform="translate(693.004 145.746)" fill="#0fa"/>
    <circle id="Ellipse_20" data-name="Ellipse 20" cx="10" cy="10" r="10" transform="translate(728.004 246.746)" fill="#0fa"/>
    <circle id="Ellipse_21" data-name="Ellipse 21" cx="7" cy="7" r="7" transform="translate(765.004 359.746)" fill="#0fa"/>
    <circle id="Ellipse_22" data-name="Ellipse 22" cx="2" cy="2" r="2" transform="translate(929.004 457.746)" fill="#0fa"/>
    <circle id="Ellipse_23" data-name="Ellipse 23" cx="2" cy="2" r="2" transform="translate(812.004 306.746)" fill="#0fa"/>
    <path id="Path_103" data-name="Path 103" d="M657,305.445l-2.044-1.3,1.3-2.044-.558-.354-1.3,2.044-2.044-1.3-.355.557,2.044,1.3-1.3,2.044.558.355,1.3-2.044,2.044,1.3Z" transform="translate(-256 160)" fill="#0fa"/>
    <path id="Path_104" data-name="Path 104" d="M660.092,307.73l-3.306-2.1,2.1-3.306-.9-.573-2.1,3.306-3.307-2.1-.574.9,3.307,2.1-2.1,3.307.9.574,2.1-3.307,3.307,2.1Z" transform="translate(-224 94.92)" fill="#0fa"/>
    <path id="Path_105" data-name="Path 105" d="M662.092,309.209l-4.124-2.625,2.625-4.124-1.126-.714-2.623,4.124-4.124-2.625L652,304.369l4.124,2.625-2.625,4.124,1.126.716,2.623-4.124,4.124,2.623Z" transform="translate(-226 332.417)" fill="#0fa"/>
    <path id="Path_106" data-name="Path 106" d="M660.51,308.038l-3.477-2.213,2.213-3.477-.949-.6-2.211,3.477-3.477-2.213-.6.948,3.477,2.213-2.213,3.477.949.6,2.211-3.477,3.477,2.211Z" transform="translate(-270 236)" fill="#0fa"/>
    <path id="Path_107" data-name="Path 107" d="M657,305.445l-2.044-1.3,1.3-2.044-.558-.354-1.3,2.044-2.044-1.3-.355.557,2.044,1.3-1.3,2.044.558.355,1.3-2.044,2.044,1.3Z" transform="translate(140 -47)" fill="#0fa"/>
    <path id="Path_108" data-name="Path 108" d="M660.584,308.094l-3.507-2.233,2.232-3.508-.958-.607-2.231,3.508-3.508-2.232-.609.956,3.508,2.233-2.233,3.508.957.609,2.231-3.508,3.508,2.231Z" transform="translate(89.702 23.92)" fill="#0fa"/>
    <path id="Path_109" data-name="Path 109" d="M660.51,308.038l-3.477-2.213,2.213-3.477-.949-.6-2.211,3.477-3.477-2.213-.6.948,3.477,2.213-2.213,3.477.949.6,2.211-3.477,3.477,2.211Z" transform="translate(275 -8)" fill="#0fa"/>
    <path id="Path_110" data-name="Path 110" d="M664,310.624,659.1,307.5l3.122-4.906-1.339-.85-3.12,4.906-4.906-3.122L652,304.866l4.905,3.122-3.122,4.906,1.339.852,3.12-4.906,4.906,3.12Z" transform="translate(46 -98.494)" fill="#0fa"/>
    <path id="Path_111" data-name="Path 111" d="M661.5,308.774,657.62,306.3l2.472-3.884-1.06-.673-2.47,3.884-3.884-2.472L652,304.216l3.883,2.472-2.472,3.884,1.06.675,2.47-3.884,3.884,2.47Z" transform="translate(213 135.5)" fill="#0fa"/>
    <path id="Path_112" data-name="Path 112" d="M664,310.624,659.1,307.5l3.122-4.906-1.339-.85-3.12,4.906-4.906-3.122L652,304.866l4.906,3.122-3.122,4.906,1.339.852,3.12-4.906,4.906,3.12Z" transform="translate(94 123)" fill="#0fa"/>
    <path id="Path_64" data-name="Path 64" d="M691.793,446.991l32.971-38.6,32.971-38.6L776.347,348c1.03-1.206-.559-3.086-1.589-1.881l-32.97,38.6-32.971,38.6L690.2,445.111c-1.03,1.206.559,3.086,1.589,1.881Z" transform="translate(141.649 -94)" opacity="0.8" fill="url(#linear-gradient)"/>
    <path id="Path_113" data-name="Path 113" d="M691.793,446.991l32.971-38.6,32.971-38.6L776.347,348c1.03-1.206-.559-3.086-1.589-1.881l-32.97,38.6-32.971,38.6L690.2,445.111c-1.03,1.206.559,3.086,1.589,1.881Z" transform="translate(106.649 12)" opacity="0.8" fill="url(#linear-gradient)"/>
  </g>
</svg>
