<svg xmlns="http://www.w3.org/2000/svg" width="896.784" height="675.599" viewBox="0 0 896.784 675.599">
  <g id="Group_17" data-name="Group 17" transform="translate(-3839.659 -1877.022)">
    <g id="Group_16" data-name="Group 16" transform="translate(25 -179)">
      <g id="Group_14" data-name="Group 14" transform="translate(6553.165 -1578.425) rotate(90)">
        <path id="Path_4027" data-name="Path 4027" d="M787.06,776.62a10.1,10.1,0,1,1,.02,0" transform="translate(3354.03 1691.36)" fill="#ffb79c"/>
        <path id="Path_4028" data-name="Path 4028" d="M835.56,776.62a10.08,10.08,0,1,1-10.08-10.08,10.08,10.08,0,0,1,10.08,10.08" transform="translate(3354.03 1681.36)" fill="#ffb79c"/>
        <path id="Path_4034" data-name="Path 4034" d="M787.06,822.2a10.04,10.04,0,1,1,.02,0" transform="translate(3355.03 1683.36)" fill="#ffb79c"/>
        <path id="Path_4035" data-name="Path 4035" d="M835.56,822.2a10.08,10.08,0,1,1-10.08-10.08,10.08,10.08,0,0,1,10.08,10.08" transform="translate(3354.03 1674.36)" fill="#ffb79c"/>
        <path id="Path_4041" data-name="Path 4041" d="M787.06,867.78a10.07,10.07,0,1,1,.02,0" transform="translate(3354.03 1678.36)" fill="#ffb79c"/>
        <path id="Path_4042" data-name="Path 4042" d="M835.56,867.78a10.08,10.08,0,1,1-10.08-10.08,10.08,10.08,0,0,1,10.08,10.08" transform="translate(3354.03 1669.36)" fill="#ffb79c"/>
        <path id="Path_4048" data-name="Path 4048" d="M787.06,913.36a10.1,10.1,0,1,1,.02,0" transform="translate(3354.03 1673.36)" fill="#ffb79c"/>
        <path id="Path_4049" data-name="Path 4049" d="M835.56,913.36a10.08,10.08,0,1,1-10.08-10.08,10.08,10.08,0,0,1,10.08,10.08" transform="translate(3354.03 1664.36)" fill="#ffb79c"/>
        <path id="Path_4055" data-name="Path 4055" d="M787.06,958.94a10.07,10.07,0,1,1,.02,0" transform="translate(3354.03 1673.36)" fill="#ffb79c"/>
        <path id="Path_4056" data-name="Path 4056" d="M835.56,958.94a10.08,10.08,0,1,1-10.08-10.08,10.08,10.08,0,0,1,10.08,10.08" transform="translate(3354.03 1664.36)" fill="#ffb79c"/>
        <path id="Path_4062" data-name="Path 4062" d="M787.06,1004.52a10.07,10.07,0,1,1,.02,0" transform="translate(3354.03 1669.36)" fill="#ffb79c"/>
        <path id="Path_4063" data-name="Path 4063" d="M835.56,1004.52a10.08,10.08,0,1,1-10.08-10.08,10.08,10.08,0,0,1,10.08,10.08" transform="translate(3354.03 1660.36)" fill="#ffb79c"/>
        <path id="Path_4027-2" data-name="Path 4027" d="M787.06,776.62a10.1,10.1,0,1,1,.02,0" transform="translate(3431.03 1691.36)" fill="#ffb79c"/>
        <path id="Path_4028-2" data-name="Path 4028" d="M835.56,776.62a10.08,10.08,0,1,1-10.08-10.08,10.08,10.08,0,0,1,10.08,10.08" transform="translate(3431.03 1681.36)" fill="#ffb79c"/>
        <path id="Path_4034-2" data-name="Path 4034" d="M787.06,822.2a10.04,10.04,0,1,1,.02,0" transform="translate(3431.03 1683.36)" fill="#ffb79c"/>
        <path id="Path_4035-2" data-name="Path 4035" d="M835.56,822.2a10.08,10.08,0,1,1-10.08-10.08,10.08,10.08,0,0,1,10.08,10.08" transform="translate(3431.03 1673.36)" fill="#ffb79c"/>
        <path id="Path_4041-2" data-name="Path 4041" d="M787.06,867.78a10.07,10.07,0,1,1,.02,0" transform="translate(3431.03 1679.36)" fill="#ffb79c"/>
        <path id="Path_4042-2" data-name="Path 4042" d="M835.56,867.78a10.08,10.08,0,1,1-10.08-10.08,10.08,10.08,0,0,1,10.08,10.08" transform="translate(3431.03 1669.36)" fill="#ffb79c"/>
        <path id="Path_4048-2" data-name="Path 4048" d="M787.06,913.36a10.1,10.1,0,1,1,.02,0" transform="translate(3431.03 1674.36)" fill="#ffb79c"/>
        <path id="Path_4049-2" data-name="Path 4049" d="M835.56,913.36a10.08,10.08,0,1,1-10.08-10.08,10.08,10.08,0,0,1,10.08,10.08" transform="translate(3431.03 1664.36)" fill="#ffb79c"/>
        <path id="Path_4055-2" data-name="Path 4055" d="M787.06,958.94a10.07,10.07,0,1,1,.02,0" transform="translate(3431.03 1674.36)" fill="#ffb79c"/>
        <path id="Path_4056-2" data-name="Path 4056" d="M835.56,958.94a10.08,10.08,0,1,1-10.08-10.08,10.08,10.08,0,0,1,10.08,10.08" transform="translate(3431.03 1664.36)" fill="#ffb79c"/>
        <path id="Path_4062-2" data-name="Path 4062" d="M787.06,1004.52a10.07,10.07,0,1,1,.02,0" transform="translate(3431.03 1670.36)" fill="#ffb79c"/>
        <path id="Path_4063-2" data-name="Path 4063" d="M835.56,1004.52a10.08,10.08,0,1,1-10.08-10.08,10.08,10.08,0,0,1,10.08,10.08" transform="translate(3431.03 1660.36)" fill="#ffb79c"/>
        <path id="Path_4027-3" data-name="Path 4027" d="M787.06,776.62a10.1,10.1,0,1,1,.02,0" transform="translate(3316.03 1691.36)" fill="#ffb79c"/>
        <path id="Path_4034-3" data-name="Path 4034" d="M787.06,822.2a10.04,10.04,0,1,1,.02,0" transform="translate(3317.03 1683.36)" fill="#ffb79c"/>
        <path id="Path_4041-3" data-name="Path 4041" d="M787.06,867.78a10.07,10.07,0,1,1,.02,0" transform="translate(3316.03 1678.36)" fill="#ffb79c"/>
        <path id="Path_4048-3" data-name="Path 4048" d="M787.06,913.36a10.1,10.1,0,1,1,.02,0" transform="translate(3316.03 1673.36)" fill="#ffb79c"/>
        <path id="Path_4055-3" data-name="Path 4055" d="M787.06,958.94a10.07,10.07,0,1,1,.02,0" transform="translate(3316.03 1673.36)" fill="#ffb79c"/>
        <path id="Path_4062-3" data-name="Path 4062" d="M787.06,1004.52a10.07,10.07,0,1,1,.02,0" transform="translate(3316.03 1669.36)" fill="#ffb79c"/>
      </g>
      <path id="Path_4027-4" data-name="Path 4027" d="M787.06,776.62a10.1,10.1,0,1,1,.02,0" transform="translate(4862.805 1699.605) rotate(90)" fill="#ffb79c"/>
      <path id="Path_4034-4" data-name="Path 4034" d="M787.06,822.2a10.04,10.04,0,1,1,.02,0" transform="translate(4870.805 1700.605) rotate(90)" fill="#ffb79c"/>
      <path id="Path_4041-4" data-name="Path 4041" d="M787.06,867.78a10.07,10.07,0,1,1,.02,0" transform="translate(4875.805 1699.605) rotate(90)" fill="#ffb79c"/>
      <path id="Path_4048-4" data-name="Path 4048" d="M787.06,913.36a10.1,10.1,0,1,1,.02,0" transform="translate(4880.805 1699.605) rotate(90)" fill="#ffb79c"/>
      <path id="Path_4055-4" data-name="Path 4055" d="M787.06,958.94a10.07,10.07,0,1,1,.02,0" transform="translate(4880.805 1699.605) rotate(90)" fill="#ffb79c"/>
      <path id="Path_4062-4" data-name="Path 4062" d="M787.06,1004.52a10.07,10.07,0,1,1,.02,0" transform="translate(4884.805 1699.605) rotate(90)" fill="#ffb79c"/>
    </g>
    <rect id="Rectangle_728" data-name="Rectangle 728" width="410.59" height="94.99" rx="30.01" transform="translate(3926.02 1905.62)" fill="#1f3640" opacity="0.1"/>
    <g id="Group_15" data-name="Group 15" transform="translate(-547 -181)">
      <ellipse id="Ellipse_5" data-name="Ellipse 5" cx="163.07" cy="163.57" rx="163.07" ry="163.57" transform="translate(4821.501 2502.298) rotate(-45)" fill="#f26531"/>
      <g id="Group_9" data-name="Group 9" transform="translate(-126 92)">
        <path id="Path_4069" data-name="Path 4069" d="M1922.59,548.65l24.2-24.2-24.2-24.21" transform="translate(2893.07 1517.76)" fill="#ffb79c"/>
        <path id="Path_4070" data-name="Path 4070" d="M1901.55,548.65l24.2-24.2-24.2-24.21" transform="translate(2893.07 1517.76)" fill="#ffb79c"/>
        <path id="Path_4071" data-name="Path 4071" d="M1880.51,548.65l24.2-24.2-24.2-24.21" transform="translate(2893.07 1517.76)" fill="#ffb79c"/>
        <path id="Path_4072" data-name="Path 4072" d="M1859.46,548.65l24.21-24.2-24.21-24.21" transform="translate(2893.07 1517.76)" fill="#ffb79c"/>
        <path id="Path_4073" data-name="Path 4073" d="M1838.42,548.65l24.21-24.2-24.21-24.21" transform="translate(2893.07 1517.76)" fill="#ffb79c"/>
        <path id="Path_4074" data-name="Path 4074" d="M1816.71,548.65l24.21-24.2-24.21-24.21" transform="translate(2893.07 1517.76)" fill="#ffb79c"/>
        <path id="Path_4075" data-name="Path 4075" d="M1795.67,548.65l24.21-24.2-24.21-24.21" transform="translate(2893.07 1517.76)" fill="#ffb79c"/>
        <path id="Path_4076" data-name="Path 4076" d="M1774.63,548.65l24.21-24.2-24.21-24.21" transform="translate(2893.07 1517.76)" fill="#ffb79c"/>
        <path id="Path_4077" data-name="Path 4077" d="M1753.6,548.65l24.2-24.2-24.2-24.21" transform="translate(2893.07 1517.76)" fill="#ffb79c"/>
        <path id="Path_4078" data-name="Path 4078" d="M1732.56,548.65l24.2-24.2-24.2-24.21" transform="translate(2893.07 1517.76)" fill="#ffb79c"/>
      </g>
      <g id="Group_4" data-name="Group 4" transform="translate(390 406)">
        <path id="Path_297" data-name="Path 297" d="M1540.47,106.83a7.22,7.22,0,1,1-7.21-7.21,7.22,7.22,0,0,1,7.21,7.21" transform="translate(3027.03 1571.005)" fill="#a5dff9"/>
        <path id="Path_298" data-name="Path 298" d="M1575.18,106.83a7.21,7.21,0,1,1-2.115-5.1,7.21,7.21,0,0,1,2.115,5.1" transform="translate(3027.03 1571.005)" fill="#a5dff9"/>
        <path id="Path_299" data-name="Path 299" d="M1609.88,106.83a7.21,7.21,0,1,1-7.21-7.21,7.21,7.21,0,0,1,7.21,7.21" transform="translate(3027.03 1571.005)" fill="#a5dff9"/>
        <path id="Path_300" data-name="Path 300" d="M1644.59,106.83a7.21,7.21,0,1,1-2.115-5.1,7.211,7.211,0,0,1,2.115,5.1" transform="translate(3027.03 1571.005)" fill="#a5dff9"/>
        <path id="Path_301" data-name="Path 301" d="M1679.29,106.83a7.21,7.21,0,1,1-7.21-7.21,7.21,7.21,0,0,1,7.21,7.21" transform="translate(3027.03 1571.005)" fill="#a5dff9"/>
        <path id="Path_302" data-name="Path 302" d="M1714,106.83a7.21,7.21,0,1,1-7.21-7.21,7.21,7.21,0,0,1,7.21,7.21" transform="translate(3027.03 1571.005)" fill="#a5dff9"/>
        <path id="Path_303" data-name="Path 303" d="M1745.78,106.83a7.22,7.22,0,1,1-7.21-7.21,7.22,7.22,0,0,1,7.21,7.21" transform="translate(3027.03 1571.005)" fill="#a5dff9"/>
        <path id="Path_304" data-name="Path 304" d="M1540.47,139.44a7.22,7.22,0,1,1-7.21-7.21,7.22,7.22,0,0,1,7.21,7.21" transform="translate(3027.03 1571.005)" fill="#a5dff9"/>
        <path id="Path_305" data-name="Path 305" d="M1575.18,139.44a7.22,7.22,0,1,1-7.22-7.21,7.22,7.22,0,0,1,7.22,7.21" transform="translate(3027.03 1571.005)" fill="#a5dff9"/>
        <path id="Path_306" data-name="Path 306" d="M1609.88,139.44a7.21,7.21,0,1,1-7.21-7.21,7.21,7.21,0,0,1,7.21,7.21" transform="translate(3027.03 1571.005)" fill="#a5dff9"/>
        <path id="Path_307" data-name="Path 307" d="M1644.59,139.44a7.22,7.22,0,1,1-7.22-7.21,7.22,7.22,0,0,1,7.22,7.21" transform="translate(3027.03 1571.005)" fill="#a5dff9"/>
        <path id="Path_308" data-name="Path 308" d="M1679.29,139.44a7.21,7.21,0,1,1-7.21-7.21,7.21,7.21,0,0,1,7.21,7.21" transform="translate(3027.03 1571.005)" fill="#a5dff9"/>
        <path id="Path_309" data-name="Path 309" d="M1714,139.44a7.21,7.21,0,1,1-7.21-7.21,7.21,7.21,0,0,1,7.21,7.21" transform="translate(3027.03 1571.005)" fill="#a5dff9"/>
        <path id="Path_310" data-name="Path 310" d="M1745.78,139.44a7.22,7.22,0,1,1-7.21-7.21,7.22,7.22,0,0,1,7.21,7.21" transform="translate(3027.03 1571.005)" fill="#a5dff9"/>
        <path id="Path_311" data-name="Path 311" d="M1540.47,172.06a7.22,7.22,0,1,1-7.21-7.21,7.22,7.22,0,0,1,7.21,7.21" transform="translate(3027.03 1571.005)" fill="#a5dff9"/>
        <path id="Path_312" data-name="Path 312" d="M1575.18,172.06a7.21,7.21,0,1,1-2.115-5.1,7.21,7.21,0,0,1,2.115,5.1" transform="translate(3027.03 1571.005)" fill="#a5dff9"/>
        <path id="Path_313" data-name="Path 313" d="M1609.88,172.06a7.21,7.21,0,1,1-7.21-7.21,7.21,7.21,0,0,1,7.21,7.21" transform="translate(3027.03 1571.005)" fill="#a5dff9"/>
        <path id="Path_314" data-name="Path 314" d="M1644.59,172.06a7.21,7.21,0,1,1-2.115-5.1,7.211,7.211,0,0,1,2.115,5.1" transform="translate(3027.03 1571.005)" fill="#a5dff9"/>
        <path id="Path_315" data-name="Path 315" d="M1679.29,172.06a7.21,7.21,0,1,1-7.21-7.21,7.21,7.21,0,0,1,7.21,7.21" transform="translate(3027.03 1571.005)" fill="#a5dff9"/>
        <path id="Path_316" data-name="Path 316" d="M1714,172.06a7.21,7.21,0,1,1-7.21-7.21,7.21,7.21,0,0,1,7.21,7.21" transform="translate(3027.03 1571.005)" fill="#a5dff9"/>
        <path id="Path_317" data-name="Path 317" d="M1745.78,172.06a7.22,7.22,0,1,1-7.21-7.21,7.22,7.22,0,0,1,7.21,7.21" transform="translate(3027.03 1571.005)" fill="#a5dff9"/>
        <path id="Path_318" data-name="Path 318" d="M1540.47,204.68a7.21,7.21,0,1,1-2.108-5.1,7.21,7.21,0,0,1,2.108,5.1" transform="translate(3027.03 1571.005)" fill="#a5dff9"/>
        <path id="Path_319" data-name="Path 319" d="M1575.18,204.68a7.21,7.21,0,1,1-2.112-5.108,7.21,7.21,0,0,1,2.112,5.108" transform="translate(3027.03 1571.005)" fill="#a5dff9"/>
        <path id="Path_320" data-name="Path 320" d="M1609.88,204.68a7.21,7.21,0,1,1-2.108-5.1,7.21,7.21,0,0,1,2.108,5.1" transform="translate(3027.03 1571.005)" fill="#a5dff9"/>
        <path id="Path_321" data-name="Path 321" d="M1644.59,204.68a7.21,7.21,0,1,1-2.112-5.108,7.21,7.21,0,0,1,2.112,5.108" transform="translate(3027.03 1571.005)" fill="#a5dff9"/>
        <path id="Path_322" data-name="Path 322" d="M1679.29,204.68a7.21,7.21,0,1,1-2.108-5.1,7.21,7.21,0,0,1,2.108,5.1" transform="translate(3027.03 1571.005)" fill="#a5dff9"/>
        <path id="Path_323" data-name="Path 323" d="M1714,204.68a7.21,7.21,0,1,1-2.108-5.1,7.21,7.21,0,0,1,2.108,5.1" transform="translate(3027.03 1571.005)" fill="#a5dff9"/>
        <path id="Path_324" data-name="Path 324" d="M1745.78,204.68a7.21,7.21,0,1,1-2.108-5.1,7.21,7.21,0,0,1,2.108,5.1" transform="translate(3027.03 1571.005)" fill="#a5dff9"/>
        <path id="Path_325" data-name="Path 325" d="M1540.47,237.29a7.22,7.22,0,1,1-7.21-7.21,7.22,7.22,0,0,1,7.21,7.21" transform="translate(3027.03 1571.005)" fill="#a5dff9"/>
        <path id="Path_326" data-name="Path 326" d="M1575.18,237.29a7.21,7.21,0,1,1-2.115-5.1,7.21,7.21,0,0,1,2.115,5.1" transform="translate(3027.03 1571.005)" fill="#a5dff9"/>
        <path id="Path_327" data-name="Path 327" d="M1609.88,237.29a7.21,7.21,0,1,1-7.21-7.21,7.21,7.21,0,0,1,7.21,7.21" transform="translate(3027.03 1571.005)" fill="#a5dff9"/>
        <path id="Path_328" data-name="Path 328" d="M1644.59,237.29a7.21,7.21,0,1,1-2.115-5.1,7.211,7.211,0,0,1,2.115,5.1" transform="translate(3027.03 1571.005)" fill="#a5dff9"/>
        <path id="Path_329" data-name="Path 329" d="M1679.29,237.29a7.21,7.21,0,1,1-7.21-7.21,7.21,7.21,0,0,1,7.21,7.21" transform="translate(3027.03 1571.005)" fill="#a5dff9"/>
        <path id="Path_330" data-name="Path 330" d="M1714,237.29a7.21,7.21,0,1,1-7.21-7.21,7.21,7.21,0,0,1,7.21,7.21" transform="translate(3027.03 1571.005)" fill="#a5dff9"/>
        <path id="Path_331" data-name="Path 331" d="M1745.78,237.29a7.22,7.22,0,1,1-7.21-7.21,7.22,7.22,0,0,1,7.21,7.21" transform="translate(3027.03 1571.005)" fill="#a5dff9"/>
        <path id="Path_332" data-name="Path 332" d="M1540.47,269.91a7.21,7.21,0,1,1-2.108-5.1,7.21,7.21,0,0,1,2.108,5.1" transform="translate(3027.03 1571.005)" fill="#a5dff9"/>
        <path id="Path_333" data-name="Path 333" d="M1575.18,269.91a7.21,7.21,0,1,1-2.112-5.108,7.21,7.21,0,0,1,2.112,5.108" transform="translate(3027.03 1571.005)" fill="#a5dff9"/>
        <path id="Path_334" data-name="Path 334" d="M1609.88,269.91a7.21,7.21,0,1,1-2.108-5.1,7.21,7.21,0,0,1,2.108,5.1" transform="translate(3027.03 1571.005)" fill="#a5dff9"/>
        <path id="Path_335" data-name="Path 335" d="M1644.59,269.91a7.21,7.21,0,1,1-2.112-5.108,7.21,7.21,0,0,1,2.112,5.108" transform="translate(3027.03 1571.005)" fill="#a5dff9"/>
        <path id="Path_336" data-name="Path 336" d="M1679.29,269.91a7.21,7.21,0,1,1-2.108-5.1,7.21,7.21,0,0,1,2.108,5.1" transform="translate(3027.03 1571.005)" fill="#a5dff9"/>
        <path id="Path_337" data-name="Path 337" d="M1714,269.91a7.21,7.21,0,1,1-2.108-5.1,7.21,7.21,0,0,1,2.108,5.1" transform="translate(3027.03 1571.005)" fill="#a5dff9"/>
        <path id="Path_338" data-name="Path 338" d="M1745.78,269.91a7.21,7.21,0,1,1-2.108-5.1,7.21,7.21,0,0,1,2.108,5.1" transform="translate(3027.03 1571.005)" fill="#a5dff9"/>
      </g>
      <g id="Group_5" data-name="Group 5" transform="translate(719 328)">
        <path id="Path_209" data-name="Path 209" d="M1277,662.07q-6.85,17.29-13.69,34.61h127.8q-6.86-17.31-13.7-34.61Z" transform="translate(2790.03 1575.005)" fill="#929191"/>
        <path id="Path_211" data-name="Path 211" d="M1399,696.07H1255.38c-3.65,0-6.6,2.14-6.6,4.79v1.8h156.79v-1.8C1405.57,698.21,1402.61,696.07,1399,696.07Z" transform="translate(2790.03 1575.005)" fill="#ffb79c"/>
        <path id="Path_379" data-name="Path 379" d="M2316.6,487.2h476.19a16.83,16.83,0,0,1,16.83,16.8V841.3a16.83,16.83,0,0,1-16.83,16.83H2316.6a16.83,16.83,0,0,1-16.83-16.83V504A16.82,16.82,0,0,1,2316.6,487.2Z" transform="translate(1587.89 1380.885)" fill="#48465e"/>
        <rect id="Rectangle_25" data-name="Rectangle 25" width="491.62" height="353.32" rx="10.27" transform="translate(3896.78 1876.905)" fill="#fff1ee"/>
        <path id="Path_380" data-name="Path 380" d="M1562.62,375.9H1139.91a17.54,17.54,0,0,1-17.54-17.54h0a17.54,17.54,0,0,1,17.54-17.54h422.71a17.54,17.54,0,0,1,17.54,17.54h0A17.54,17.54,0,0,1,1562.62,375.9Z" transform="translate(2790.03 1575.005)" fill="#f26531"/>
        <path id="Path_390" data-name="Path 390" d="M1328.73,364.69H1142.39a6.15,6.15,0,0,1-6.15-6.15h0a6.15,6.15,0,0,1,6.15-6.15h186.34a6.15,6.15,0,0,1,6.15,6.15h0A6.16,6.16,0,0,1,1328.73,364.69Z" transform="translate(2790.03 1575.005)" fill="#fff"/>
        <path id="Path_391" data-name="Path 391" d="M1358.6,358a5.61,5.61,0,1,1-5.61-5.61A5.61,5.61,0,0,1,1358.6,358Z" transform="translate(2790.03 1575.005)" fill="#fff"/>
        <circle id="Ellipse_8" data-name="Ellipse 8" cx="5.61" cy="5.61" r="5.61" transform="translate(4154.45 1927.395)" fill="#fff"/>
        <circle id="Ellipse_12" data-name="Ellipse 12" cx="7.33" cy="7.33" r="7.33" transform="translate(3917.43 1893.535)" fill="#026185"/>
        <circle id="Ellipse_13" data-name="Ellipse 13" cx="7.33" cy="7.33" r="7.33" transform="translate(3940.64 1893.535)" fill="#026185"/>
        <circle id="Ellipse_14" data-name="Ellipse 14" cx="7.33" cy="7.33" r="7.33" transform="translate(3963.84 1893.535)" fill="#026185"/>
        <rect id="Rectangle_29" data-name="Rectangle 29" width="217.54" height="223.72" rx="8.97" transform="translate(3920 1981.965)" fill="#ffb79c"/>
        <rect id="Rectangle_31" data-name="Rectangle 31" width="125.95" height="33.93" rx="13.24" transform="translate(3966 2125.495)" fill="#0092c9"/>
        <path id="Path_384" data-name="Path 384" d="M1286.21,509.9H1166.65a5.16,5.16,0,0,1-5.17-5.17h0a5.17,5.17,0,0,1,5.17-5.18h119.56a5.18,5.18,0,0,1,5.17,5.18h0a5.17,5.17,0,0,1-5.17,5.17Z" transform="translate(2802.52 1575.005)" fill="#f26531"/>
        <path id="Path_385" data-name="Path 385" d="M1286.21,488.91H1166.65a5.17,5.17,0,0,1-5.17-5.17h0a5.17,5.17,0,0,1,5.17-5.18h119.56a5.18,5.18,0,0,1,5.17,5.18h0a5.18,5.18,0,0,1-5.17,5.17Z" transform="translate(2802.52 1575.005)" fill="#f26531"/>
        <path id="Path_386" data-name="Path 386" d="M1286.21,467.92H1166.65a5.17,5.17,0,0,1-5.17-5.18h0a5.17,5.17,0,0,1,5.17-5.17h119.56a5.18,5.18,0,0,1,5.17,5.17h0a5.18,5.18,0,0,1-5.17,5.18Z" transform="translate(2802.52 1575.005)" fill="#f26531"/>
        <g id="Group_7" data-name="Group 7" transform="translate(13.48)">
          <path id="Path_387" data-name="Path 387" d="M1208.49,433.38a7,7,0,1,1-7-7A7,7,0,0,1,1208.49,433.38Z" transform="translate(2790.03 1575.005)" fill="#f26531"/>
          <path id="Path_388" data-name="Path 388" d="M1232.51,433.38a7,7,0,1,1-7-7A7,7,0,0,1,1232.51,433.38Z" transform="translate(2790.03 1575.005)" fill="#f26531"/>
          <path id="Path_389" data-name="Path 389" d="M1256.52,433.38a7,7,0,1,1-7-7A7,7,0,0,1,1256.52,433.38Z" transform="translate(2790.03 1575.005)" fill="#f26531"/>
        </g>
        <rect id="Rectangle_29-2" data-name="Rectangle 29" width="216.35" height="223.72" rx="8.97" transform="translate(4154 1981.965)" fill="#ffb79c"/>
        <rect id="Rectangle_31-2" data-name="Rectangle 31" width="140.76" height="33.93" rx="13.24" transform="translate(4192 2125.495)" fill="#0092c9"/>
        <path id="Path_384-2" data-name="Path 384" d="M1286.21,509.9H1166.65a5.16,5.16,0,0,1-5.17-5.17h0a5.17,5.17,0,0,1,5.17-5.18h119.56a5.18,5.18,0,0,1,5.17,5.18h0a5.17,5.17,0,0,1-5.17,5.17Z" transform="translate(3035.52 1575.005)" fill="#f26531"/>
        <path id="Path_385-2" data-name="Path 385" d="M1286.21,488.91H1166.65a5.17,5.17,0,0,1-5.17-5.17h0a5.17,5.17,0,0,1,5.17-5.18h119.56a5.18,5.18,0,0,1,5.17,5.18h0a5.18,5.18,0,0,1-5.17,5.17Z" transform="translate(3035.52 1575.005)" fill="#f26531"/>
        <path id="Path_386-2" data-name="Path 386" d="M1286.21,467.92H1166.65a5.17,5.17,0,0,1-5.17-5.18h0a5.17,5.17,0,0,1,5.17-5.17h119.56a5.18,5.18,0,0,1,5.17,5.17h0a5.18,5.18,0,0,1-5.17,5.18Z" transform="translate(3035.52 1575.005)" fill="#f26531"/>
        <g id="Group_8" data-name="Group 8" transform="translate(-0.984)">
          <path id="Path_387-2" data-name="Path 387" d="M1208.49,433.38a7,7,0,1,1-7-7A7,7,0,0,1,1208.49,433.38Z" transform="translate(3035.494 1575.005)" fill="#f26531"/>
          <path id="Path_388-2" data-name="Path 388" d="M1232.51,433.38a7,7,0,1,1-7-7A7,7,0,0,1,1232.51,433.38Z" transform="translate(3037.454 1575.005)" fill="#f26531"/>
          <path id="Path_389-2" data-name="Path 389" d="M1256.52,433.38a7,7,0,1,1-7-7A7,7,0,0,1,1256.52,433.38Z" transform="translate(3039.413 1575.005)" fill="#f26531"/>
        </g>
      </g>
      <g id="Group_6" data-name="Group 6" transform="translate(29.042 4539.27) rotate(-50)">
        <path id="Path_4109" data-name="Path 4109" d="M1582.58,721.25l-168.07-65.51a28.46,28.46,0,0,1-16.18-36.86l123.18-316a28.46,28.46,0,0,1,36.86-16.18l168.07,65.52a28.47,28.47,0,0,1,16.19,36.85l-123.19,316A28.46,28.46,0,0,1,1582.58,721.25Z" transform="translate(3029.03 1690.36)" fill="#48465e"/>
        <path id="Path_4110" data-name="Path 4110" d="M1584.1,714.85,1417.73,650a24.93,24.93,0,0,1-14.18-32.29l121.93-312.78a24.92,24.92,0,0,1,32.28-14.17l166.38,64.86a24.93,24.93,0,0,1,14.17,32.28L1616.38,700.68A24.93,24.93,0,0,1,1584.1,714.85Z" transform="translate(3029.03 1690.36)" fill="#fff"/>
        <path id="Path_4111" data-name="Path 4111" d="M1729.28,383.54,1607.52,695.89a16.89,16.89,0,0,1-21.86,9.6l-162.74-63.44a16.89,16.89,0,0,1-9.6-21.87l121.76-312.34a16.88,16.88,0,0,1,21.86-9.6l27.14,10.58a4.25,4.25,0,0,1,2.7,3.58l.64,6.88a8.35,8.35,0,0,0,5.29,7l81.64,31.83a8.34,8.34,0,0,0,8.65-1.6l5.13-4.63a4.25,4.25,0,0,1,4.41-.81l27.14,10.58a16.88,16.88,0,0,1,9.6,21.89Z" transform="translate(3029.03 1690.36)" fill="#d7ebf4"/>
        <path id="Path_4112" data-name="Path 4112" d="M1670.41,348.85l-65.75-25.63a3,3,0,0,1-1.69-3.85h0a3,3,0,0,1,3.85-1.69l65.75,25.63a3,3,0,0,1,1.69,3.85h0a3,3,0,0,1-3.85,1.69Z" transform="translate(3029.03 1690.36)" fill="#d7dcf5"/>
        <path id="Path_4113" data-name="Path 4113" d="M1599.09,665.45,1449.17,607a9.59,9.59,0,0,1-5.45-12.43l24.65-63.23a9.58,9.58,0,0,1,12.42-5.46l149.91,58.44a9.6,9.6,0,0,1,5.47,12.43L1611.51,660a9.58,9.58,0,0,1-12.42,5.45Z" transform="translate(3029.03 1690.36)" fill="#026185"/>
        <path id="Path_4114" data-name="Path 4114" d="M1632,587.56l-24.66,63.26a9.58,9.58,0,0,1-12.41,5.44l-149.28-58.19a9.59,9.59,0,0,1-5.45-12.41l24.66-63.26a9.59,9.59,0,0,1,12.42-5.45l149.27,58.19a9.59,9.59,0,0,1,5.45,12.42Z" transform="translate(3029.03 1690.36)" fill="#0092c9"/>
        <path id="Path_4115" data-name="Path 4115" d="M1497,610.5l-44-17.14a6.49,6.49,0,0,1-3.68-8.4l17.14-44a6.48,6.48,0,0,1,8.39-3.69l44,17.15a6.48,6.48,0,0,1,3.69,8.39l-17.15,44A6.48,6.48,0,0,1,1497,610.5Z" transform="translate(3029.03 1690.36)" fill="#fff"/>
        <path id="Path_4116" data-name="Path 4116" d="M1568.22,581.86l-38.73-15.1a2,2,0,0,1-1.17-2.65h0a2,2,0,0,1,2.65-1.17l38.74,15.1a2,2,0,0,1,1.16,2.65h0a2,2,0,0,1-2.65,1.17Z" transform="translate(3029.03 1690.36)" fill="#abbaf2"/>
        <path id="Path_4117" data-name="Path 4117" d="M1547.6,582.59l-21.08-8.22a2.05,2.05,0,0,1-1.17-2.65h0a2.06,2.06,0,0,1,2.66-1.16l21.07,8.22a2,2,0,0,1,1.17,2.64h0a2,2,0,0,1-2.65,1.17Z" transform="translate(3029.03 1690.36)" fill="#abbaf2"/>
        <path id="Path_4118" data-name="Path 4118" d="M1612.4,607.85l-57-22.24a2,2,0,0,1-1.17-2.65h0a2,2,0,0,1,2.65-1.16l57.01,22.2a2,2,0,0,1,1.16,2.65h0a2,2,0,0,1-2.65,1.2Z" transform="translate(3029.03 1690.36)" fill="#abbaf2"/>
        <path id="Path_4119" data-name="Path 4119" d="M1556.17,594.7,1523.55,582a2.07,2.07,0,0,1-1.17-2.66h0a2.06,2.06,0,0,1,2.66-1.16l32.61,12.72a2,2,0,0,1,1.17,2.65h0a2,2,0,0,1-2.65,1.15Z" transform="translate(3029.03 1690.36)" fill="#abbaf2"/>
        <path id="Path_4120" data-name="Path 4120" d="M1583.86,605.49l-20.51-8a2,2,0,0,1-1.16-2.65h0a2,2,0,0,1,2.64-1.16l20.51,8a2,2,0,0,1,1.16,2.65h0a2,2,0,0,1-2.64,1.16Z" transform="translate(3029.03 1690.36)" fill="#abbaf2"/>
        <path id="Path_4121" data-name="Path 4121" d="M1609.43,615.46l-18.88-7.36a2,2,0,0,1-1.16-2.65h0a2,2,0,0,1,2.65-1.16l18.88,7.36a2,2,0,0,1,1.16,2.65h0a2,2,0,0,1-2.65,1.16Z" transform="translate(3029.03 1690.36)" fill="#abbaf2"/>
        <path id="Path_4122" data-name="Path 4122" d="M1606.46,623.08l-85.88-33.48a2,2,0,0,1-1.16-2.65h0a2,2,0,0,1,2.65-1.17L1608,619.26a2.05,2.05,0,0,1,1.17,2.65h0a2.05,2.05,0,0,1-2.71,1.17Z" transform="translate(3029.03 1690.36)" fill="#abbaf2"/>
        <path id="Path_4123" data-name="Path 4123" d="M1564.88,615.64l-47.26-18.43a2,2,0,0,1-1.17-2.65h0a2,2,0,0,1,2.65-1.16l47.27,18.42a2.06,2.06,0,0,1,1.16,2.66h0a2,2,0,0,1-2.65,1.16Z" transform="translate(3029.03 1690.36)" fill="#abbaf2"/>
        <path id="Path_4124" data-name="Path 4124" d="M1603.5,630.69l-31-12.08a2,2,0,0,1-1.16-2.65h0a2,2,0,0,1,2.65-1.16l31,12.08a2,2,0,0,1,1.16,2.65h0a2,2,0,0,1-2.65,1.16Z" transform="translate(3029.03 1690.36)" fill="#abbaf2"/>
        <path id="Path_4125" data-name="Path 4125" d="M1542.42,615.65l-27.78-10.82a2,2,0,0,1-1.16-2.65h0a2,2,0,0,1,2.65-1.17l27.77,10.83a2,2,0,0,1,1.17,2.65h0a2,2,0,0,1-2.65,1.16Z" transform="translate(3029.03 1690.36)" fill="#abbaf2"/>
        <path id="Path_4126" data-name="Path 4126" d="M1577.71,629.4l-27.78-10.82a2,2,0,0,1-1.16-2.65h0a2,2,0,0,1,2.65-1.16l27.77,10.82a2,2,0,0,1,1.17,2.65h0a2,2,0,0,1-2.65,1.16Z" transform="translate(3029.03 1690.36)" fill="#abbaf2"/>
        <path id="Path_4127" data-name="Path 4127" d="M1600.53,638.31,1584.41,632a2.06,2.06,0,0,1-1.16-2.66h0a2,2,0,0,1,2.65-1.16l16.12,6.28a2,2,0,0,1,1.16,2.65h0a2.05,2.05,0,0,1-2.65,1.2Z" transform="translate(3029.03 1690.36)" fill="#abbaf2"/>
        <path id="Path_4128" data-name="Path 4128" d="M1550.41,627.54l-38.73-15.1a2,2,0,0,1-1.17-2.65h0a2.06,2.06,0,0,1,2.66-1.16l38.72,15.09a2.05,2.05,0,0,1,1.17,2.66h0a2,2,0,0,1-2.65,1.16Z" transform="translate(3029.03 1690.36)" fill="#abbaf2"/>
        <path id="Path_4129" data-name="Path 4129" d="M1615.37,600.24l-38.73-15.1a2.05,2.05,0,0,1-1.17-2.65h0a2.06,2.06,0,0,1,2.66-1.17l38.72,15.1a2,2,0,0,1,1.17,2.65h0a2,2,0,0,1-2.65,1.17Z" transform="translate(3029.03 1690.36)" fill="#abbaf2"/>
        <path id="Path_4130" data-name="Path 4130" d="M1632,587.56l-1,2.65-167.13-65.15,1-2.66a9.59,9.59,0,0,1,12.42-5.45l149.27,58.19a9.59,9.59,0,0,1,5.44,12.42Z" transform="translate(3029.03 1690.36)" fill="#026185"/>
        <path id="Path_4131" data-name="Path 4131" d="M1601.62,572.35a2.22,2.22,0,1,1-.032-1.7A2.22,2.22,0,0,1,1601.62,572.35Z" transform="translate(3029.03 1690.36)" fill="#d7dcf5"/>
        <path id="Path_4132" data-name="Path 4132" d="M1612.21,576.48a2.22,2.22,0,1,1-.032-1.7A2.22,2.22,0,0,1,1612.21,576.48Z" transform="translate(3029.03 1690.36)" fill="#d7dcf5"/>
        <path id="Path_4133" data-name="Path 4133" d="M1622.8,580.6a2.22,2.22,0,1,1-1.26-2.87,2.22,2.22,0,0,1,1.26,2.87Z" transform="translate(3029.03 1690.36)" fill="#d7dcf5"/>
        <path id="Path_4134" data-name="Path 4134" d="M1705.86,398l-40.32,103.44a10.9,10.9,0,0,1-14.12,6.2l-146.82-57.2a10.91,10.91,0,0,1-6.2-14.12l40.32-103.44a10.91,10.91,0,0,1,14.13-6.2l146.81,57.23a10.9,10.9,0,0,1,6.2,14.09Z" transform="translate(3029.03 1690.36)" fill="#0092c9"/>
        <path id="Path_4135" data-name="Path 4135" d="M1687.45,416.8a26,26,0,1,1-14.78-33.67A26,26,0,0,1,1687.45,416.8Z" transform="translate(3029.03 1690.36)" fill="#e9edff"/>
        <path id="Path_4136" data-name="Path 4136" d="M1592.68,484.77l-88.08-34.33a10.91,10.91,0,0,1-6.2-14.12l6.35-16.29,64.57-51.74a5.62,5.62,0,0,1,9.07,3.53l9.45,61.76,7,45.86a5.49,5.49,0,0,1-2.16,5.33Z" transform="translate(3029.03 1690.36)" fill="#ffb79c"/>
        <path id="Path_4137" data-name="Path 4137" d="M1630.67,499.58l-84.24-32.83,41.41-33.17,22.31-17.88a5.05,5.05,0,0,1,8.16,3.18Z" transform="translate(3029.03 1690.36)" fill="#e9edff"/>
        <path id="Path_4138" data-name="Path 4138" d="M1535.24,666.53a11,11,0,0,1-14.25,6.25l-28.33-11a11,11,0,0,1-6.25-14.24h0a11,11,0,0,1,14.24-6.25l28.33,11a11,11,0,0,1,6.26,14.25Z" transform="translate(3029.03 1690.36)" fill="#fff"/>
      </g>
      <g id="Group_10" data-name="Group 10" transform="translate(402 705)">
        <path id="Path_4151" data-name="Path 4151" d="M1457.48,529.12a63.63,63.63,0,1,0-62.18,65,63.63,63.63,0,0,0,62.18-65Z" transform="translate(3115.03 1401.36)" fill="#0092c9"/>
        <path id="Path_4152" data-name="Path 4152" d="M1419.78,498.74h-50.9a4,4,0,0,0-4,4v35a4,4,0,0,0,4,4h50.9a4,4,0,0,0,4-4v-35A4,4,0,0,0,1419.78,498.74Zm0,36.28a3.43,3.43,0,0,1-3.47,3.39h-43.93a3.43,3.43,0,0,1-3.46-3.39V505.49a3.43,3.43,0,0,1,3.46-3.4h43.93a3.43,3.43,0,0,1,3.47,3.4Z" transform="translate(3115.03 1401.36)" fill="#fff"/>
        <rect id="Rectangle_730" data-name="Rectangle 730" width="69.99" height="11.91" rx="4.02" transform="translate(4474.36 1946.33)" fill="#fff"/>
      </g>
      <g id="Group_11" data-name="Group 11" transform="translate(471.02 -218.98)">
        <path id="Path_4143" data-name="Path 4143" d="M1224.68,367.882A49.9,49.9,0,1,0,1172.5,415.39a49.9,49.9,0,0,0,52.181-47.508Z" transform="translate(3130.03 1961.36)" fill="#f26531"/>
        <path id="Path_4144" data-name="Path 4144" d="M1179.182,394.338a24.459,24.459,0,1,1,24.476-24.45,24.459,24.459,0,0,1-24.476,24.45Zm0-47.081a22.631,22.631,0,1,0,22.622,22.627,22.631,22.631,0,0,0-22.622-22.627Z" transform="translate(3125.688 1957.022)" fill="#fff"/>
        <path id="Path_4145" data-name="Path 4145" d="M1180.486,394.339c-9.261,0-16.8-10.969-16.8-24.45s7.535-24.459,16.8-24.459,16.787,10.978,16.787,24.459S1189.746,394.339,1180.486,394.339Zm0-47.081c-8.253,0-14.968,10.149-14.968,22.631s6.715,22.631,14.968,22.631,14.968-10.158,14.968-22.631S1188.73,347.258,1180.486,347.258Z" transform="translate(3124.384 1957.02)" fill="#fff"/>
        <path id="Path_4146" data-name="Path 4146" d="M1202.715,374.818h-47.081a.914.914,0,1,1,0-1.828h47.081a.914.914,0,0,1,0,1.828Z" transform="translate(3125.69 1953.005)" fill="#fff"/>
        <path id="Path_4147" data-name="Path 4147" d="M1182.158,394.339c-4.588,0-6.988-12.3-6.988-24.45s2.4-24.459,6.988-24.459,6.98,12.3,6.98,24.459S1186.737,394.339,1182.158,394.339Zm0-47.081c-2.1,0-5.126,8.816-5.126,22.631s3.058,22.631,5.126,22.631,5.126-8.817,5.126-22.631S1184.26,347.258,1182.158,347.258Z" transform="translate(3122.711 1957.02)" fill="#fff"/>
      </g>
      <g id="Group_12" data-name="Group 12" transform="translate(-25 17)">
        <g id="Group_13" data-name="Group 13" transform="translate(736.933 -122.067)">
          <path id="Path_4181" data-name="Path 4181" d="M1280.32,393.424a32.754,32.754,0,1,0-46.225-2.832,32.753,32.753,0,0,0,46.225,2.832Z" transform="translate(2909.03 1892.36)" fill="#0092c9"/>
          <path id="Path_4182" data-name="Path 4182" d="M1250.182,354.71l-4.192,10.064m4.327,6.534H1263.1" transform="translate(2913.573 1896.555)" fill="none" stroke="#fff" stroke-linecap="round" stroke-linejoin="round" stroke-width="2.13" fill-rule="evenodd"/>
          <path id="Path_4183" data-name="Path 4183" d="M1258.5,346.39a7.048,7.048,0,1,1-9.892-1.226,7.048,7.048,0,0,1,9.892,1.226Z" transform="translate(2913.552 1894.063)" fill="none" stroke="#fff" stroke-linecap="round" stroke-linejoin="round" stroke-width="2.13" fill-rule="evenodd"/>
          <path id="Path_4184" data-name="Path 4184" d="M1272.572,365.3a7.048,7.048,0,1,1-9.88-1.226,7.049,7.049,0,0,1,9.88,1.226Z" transform="translate(2916.729 1898.334)" fill="none" stroke="#fff" stroke-linecap="round" stroke-linejoin="round" stroke-width="2.13" fill-rule="evenodd"/>
          <path id="Path_4185" data-name="Path 4185" d="M1250.642,365.209a7.048,7.048,0,1,1-9.88-1.226,7.048,7.048,0,0,1,9.88,1.226Z" transform="translate(2911.778 1898.314)" fill="none" stroke="#fff" stroke-linecap="round" stroke-linejoin="round" stroke-width="2.13" fill-rule="evenodd"/>
        </g>
      </g>
    </g>
  </g>
</svg>
