<svg xmlns="http://www.w3.org/2000/svg" width="538.63" height="477.844" viewBox="0 0 538.63 477.844">
  <g id="Group_1" data-name="Group 1" transform="translate(-433 -2.819)">
    <rect id="Rectangle_10" data-name="Rectangle 10" width="337.887" height="337.887" rx="50" transform="translate(493.786 241.741) rotate(-45)" fill="rgba(109,131,242,0.5)"/>
    <path id="Path_1" data-name="Path 1" d="M277.171,364.161l5.655,17.367,7.674-6.462-4.039-13.731Z" transform="translate(331.867 -188.434)" fill="#ffb9b9"/>
    <path id="Path_3" data-name="Path 3" d="M441.563,484.911s.808,12.924,2.019,13.732,10.5-.808,10.5-.808,2.791.62,14.136-2.423c12.754-3.422-1.616-8.481-1.616-8.481s-9.289-6.058-13.328-8.885-6.866,3.231-6.866,3.231C447.217,483.7,441.563,484.911,441.563,484.911Z" transform="translate(170.706 -295.048)" fill="#2f2e41"/>
    <path id="Path_16" data-name="Path 16" d="M550.917,385.053H405.2v-3H339.125v3H192.806a9.857,9.857,0,0,0-9.857,9.857V594.443a9.857,9.857,0,0,0,9.857,9.857H550.917a9.857,9.857,0,0,0,9.857-9.857V394.91a9.857,9.857,0,0,0-9.857-9.857Z" transform="translate(265.067 -260.296)" fill="#6d83f2"/>
    <rect id="Rectangle_1" data-name="Rectangle 1" width="351.395" height="198.223" transform="translate(461.232 142.177)" opacity="0.1"/>
    <circle id="Ellipse_2" data-name="Ellipse 2" cx="3.604" cy="3.604" r="3.604" transform="translate(633.025 129.563)" fill="#e6e6e6"/>
    <rect id="Rectangle_2" data-name="Rectangle 2" width="349.176" height="198.15" transform="translate(461.822 142.078)" fill="#e6e6e6"/>
    <rect id="Rectangle_3" data-name="Rectangle 3" width="329.207" height="172.122" transform="translate(471.806 155.617)" fill="#fff"/>
    <rect id="Rectangle_4" data-name="Rectangle 4" width="84.59" height="88.134" transform="translate(501.719 221.746)" fill="#e6e6e6"/>
    <rect id="Rectangle_5" data-name="Rectangle 5" width="268.651" height="37.547" transform="translate(501.832 173.476)" fill="#6d83f2"/>
    <rect id="Rectangle_6" data-name="Rectangle 6" width="70.492" height="40.398" transform="translate(600.912 221.479)" fill="#e6e6e6"/>
    <rect id="Rectangle_8" data-name="Rectangle 8" width="84.59" height="59.444" transform="translate(685.874 221.746)" fill="#e6e6e6"/>
    <rect id="Rectangle_9" data-name="Rectangle 9" width="70.618" height="41.661" transform="translate(600.768 268.22)" fill="#6d83f2"/>
    <path id="Path_17" data-name="Path 17" d="M562.013,718.931H527.719V716.46a.49.49,0,0,0-.49-.49H515.472a.49.49,0,0,0-.49.49h0v2.471h-7.349V716.46a.49.49,0,0,0-.49-.49H495.385a.49.49,0,0,0-.49.49h0v2.471h-7.349V716.46a.49.49,0,0,0-.49-.49H475.3a.49.49,0,0,0-.49.49h0v2.471H467.46V716.46a.49.49,0,0,0-.49-.49H455.212a.49.49,0,0,0-.49.49h0v2.471h-7.349V716.46a.49.49,0,0,0-.49-.49H435.126a.49.49,0,0,0-.49.49h0v2.471h-7.349V716.46a.49.49,0,0,0-.49-.49H415.039a.49.49,0,0,0-.49.49h0v2.471H407.2V716.46a.49.49,0,0,0-.49-.49h-92.1a.49.49,0,0,0-.49.49h0v2.471h-7.349V716.46a.49.49,0,0,0-.49-.49H294.521a.49.49,0,0,0-.49.49v2.471h-7.349V716.46a.49.49,0,0,0-.49-.49H274.435a.49.49,0,0,0-.49.49h0v2.471H266.6V716.46a.49.49,0,0,0-.49-.49H254.348a.49.49,0,0,0-.49.49h0v2.471H246.51V716.46a.49.49,0,0,0-.49-.49H234.262a.49.49,0,0,0-.49.49h0v2.471h-7.349V716.46a.49.49,0,0,0-.49-.49H214.175a.49.49,0,0,0-.49.49h0v2.471h-7.349V716.46a.49.49,0,0,0-.49-.49H194.089a.49.49,0,0,0-.49.49h0v2.471H171.063a11.758,11.758,0,0,0-11.758,11.758v5.317a11.758,11.758,0,0,0,11.758,11.758h390.95a11.758,11.758,0,0,0,11.758-11.758v-5.317a11.758,11.758,0,0,0-11.758-11.758Z" transform="translate(273.695 -382.135)" fill="#6d83f2"/>
    <rect id="Rectangle_11" data-name="Rectangle 11" width="84.465" height="23.25" transform="translate(686.019 286.897)" fill="#e6e6e6"/>
  </g>
</svg>
