<svg xmlns="http://www.w3.org/2000/svg" width="238.677" height="478.669" viewBox="0 0 238.677 478.669">
  <g id="Group_4" data-name="Group 4" transform="translate(-444.327 -232.675)">
    <g id="undraw_Online_posts_re_7ucl" transform="translate(444.327 232.675)">
      <path id="Path_60" data-name="Path 60" d="M482.748,198.49h-2.63V126.441a41.7,41.7,0,0,0-41.7-41.7H285.771a41.7,41.7,0,0,0-41.7,41.7V521.71a41.7,41.7,0,0,0,41.7,41.7H438.418a41.7,41.7,0,0,0,41.7-41.7V249.776h2.63Z" transform="translate(-244.071 -84.741)" fill="#3f3d56"/>
      <path id="Path_61" data-name="Path 61" d="M446.089,101.236H426.163a14.8,14.8,0,0,1-13.7,20.383H325.016a14.8,14.8,0,0,1-13.7-20.383h-18.61a31.141,31.141,0,0,0-31.141,31.141V527.065a31.141,31.141,0,0,0,31.141,31.141H446.089a31.141,31.141,0,0,0,31.141-31.141h0V132.377a31.141,31.141,0,0,0-31.141-31.141Z" transform="translate(-250.059 -90.387)" fill="#f2f2f2"/>
      <rect id="Rectangle_7" data-name="Rectangle 7" width="40.39" height="40.39" rx="5" transform="translate(43.193 74.283)" fill="#0fa"/>
      <rect id="Rectangle_15" data-name="Rectangle 15" width="40.39" height="40.39" rx="5" transform="translate(43.193 126.504)" fill="#0fa"/>
    </g>
    <path id="Path_87" data-name="Path 87" d="M643.932,462.176H556.161c-2.53,0-3.354-1.068-3.354-2.386s.824-2.386,3.354-2.386h87.772c2.53,0,3.424,1.068,3.424,2.386S646.463,462.176,643.932,462.176Z" transform="translate(-13.4 -62.337)" opacity="0.1"/>
    <path id="Path_88" data-name="Path 88" d="M643.932,462.176H556.161c-2.53,0-3.354-1.068-3.354-2.386s.824-2.386,3.354-2.386h87.772c2.53,0,3.424,1.068,3.424,2.386S646.463,462.176,643.932,462.176Z" transform="translate(-13.4 -80.096)" opacity="0.1"/>
    <path id="Path_89" data-name="Path 89" d="M602.679,462.176H554.2a2.4,2.4,0,1,1,0-4.773h48.482a2.4,2.4,0,1,1,0,4.773Z" transform="translate(-12.326 -97.854)" fill="#0fa"/>
    <path id="Path_90" data-name="Path 90" d="M643.932,462.176H556.161c-2.53,0-3.354-1.068-3.354-2.386s.824-2.386,3.354-2.386h87.772c2.53,0,3.424,1.068,3.424,2.386S646.463,462.176,643.932,462.176Z" transform="translate(-13.4 -114.297)" opacity="0.1"/>
    <path id="Path_91" data-name="Path 91" d="M643.932,462.176H556.161c-2.53,0-3.354-1.068-3.354-2.386s.824-2.386,3.354-2.386h87.772c2.53,0,3.424,1.068,3.424,2.386S646.463,462.176,643.932,462.176Z" transform="translate(-13.4 -132.055)" opacity="0.1"/>
    <path id="Path_92" data-name="Path 92" d="M602.679,462.176H554.2a2.4,2.4,0,1,1,0-4.773h48.482a2.4,2.4,0,1,1,0,4.773Z" transform="translate(-12.326 -149.813)" fill="#0fa"/>
    <path id="Path_680" data-name="Path 680" d="M350.43,473.123a2.456,2.456,0,0,0,0,4.913h25.777a2.456,2.456,0,1,0,0-4.913Z" transform="translate(254.166 -3.491)" fill="#0fa"/>
    <path id="Path_680-2" data-name="Path 680" d="M254.829,443.43a2.457,2.457,0,0,0,0,4.913H396.4a2.457,2.457,0,0,0,0-4.913Z" transform="translate(235.123 -9.877)" opacity="0.1"/>
    <path id="Path_680-3" data-name="Path 680" d="M254.829,458.277a2.457,2.457,0,0,0,0,4.913H396.4a2.457,2.457,0,0,0,0-4.913Z" transform="translate(235.123 -6.684)" opacity="0.1"/>
    <rect id="Rectangle_17" data-name="Rectangle 17" width="40.39" height="40.39" rx="5" transform="translate(487.52 490.591)" fill="#0fa"/>
    <path id="Path_96" data-name="Path 96" d="M643.932,462.176H556.161c-2.53,0-3.354-1.068-3.354-2.386s.824-2.386,3.354-2.386h87.772c2.53,0,3.424,1.068,3.424,2.386S646.463,462.176,643.932,462.176Z" transform="translate(-13.4 68.547)" opacity="0.11"/>
    <path id="Path_97" data-name="Path 97" d="M643.932,462.176H556.161c-2.53,0-3.354-1.068-3.354-2.386s.824-2.386,3.354-2.386h87.772c2.53,0,3.424,1.068,3.424,2.386S646.463,462.176,643.932,462.176Z" transform="translate(-13.4 50.789)" opacity="0.11"/>
    <path id="Path_98" data-name="Path 98" d="M602.679,462.176H554.2a2.4,2.4,0,1,1,0-4.773h48.482a2.4,2.4,0,1,1,0,4.773Z" transform="translate(-12.326 33.031)" fill="#0fa"/>
    <path id="Path_680-4" data-name="Path 680" d="M254.829,443.43a2.457,2.457,0,0,0,0,4.913H396.4a2.457,2.457,0,0,0,0-4.913Z" transform="translate(235.123 -27.635)" opacity="0.1"/>
    <rect id="Rectangle_18" data-name="Rectangle 18" width="40.39" height="40.39" rx="5" transform="translate(487.52 543.866)" fill="#0fa"/>
    <path id="Path_99" data-name="Path 99" d="M643.932,462.176H556.161c-2.53,0-3.354-1.068-3.354-2.386s.824-2.386,3.354-2.386h87.772c2.53,0,3.424,1.068,3.424,2.386S646.463,462.176,643.932,462.176Z" transform="translate(-13.4 121.822)" opacity="0.11"/>
    <path id="Path_100" data-name="Path 100" d="M643.932,462.176H556.161c-2.53,0-3.354-1.068-3.354-2.386s.824-2.386,3.354-2.386h87.772c2.53,0,3.424,1.068,3.424,2.386S646.463,462.176,643.932,462.176Z" transform="translate(-13.4 104.064)" opacity="0.11"/>
    <path id="Path_101" data-name="Path 101" d="M602.679,462.176H554.2a2.4,2.4,0,1,1,0-4.773h48.482a2.4,2.4,0,1,1,0,4.773Z" transform="translate(-12.326 86.306)" fill="#0fa"/>
    <rect id="Rectangle_19" data-name="Rectangle 19" width="104.188" height="31.839" rx="5" transform="translate(513.991 610.706)" fill="#0fa"/>
  </g>
</svg>
