<svg xmlns="http://www.w3.org/2000/svg" width="640.223" height="440.856" viewBox="0 0 640.223 440.856">
  <g id="Group_3" data-name="Group 3" transform="translate(-139.964 -235)">
    <g id="undraw_counting_stars_rrnl" transform="translate(-165 216)">
      <path id="Path_50" data-name="Path 50" d="M420.911,313.567c-2.68,100.756,131.629,203.611,299.277,203.611S1154.82,318.541,1028.02,313.567C783.7,303.983,699.968,202.8,724.467,131.067,768.34,2.606,426.188,115.178,420.911,313.567Z" transform="translate(-115.907 -57.322)" fill="#3f3d56"/>
      <circle id="Ellipse_40" data-name="Ellipse 40" cx="3" cy="3" r="3" transform="translate(468.004 188.746)" fill="#f26531"/>
      <circle id="Ellipse_41" data-name="Ellipse 41" cx="3" cy="3" r="3" transform="translate(330.004 230.746)" fill="#f26531"/>
      <circle id="Ellipse_42" data-name="Ellipse 42" cx="4.5" cy="4.5" r="4.5" transform="translate(528.004 144.746)" fill="#f26531"/>
      <circle id="Ellipse_43" data-name="Ellipse 43" cx="3" cy="3" r="3" transform="translate(506.004 303.746)" fill="#f26531"/>
      <circle id="Ellipse_44" data-name="Ellipse 44" cx="2" cy="2" r="2" transform="translate(537.004 239.746)" fill="#f26531"/>
      <circle id="Ellipse_48" data-name="Ellipse 48" cx="2" cy="2" r="2" transform="translate(410.004 163.746)" fill="#f26531"/>
      <circle id="Ellipse_50" data-name="Ellipse 50" cx="3" cy="3" r="3" transform="translate(770.004 263.746)" fill="#6c63ff"/>
      <circle id="Ellipse_51" data-name="Ellipse 51" cx="4" cy="4" r="4" transform="translate(617.004 298.746)" fill="#6c63ff"/>
      <circle id="Ellipse_52" data-name="Ellipse 52" cx="10" cy="10" r="10" transform="translate(587.004 395.746)" fill="#f26531"/>
      <circle id="Ellipse_53" data-name="Ellipse 53" cx="7" cy="7" r="7" transform="translate(734.004 352.746)" fill="#6c63ff"/>
      <circle id="Ellipse_54" data-name="Ellipse 54" cx="4" cy="4" r="4" transform="translate(549.004 69.746)" fill="#f26531"/>
      <circle id="Ellipse_55" data-name="Ellipse 55" cx="10" cy="10" r="10" transform="translate(461.004 248.746)" fill="#f26531"/>
      <circle id="Ellipse_56" data-name="Ellipse 56" cx="7" cy="7" r="7" transform="translate(674.004 241.746)" fill="#6c63ff"/>
      <circle id="Ellipse_57" data-name="Ellipse 57" cx="7" cy="7" r="7" transform="translate(396.004 289.746)" fill="#f26531"/>
      <circle id="Ellipse_58" data-name="Ellipse 58" cx="4.5" cy="4.5" r="4.5" transform="translate(462.004 104.746)" fill="#f26531"/>
      <circle id="Ellipse_59" data-name="Ellipse 59" cx="4.5" cy="4.5" r="4.5" transform="translate(482.004 371.746)" fill="#f26531"/>
      <circle id="Ellipse_60" data-name="Ellipse 60" cx="4" cy="4" r="4" transform="translate(843.004 289.746)" fill="#6c63ff"/>
    </g>
    <g id="Group_2" data-name="Group 2" transform="translate(-403 78)">
      <g id="undraw_Traveling_re_weve" transform="translate(676 175)">
        <path id="Path_28" data-name="Path 28" d="M765.951,403.381c-28.17-21.06-72.519-41.159-121.278-54.825-44.4-12.444-88.146-18.45-122.388-16.915l-.254-3.94c34.649-1.552,78.925,4.462,123.717,17.017,49.214,13.794,94.045,34.117,122.593,55.46Z" transform="translate(-335.42 -210.428)" fill="#f26531"/>
        <path id="Path_29" data-name="Path 29" d="M762.8,419.42a132.644,132.644,0,0,1-11.479,54.156q-.951,2.14-1.981,4.241a133.148,133.148,0,0,1-252.8-58.4q0-4.622.315-9.172.149-2.314.387-4.6A133.136,133.136,0,0,1,762.8,419.42Z" transform="translate(-335.42 -210.428)" fill="#f2f2f2"/>
        <path id="Path_30" data-name="Path 30" d="M751.32,473.576q-.951,2.14-1.981,4.241-5.835.634-12.284.921c-3.559.159-7.222.239-10.965.239-32.692,0-72.037-6.035-112.231-17.3-44.794-12.556-85.318-30.117-114.112-49.453q-1.471-.986-2.89-1.977.149-2.314.387-4.6,2.29,1.632,4.723,3.268c28.455,19.1,68.574,36.479,112.968,48.923,39.843,11.168,78.817,17.151,111.135,17.151q5.542,0,10.806-.235Q744.54,474.409,751.32,473.576Z" transform="translate(-335.42 -210.428)" opacity="0.1"/>
        <path id="Path_31" data-name="Path 31" d="M726.09,475.789c-32.691,0-72.039-6.035-112.231-17.3-44.793-12.555-85.32-30.117-114.114-49.452-29.4-19.739-43.18-39.188-38.813-54.766s26.251-25.03,61.623-26.615l.178,3.982c-16.518.74-29.98,3.2-40.011,7.3-10.007,4.092-16.047,9.613-17.952,16.412s.385,14.654,6.807,23.351c6.438,8.718,16.663,17.812,30.39,27.03,28.452,19.105,68.572,36.48,112.968,48.924C654.779,465.819,693.75,471.8,726.07,471.8q5.539,0,10.8-.236c16.518-.74,29.98-3.2,40.012-7.3,10.007-4.092,16.047-9.613,17.952-16.411,3.421-12.207-6.918-28.068-29.114-44.661l2.387-3.192c11.422,8.539,19.877,16.956,25.13,25.016,5.632,8.642,7.46,16.687,5.435,23.913-4.366,15.578-26.251,25.029-61.623,26.615C733.493,475.71,729.832,475.789,726.09,475.789Z" transform="translate(-335.42 -210.428)" fill="#f26531"/>
        <circle id="Ellipse_4" data-name="Ellipse 4" cx="5.185" cy="5.185" r="5.185" transform="translate(283.607 282.96)" fill="#ccc"/>
        <circle id="Ellipse_12" data-name="Ellipse 12" cx="11.187" cy="11.187" r="11.187" transform="translate(199.121 175.431)" opacity="0.1"/>
        <circle id="Ellipse_13" data-name="Ellipse 13" cx="11.187" cy="11.187" r="11.187" transform="translate(322.689 287.811)" opacity="0.1"/>
        <circle id="Ellipse_14" data-name="Ellipse 14" cx="11.187" cy="11.187" r="11.187" transform="translate(285.059 192.72)" opacity="0.1"/>
        <circle id="Ellipse_15" data-name="Ellipse 15" cx="11.187" cy="11.187" r="11.187" transform="translate(204.715 254.25)" opacity="0.1"/>
        <circle id="Ellipse_16" data-name="Ellipse 16" cx="11.187" cy="11.187" r="11.187" transform="translate(307.064 125.716)" opacity="0.1"/>
        <circle id="Ellipse_17" data-name="Ellipse 17" cx="11.187" cy="11.187" r="11.187" transform="translate(382.185 208.484)" opacity="0.1"/>
        <circle id="Ellipse_61" data-name="Ellipse 61" cx="5.185" cy="5.185" r="5.185" transform="translate(371.607 136.96)" fill="#ccc"/>
        <circle id="Ellipse_62" data-name="Ellipse 62" cx="5.185" cy="5.185" r="5.185" transform="translate(243.607 111.96)" fill="#ccc"/>
      </g>
      <path id="Path_52" data-name="Path 52" d="M689.362,350.2A21.571,21.571,0,0,1,671.167,371.5l0-15.069h5.023l.957-6.239h-5.98c-.2-5.2-.4-8.11,6.232-7.412v-5.3c-9.938-2.188-14.083,2.85-12.967,12.715h-5.476v6.239h5.476V371.5c-25.775-3.965-22.746-42.959,3.36-42.858A21.563,21.563,0,0,1,689.362,350.2Z" transform="translate(223.777 -136.592)" fill="#f26531" fill-rule="evenodd"/>
      <g id="Group_1" data-name="Group 1" transform="translate(-99.31 93.69)">
        <path id="Subtraction_2" data-name="Subtraction 2" d="M-28.538,30.047h0c-1.477,0-2.906-.039-4.486-.086l-.162,0-.054,0c-1.37-.041-2.664-.079-3.855-.079-.444,0-.847.005-1.23.016a12.359,12.359,0,0,1-4.459-.753,8.682,8.682,0,0,1-3.128-2.059C-50.045,22.822-49.8,14.473-49.6,7.765c.055-1.84.106-3.578.063-5.091a11.113,11.113,0,0,1,1.531-6.01,9.451,9.451,0,0,1,4-3.436c3.53-1.7,8.216-1.918,11.9-1.918,1.476,0,2.9.039,4.483.086l.212.006.051,0c1.359.04,2.643.078,3.825.078.439,0,.837-.005,1.216-.016a12.369,12.369,0,0,1,4.459.753,8.7,8.7,0,0,1,3.127,2.06c4.131,4.257,3.883,12.6,3.685,19.312l0,.074c-.053,1.818-.1,3.535-.061,5.02a11.1,11.1,0,0,1-1.531,6.01,9.444,9.444,0,0,1-4,3.435C-20.167,29.829-24.851,30.047-28.538,30.047Zm-1.783-9.761h.171a8.707,8.707,0,0,0,6.882-3,10.176,10.176,0,0,0,2.294-6.607c0-4.628-2.871-9.608-9.175-9.608h-.346c-6.3,0-9.176,4.981-9.177,9.608s2.872,9.608,9.176,9.608ZM-19.954-2.121a2.252,2.252,0,0,0-2.287,2.4,2.252,2.252,0,0,0,2.292,2.4h.085a2.252,2.252,0,0,0,2.288-2.4,2.251,2.251,0,0,0-2.289-2.4h-.088ZM-30.206,17.085h-.229a5.81,5.81,0,0,1-4.59-2,6.783,6.783,0,0,1-1.53-4.4,6.787,6.787,0,0,1,1.529-4.4,5.809,5.809,0,0,1,4.589-2h.231a5.805,5.805,0,0,1,4.588,2,6.786,6.786,0,0,1,1.528,4.4,6.781,6.781,0,0,1-1.529,4.4A5.8,5.8,0,0,1-30.206,17.085Z" transform="translate(1173.087 111.262)" fill="#f26531"/>
      </g>
      <path id="Path_26" data-name="Path 26" d="M840.832,503.684s-4.193,4.7-5,5c-2.215,24.1-17.266,29.58-29.351,29.58-8.688,0-15.847-2.829-15.609-3.607,12.89.3,13.989-4.989,13.989-4.989-7.489-1.108-8.99-6-8.99-6a3.085,3.085,0,0,0,3.991-1c-8.084-2.106-6.985-10-6.985-10a10.407,10.407,0,0,0,4.889,1.9c-.9-1.1-8.459-10.162-3.909-14.858.266.714,8.139,11.435,21.295,10.656a10.576,10.576,0,0,1,10.29-12.689c6.994,0,8.5,4,8.5,4l5-3c-.1,0-.6,5-3.1,6Z" transform="translate(332.507 -207.552)" fill="#f26531"/>
      <circle id="Ellipse_66" data-name="Ellipse 66" cx="4" cy="4" r="4" transform="translate(1083.004 228.746)" fill="#f26531"/>
      <circle id="Ellipse_67" data-name="Ellipse 67" cx="10" cy="10" r="10" transform="translate(955.004 215.746)" fill="#f26531"/>
      <circle id="Ellipse_68" data-name="Ellipse 68" cx="7" cy="7" r="7" transform="translate(1101.004 270.746)" fill="#f26531"/>
      <circle id="Ellipse_69" data-name="Ellipse 69" cx="4.5" cy="4.5" r="4.5" transform="translate(852.004 246.746)" fill="#f26531"/>
    </g>
  </g>
</svg>
