<svg xmlns="http://www.w3.org/2000/svg" width="801.92" height="728.153" viewBox="0 0 801.92 728.153">
  <g id="Group_3" data-name="Group 3" transform="translate(-2115 -234.115)">
    <circle id="Ellipse_5" data-name="Ellipse 5" cx="232.07" cy="232.07" r="232.07" transform="translate(2260.524 562.313) rotate(-45)" fill="#f26531"/>
    <path id="Path_209" data-name="Path 209" d="M1277,662.07q-6.85,17.29-13.69,34.61h127.8q-6.86-17.31-13.7-34.61Z" transform="translate(1202.14 194.12)" fill="#929191"/>
    <path id="Path_210" data-name="Path 210" d="M1326.43,696.68h64.65q-6.86-17.31-13.7-34.61h-51Z" transform="translate(1202.14 194.12)" fill="#95989c"/>
    <path id="Path_211" data-name="Path 211" d="M1399,696.07H1255.38c-3.65,0-6.6,2.14-6.6,4.79v1.8h156.79v-1.8C1405.57,698.21,1402.61,696.07,1399,696.07Z" transform="translate(1202.14 194.12)" fill="#ffb79c"/>
    <path id="Path_297" data-name="Path 297" d="M1540.47,106.83a7.22,7.22,0,1,1-7.21-7.21,7.22,7.22,0,0,1,7.21,7.21" transform="translate(1102.14 192.12)" fill="#ffb79c"/>
    <path id="Path_298" data-name="Path 298" d="M1575.18,106.83a7.21,7.21,0,1,1-2.115-5.1,7.21,7.21,0,0,1,2.115,5.1" transform="translate(1102.14 192.12)" fill="#ffb79c"/>
    <path id="Path_299" data-name="Path 299" d="M1609.88,106.83a7.21,7.21,0,1,1-7.21-7.21,7.21,7.21,0,0,1,7.21,7.21" transform="translate(1102.14 192.12)" fill="#ffb79c"/>
    <path id="Path_300" data-name="Path 300" d="M1644.59,106.83a7.21,7.21,0,1,1-2.115-5.1,7.211,7.211,0,0,1,2.115,5.1" transform="translate(1102.14 192.12)" fill="#ffb79c"/>
    <path id="Path_301" data-name="Path 301" d="M1679.29,106.83a7.21,7.21,0,1,1-7.21-7.21,7.21,7.21,0,0,1,7.21,7.21" transform="translate(1102.14 192.12)" fill="#ffb79c"/>
    <path id="Path_302" data-name="Path 302" d="M1714,106.83a7.21,7.21,0,1,1-7.21-7.21,7.21,7.21,0,0,1,7.21,7.21" transform="translate(1102.14 192.12)" fill="#ffb79c"/>
    <path id="Path_303" data-name="Path 303" d="M1745.78,106.83a7.22,7.22,0,1,1-7.21-7.21,7.22,7.22,0,0,1,7.21,7.21" transform="translate(1102.14 192.12)" fill="#ffb79c"/>
    <path id="Path_304" data-name="Path 304" d="M1540.47,139.44a7.22,7.22,0,1,1-7.21-7.21,7.22,7.22,0,0,1,7.21,7.21" transform="translate(1102.14 192.12)" fill="#ffb79c"/>
    <path id="Path_305" data-name="Path 305" d="M1575.18,139.44a7.22,7.22,0,1,1-7.22-7.21,7.22,7.22,0,0,1,7.22,7.21" transform="translate(1102.14 192.12)" fill="#ffb79c"/>
    <path id="Path_306" data-name="Path 306" d="M1609.88,139.44a7.21,7.21,0,1,1-7.21-7.21,7.21,7.21,0,0,1,7.21,7.21" transform="translate(1102.14 192.12)" fill="#ffb79c"/>
    <path id="Path_307" data-name="Path 307" d="M1644.59,139.44a7.22,7.22,0,1,1-7.22-7.21,7.22,7.22,0,0,1,7.22,7.21" transform="translate(1102.14 192.12)" fill="#ffb79c"/>
    <path id="Path_308" data-name="Path 308" d="M1679.29,139.44a7.21,7.21,0,1,1-7.21-7.21,7.21,7.21,0,0,1,7.21,7.21" transform="translate(1102.14 192.12)" fill="#ffb79c"/>
    <path id="Path_309" data-name="Path 309" d="M1714,139.44a7.21,7.21,0,1,1-7.21-7.21,7.21,7.21,0,0,1,7.21,7.21" transform="translate(1102.14 192.12)" fill="#ffb79c"/>
    <path id="Path_310" data-name="Path 310" d="M1745.78,139.44a7.22,7.22,0,1,1-7.21-7.21,7.22,7.22,0,0,1,7.21,7.21" transform="translate(1102.14 192.12)" fill="#ffb79c"/>
    <path id="Path_311" data-name="Path 311" d="M1540.47,172.06a7.22,7.22,0,1,1-7.21-7.21,7.22,7.22,0,0,1,7.21,7.21" transform="translate(1102.14 192.12)" fill="#ffb79c"/>
    <path id="Path_312" data-name="Path 312" d="M1575.18,172.06a7.21,7.21,0,1,1-2.115-5.1,7.21,7.21,0,0,1,2.115,5.1" transform="translate(1102.14 192.12)" fill="#ffb79c"/>
    <path id="Path_313" data-name="Path 313" d="M1609.88,172.06a7.21,7.21,0,1,1-7.21-7.21,7.21,7.21,0,0,1,7.21,7.21" transform="translate(1102.14 192.12)" fill="#ffb79c"/>
    <path id="Path_314" data-name="Path 314" d="M1644.59,172.06a7.21,7.21,0,1,1-2.115-5.1,7.211,7.211,0,0,1,2.115,5.1" transform="translate(1102.14 192.12)" fill="#ffb79c"/>
    <path id="Path_315" data-name="Path 315" d="M1679.29,172.06a7.21,7.21,0,1,1-7.21-7.21,7.21,7.21,0,0,1,7.21,7.21" transform="translate(1102.14 192.12)" fill="#ffb79c"/>
    <path id="Path_316" data-name="Path 316" d="M1714,172.06a7.21,7.21,0,1,1-7.21-7.21,7.21,7.21,0,0,1,7.21,7.21" transform="translate(1102.14 192.12)" fill="#ffb79c"/>
    <path id="Path_317" data-name="Path 317" d="M1745.78,172.06a7.22,7.22,0,1,1-7.21-7.21,7.22,7.22,0,0,1,7.21,7.21" transform="translate(1102.14 192.12)" fill="#ffb79c"/>
    <path id="Path_318" data-name="Path 318" d="M1540.47,204.68a7.21,7.21,0,1,1-2.108-5.1,7.21,7.21,0,0,1,2.108,5.1" transform="translate(1102.14 192.12)" fill="#ffb79c"/>
    <path id="Path_319" data-name="Path 319" d="M1575.18,204.68a7.21,7.21,0,1,1-2.112-5.108,7.21,7.21,0,0,1,2.112,5.108" transform="translate(1102.14 192.12)" fill="#ffb79c"/>
    <path id="Path_320" data-name="Path 320" d="M1609.88,204.68a7.21,7.21,0,1,1-2.108-5.1,7.21,7.21,0,0,1,2.108,5.1" transform="translate(1102.14 192.12)" fill="#ffb79c"/>
    <path id="Path_321" data-name="Path 321" d="M1644.59,204.68a7.21,7.21,0,1,1-2.112-5.108,7.21,7.21,0,0,1,2.112,5.108" transform="translate(1102.14 192.12)" fill="#ffb79c"/>
    <path id="Path_322" data-name="Path 322" d="M1679.29,204.68a7.21,7.21,0,1,1-2.108-5.1,7.21,7.21,0,0,1,2.108,5.1" transform="translate(1102.14 192.12)" fill="#ffb79c"/>
    <path id="Path_323" data-name="Path 323" d="M1714,204.68a7.21,7.21,0,1,1-2.108-5.1,7.21,7.21,0,0,1,2.108,5.1" transform="translate(1102.14 192.12)" fill="#ffb79c"/>
    <path id="Path_324" data-name="Path 324" d="M1745.78,204.68a7.21,7.21,0,1,1-2.108-5.1,7.21,7.21,0,0,1,2.108,5.1" transform="translate(1102.14 192.12)" fill="#ffb79c"/>
    <path id="Path_325" data-name="Path 325" d="M1540.47,237.29a7.22,7.22,0,1,1-7.21-7.21,7.22,7.22,0,0,1,7.21,7.21" transform="translate(1102.14 192.12)" fill="#ffb79c"/>
    <path id="Path_326" data-name="Path 326" d="M1575.18,237.29a7.21,7.21,0,1,1-2.115-5.1,7.21,7.21,0,0,1,2.115,5.1" transform="translate(1102.14 192.12)" fill="#ffb79c"/>
    <path id="Path_327" data-name="Path 327" d="M1609.88,237.29a7.21,7.21,0,1,1-7.21-7.21,7.21,7.21,0,0,1,7.21,7.21" transform="translate(1102.14 192.12)" fill="#ffb79c"/>
    <path id="Path_328" data-name="Path 328" d="M1644.59,237.29a7.21,7.21,0,1,1-2.115-5.1,7.211,7.211,0,0,1,2.115,5.1" transform="translate(1102.14 192.12)" fill="#ffb79c"/>
    <path id="Path_329" data-name="Path 329" d="M1679.29,237.29a7.21,7.21,0,1,1-7.21-7.21,7.21,7.21,0,0,1,7.21,7.21" transform="translate(1102.14 192.12)" fill="#ffb79c"/>
    <path id="Path_330" data-name="Path 330" d="M1714,237.29a7.21,7.21,0,1,1-7.21-7.21,7.21,7.21,0,0,1,7.21,7.21" transform="translate(1102.14 192.12)" fill="#ffb79c"/>
    <path id="Path_331" data-name="Path 331" d="M1745.78,237.29a7.22,7.22,0,1,1-7.21-7.21,7.22,7.22,0,0,1,7.21,7.21" transform="translate(1102.14 192.12)" fill="#ffb79c"/>
    <path id="Path_332" data-name="Path 332" d="M1540.47,269.91a7.21,7.21,0,1,1-2.108-5.1,7.21,7.21,0,0,1,2.108,5.1" transform="translate(1102.14 192.12)" fill="#ffb79c"/>
    <path id="Path_333" data-name="Path 333" d="M1575.18,269.91a7.21,7.21,0,1,1-2.112-5.108,7.21,7.21,0,0,1,2.112,5.108" transform="translate(1102.14 192.12)" fill="#ffb79c"/>
    <path id="Path_334" data-name="Path 334" d="M1609.88,269.91a7.21,7.21,0,1,1-2.108-5.1,7.21,7.21,0,0,1,2.108,5.1" transform="translate(1102.14 192.12)" fill="#ffb79c"/>
    <path id="Path_335" data-name="Path 335" d="M1644.59,269.91a7.21,7.21,0,1,1-2.112-5.108,7.21,7.21,0,0,1,2.112,5.108" transform="translate(1102.14 192.12)" fill="#ffb79c"/>
    <path id="Path_336" data-name="Path 336" d="M1679.29,269.91a7.21,7.21,0,1,1-2.108-5.1,7.21,7.21,0,0,1,2.108,5.1" transform="translate(1102.14 192.12)" fill="#ffb79c"/>
    <path id="Path_337" data-name="Path 337" d="M1714,269.91a7.21,7.21,0,1,1-2.108-5.1,7.21,7.21,0,0,1,2.108,5.1" transform="translate(1102.14 192.12)" fill="#ffb79c"/>
    <path id="Path_338" data-name="Path 338" d="M1745.78,269.91a7.21,7.21,0,1,1-2.108-5.1,7.21,7.21,0,0,1,2.108,5.1" transform="translate(1102.14 192.12)" fill="#ffb79c"/>
    <path id="Path_339" data-name="Path 339" d="M2816.75,922.51l-24.21-24.21,24.21-24.2" transform="translate(-147 37)" fill="none" stroke="#ffb79c" stroke-linecap="round" stroke-linejoin="round" stroke-width="3.9"/>
    <path id="Path_340" data-name="Path 340" d="M2837.79,922.51l-24.21-24.21,24.21-24.2" transform="translate(-147 37)" fill="none" stroke="#ffb79c" stroke-linecap="round" stroke-linejoin="round" stroke-width="3.9"/>
    <path id="Path_341" data-name="Path 341" d="M2858.83,922.51l-24.21-24.21,24.21-24.2" transform="translate(-147 37)" fill="none" stroke="#ffb79c" stroke-linecap="round" stroke-linejoin="round" stroke-width="3.9"/>
    <path id="Path_342" data-name="Path 342" d="M2879.87,922.51l-24.21-24.21,24.21-24.2" transform="translate(-147 37)" fill="none" stroke="#ffb79c" stroke-linecap="round" stroke-linejoin="round" stroke-width="3.9"/>
    <path id="Path_343" data-name="Path 343" d="M2900.91,922.51,2876.7,898.3l24.21-24.2" transform="translate(-147 37)" fill="none" stroke="#ffb79c" stroke-linecap="round" stroke-linejoin="round" stroke-width="3.9"/>
    <path id="Path_344" data-name="Path 344" d="M2922.62,922.51l-24.21-24.21,24.21-24.2" transform="translate(-147 37)" fill="none" stroke="#ffb79c" stroke-linecap="round" stroke-linejoin="round" stroke-width="3.9"/>
    <path id="Path_345" data-name="Path 345" d="M2943.66,922.51l-24.21-24.21,24.21-24.2" transform="translate(-147 37)" fill="none" stroke="#ffb79c" stroke-linecap="round" stroke-linejoin="round" stroke-width="3.9"/>
    <path id="Path_346" data-name="Path 346" d="M2964.7,922.51l-24.21-24.21,24.21-24.2" transform="translate(-147 37)" fill="none" stroke="#ffb79c" stroke-linecap="round" stroke-linejoin="round" stroke-width="3.9"/>
    <path id="Path_347" data-name="Path 347" d="M2985.74,922.51l-24.21-24.21,24.21-24.2" transform="translate(-147 37)" fill="none" stroke="#ffb79c" stroke-linecap="round" stroke-linejoin="round" stroke-width="3.9"/>
    <path id="Path_348" data-name="Path 348" d="M3006.78,922.51l-24.21-24.21,24.21-24.2" transform="translate(-147 37)" fill="none" stroke="#ffb79c" stroke-linecap="round" stroke-linejoin="round" stroke-width="3.9"/>
    <path id="Path_379" data-name="Path 379" d="M2316.6,487.2h476.19a16.83,16.83,0,0,1,16.83,16.8V841.3a16.83,16.83,0,0,1-16.83,16.83H2316.6a16.83,16.83,0,0,1-16.83-16.83V504A16.82,16.82,0,0,1,2316.6,487.2Z" fill="#48465e"/>
    <rect id="Rectangle_25" data-name="Rectangle 25" width="491.62" height="353.32" rx="10.27" transform="translate(2308.89 496.02)" fill="#fff1ee"/>
    <rect id="Rectangle_26" data-name="Rectangle 26" width="229.47" height="223.72" rx="12.34" transform="translate(2545.35 601.9)" fill="#026185"/>
    <rect id="Rectangle_27" data-name="Rectangle 27" width="229.47" height="223.72" rx="12.34" transform="translate(2545.35 601.08)" fill="#0092c9"/>
    <rect id="Rectangle_28" data-name="Rectangle 28" width="195.54" height="223.72" rx="8.97" transform="translate(2331.98 601.9)" fill="#f26531"/>
    <rect id="Rectangle_29" data-name="Rectangle 29" width="195.54" height="223.72" rx="8.97" transform="translate(2331.98 601.08)" fill="#ffb79c"/>
    <rect id="Rectangle_30" data-name="Rectangle 30" width="457.8" height="35.08" rx="13.68" transform="translate(2324.5 535.76)" fill="#ffb79c"/>
    <path id="Path_380" data-name="Path 380" d="M1562.62,375.9H1139.91a17.54,17.54,0,0,1-17.54-17.54h0a17.54,17.54,0,0,1,17.54-17.54h422.71a17.54,17.54,0,0,1,17.54,17.54h0A17.54,17.54,0,0,1,1562.62,375.9Z" transform="translate(1202.14 194.12)" fill="#f26531"/>
    <path id="Path_381" data-name="Path 381" d="M1273.34,586.06h-92a17,17,0,0,1-17-17h0a17,17,0,0,1,17-17h92a17,17,0,0,1,17,17h0A17,17,0,0,1,1273.34,586.06Z" transform="translate(1202.14 194.12)" fill="#026185"/>
    <rect id="Rectangle_31" data-name="Rectangle 31" width="125.95" height="33.93" rx="13.24" transform="translate(2366.49 744.61)" fill="#0092c9"/>
    <path id="Path_382" data-name="Path 382" d="M1552.25,625.17h-189a12.31,12.31,0,0,1-9.94-19.57l69.38-94.91a7.27,7.27,0,0,1,12.21-.54l41.78,59,24.11-28.64a9,9,0,0,1,14.54,1.18l48.17,60.22a14.35,14.35,0,0,1-11.25,23.26Z" transform="translate(1202.14 194.12)" fill="#0092c9"/>
    <path id="Path_383" data-name="Path 383" d="M1552.25,623.53h-189a12.3,12.3,0,0,1-9.94-19.56l69.38-94.92a7.27,7.27,0,0,1,12.21-.54l41.78,59,24.11-28.63a9,9,0,0,1,14.54,1.17l48.17,60.22a14.35,14.35,0,0,1-11.25,23.26Z" transform="translate(1202.14 194.12)" fill="#ffb79c"/>
    <path id="Ellipse_6" data-name="Ellipse 6" d="M37.67,0A37.67,37.67,0,1,1,0,37.67,37.67,37.67,0,0,1,37.67,0Z" transform="translate(2653.47 619.15)" fill="#f26531"/>
    <path id="Ellipse_7" data-name="Ellipse 7" d="M37.67,0A37.67,37.67,0,1,1,0,37.67,37.67,37.67,0,0,1,37.67,0Z" transform="translate(2647.793 686.221) rotate(-80.7)" fill="#ffb79c"/>
    <path id="Path_384" data-name="Path 384" d="M1286.21,509.9H1166.65a5.16,5.16,0,0,1-5.17-5.17h0a5.17,5.17,0,0,1,5.17-5.18h119.56a5.18,5.18,0,0,1,5.17,5.18h0a5.17,5.17,0,0,1-5.17,5.17Z" transform="translate(1202.14 194.12)" fill="#f26531"/>
    <path id="Path_385" data-name="Path 385" d="M1286.21,488.91H1166.65a5.17,5.17,0,0,1-5.17-5.17h0a5.17,5.17,0,0,1,5.17-5.18h119.56a5.18,5.18,0,0,1,5.17,5.18h0a5.18,5.18,0,0,1-5.17,5.17Z" transform="translate(1202.14 194.12)" fill="#f26531"/>
    <path id="Path_386" data-name="Path 386" d="M1286.21,467.92H1166.65a5.17,5.17,0,0,1-5.17-5.18h0a5.17,5.17,0,0,1,5.17-5.17h119.56a5.18,5.18,0,0,1,5.17,5.17h0a5.18,5.18,0,0,1-5.17,5.18Z" transform="translate(1202.14 194.12)" fill="#f26531"/>
    <path id="Path_387" data-name="Path 387" d="M1208.49,433.38a7,7,0,1,1-7-7A7,7,0,0,1,1208.49,433.38Z" transform="translate(1202.14 194.12)" fill="#f26531"/>
    <path id="Path_388" data-name="Path 388" d="M1232.51,433.38a7,7,0,1,1-7-7A7,7,0,0,1,1232.51,433.38Z" transform="translate(1202.14 194.12)" fill="#f26531"/>
    <path id="Path_389" data-name="Path 389" d="M1256.52,433.38a7,7,0,1,1-7-7A7,7,0,0,1,1256.52,433.38Z" transform="translate(1202.14 194.12)" fill="#f26531"/>
    <path id="Path_390" data-name="Path 390" d="M1328.73,364.69H1142.39a6.15,6.15,0,0,1-6.15-6.15h0a6.15,6.15,0,0,1,6.15-6.15h186.34a6.15,6.15,0,0,1,6.15,6.15h0A6.16,6.16,0,0,1,1328.73,364.69Z" transform="translate(1202.14 194.12)" fill="#fff"/>
    <path id="Path_391" data-name="Path 391" d="M1358.6,358a5.61,5.61,0,1,1-5.61-5.61A5.61,5.61,0,0,1,1358.6,358Z" transform="translate(1202.14 194.12)" fill="#fff"/>
    <circle id="Ellipse_8" data-name="Ellipse 8" cx="5.61" cy="5.61" r="5.61" transform="translate(2566.56 546.51)" fill="#fff"/>
    <circle id="Ellipse_9" data-name="Ellipse 9" cx="7.33" cy="7.33" r="7.33" transform="translate(2329.54 513.47)" fill="#0092c9"/>
    <circle id="Ellipse_10" data-name="Ellipse 10" cx="7.33" cy="7.33" r="7.33" transform="translate(2352.75 513.47)" fill="#0092c9"/>
    <circle id="Ellipse_11" data-name="Ellipse 11" cx="7.33" cy="7.33" r="7.33" transform="translate(2375.95 513.47)" fill="#0092c9"/>
    <circle id="Ellipse_12" data-name="Ellipse 12" cx="7.33" cy="7.33" r="7.33" transform="translate(2329.54 512.65)" fill="#026185"/>
    <circle id="Ellipse_13" data-name="Ellipse 13" cx="7.33" cy="7.33" r="7.33" transform="translate(2352.75 512.65)" fill="#026185"/>
    <circle id="Ellipse_14" data-name="Ellipse 14" cx="7.33" cy="7.33" r="7.33" transform="translate(2375.95 512.65)" fill="#026185"/>
    <rect id="Rectangle_32" data-name="Rectangle 32" width="167.25" height="342.46" rx="17.44" transform="translate(2151.92 531.64)" fill="#48465e"/>
    <path id="Path_392" data-name="Path 392" d="M1092.11,343.19H1073.3a2.53,2.53,0,0,0-2.15,1.2l-5.41,8.76a5.15,5.15,0,0,1-4.38,2.45h-55.9a5.16,5.16,0,0,1-4.38-2.45l-5.4-8.76a2.55,2.55,0,0,0-2.16-1.2H974.71a18.27,18.27,0,0,0-18.26,18.26v294.6a18.26,18.26,0,0,0,18.26,18.26h117.4a18.26,18.26,0,0,0,18.26-18.26V361.45A18.27,18.27,0,0,0,1092.11,343.19Z" transform="translate(1202.14 194.12)" fill="#fff1ee"/>
    <path id="Ellipse_15" data-name="Ellipse 15" d="M25.88,0A25.88,25.88,0,1,1,0,25.88,25.88,25.88,0,0,1,25.88,0Z" transform="translate(2204.372 608.485) rotate(-76.6)" fill="#f26531"/>
    <circle id="Ellipse_16" data-name="Ellipse 16" cx="25.88" cy="25.88" r="25.88" transform="translate(2198.954 588.155) rotate(-45)" fill="#ffb79c"/>
    <rect id="Rectangle_33" data-name="Rectangle 33" width="127.73" height="39.82" rx="6.09" transform="translate(2171.68 629.6)" fill="#ffb79c"/>
    <rect id="Rectangle_34" data-name="Rectangle 34" width="127.73" height="39.82" rx="6.09" transform="translate(2171.68 628.44)" fill="#f26531"/>
    <path id="Path_393" data-name="Path 393" d="M987.77,497.58a5.43,5.43,0,1,1-1.594-3.843,5.43,5.43,0,0,1,1.594,3.843Z" transform="translate(1202.14 194.12)" fill="#f26531"/>
    <path id="Path_394" data-name="Path 394" d="M1084.49,503h-79.18a5.43,5.43,0,0,1-5.44-5.44h0a5.43,5.43,0,0,1,5.44-5.43h79.18a5.44,5.44,0,0,1,5.44,5.43h0A5.44,5.44,0,0,1,1084.49,503Z" transform="translate(1202.14 194.12)" fill="#f26531"/>
    <path id="Path_395" data-name="Path 395" d="M987.77,527a5.44,5.44,0,1,1-5.44-5.44,5.44,5.44,0,0,1,5.44,5.44Z" transform="translate(1202.14 194.12)" fill="#f26531"/>
    <path id="Path_396" data-name="Path 396" d="M1084.49,532.41h-79.18a5.44,5.44,0,0,1-5.44-5.44h0a5.44,5.44,0,0,1,5.44-5.44h79.18a5.45,5.45,0,0,1,5.44,5.44h0A5.45,5.45,0,0,1,1084.49,532.41Z" transform="translate(1202.14 194.12)" fill="#f26531"/>
    <path id="Path_397" data-name="Path 397" d="M987.77,496.42a5.43,5.43,0,1,1-1.594-3.843,5.43,5.43,0,0,1,1.594,3.843Z" transform="translate(1202.14 194.12)" fill="#ffb79c"/>
    <path id="Path_398" data-name="Path 398" d="M1084.49,501.86h-79.18a5.43,5.43,0,0,1-5.44-5.44h0a5.43,5.43,0,0,1,5.44-5.43h79.18a5.44,5.44,0,0,1,5.44,5.43h0A5.44,5.44,0,0,1,1084.49,501.86Z" transform="translate(1202.14 194.12)" fill="#ffb79c"/>
    <path id="Path_399" data-name="Path 399" d="M987.77,525.81a5.43,5.43,0,1,1-1.59-3.85,5.43,5.43,0,0,1,1.59,3.85Z" transform="translate(1202.14 194.12)" fill="#ffb79c"/>
    <path id="Path_400" data-name="Path 400" d="M1084.49,531.24h-79.18a5.43,5.43,0,0,1-5.44-5.43h0a5.43,5.43,0,0,1,5.44-5.44h79.18a5.44,5.44,0,0,1,5.44,5.44h0a5.44,5.44,0,0,1-5.44,5.43Z" transform="translate(1202.14 194.12)" fill="#ffb79c"/>
    <rect id="Rectangle_35" data-name="Rectangle 35" width="132.38" height="53.76" rx="6.09" transform="translate(2169.36 748.14)" fill="#ffb79c"/>
    <rect id="Rectangle_36" data-name="Rectangle 36" width="132.38" height="53.76" rx="6.09" transform="translate(2169.36 746.98)" fill="#f26531"/>
    <rect id="Rectangle_37" data-name="Rectangle 37" width="43.8" height="43.8" rx="3.68" transform="translate(2176.89 753.11)" fill="#0092c9"/>
    <rect id="Rectangle_38" data-name="Rectangle 38" width="43.8" height="43.8" rx="3.68" transform="translate(2176.89 752.29)" fill="#026185"/>
    <path id="Path_401" data-name="Path 401" d="M1087,571.55h-54.2a3.91,3.91,0,0,1-3.91-3.91h0a3.91,3.91,0,0,1,3.91-3.91H1087a3.91,3.91,0,0,1,3.9,3.91h0a3.91,3.91,0,0,1-3.9,3.91Z" transform="translate(1202.14 194.12)" fill="#ffb79c"/>
    <path id="Path_402" data-name="Path 402" d="M1087,583.64h-54.2a3.9,3.9,0,0,1-3.91-3.9h0a3.91,3.91,0,0,1,3.91-3.91H1087a3.91,3.91,0,0,1,3.9,3.91h0a3.9,3.9,0,0,1-3.9,3.9Z" transform="translate(1202.14 194.12)" fill="#ffb79c"/>
    <rect id="Rectangle_39" data-name="Rectangle 39" width="62.03" height="7.81" rx="3.05" transform="translate(2231.03 782.05)" fill="#ffb79c"/>
    <rect id="Rectangle_40" data-name="Rectangle 40" width="96.56" height="26.88" rx="10.48" transform="translate(2187.26 823.57)" fill="#0092c9"/>
    <path id="Path_403" data-name="Path 403" d="M1068.25,655.17H998.57a13.44,13.44,0,0,1-13.44-13.44h0a13.44,13.44,0,0,1,13.44-13.44h69.68a13.44,13.44,0,0,1,13.44,13.44h0a13.44,13.44,0,0,1-13.44,13.44Z" transform="translate(1202.14 194.12)" fill="#026185"/>
    <path id="Path_404" data-name="Path 404" d="M1081.39,451.78h-96a4.91,4.91,0,0,1-4.91-4.9h0a4.9,4.9,0,0,1,4.91-4.9h96a4.9,4.9,0,0,1,4.9,4.9h0A4.91,4.91,0,0,1,1081.39,451.78Z" transform="translate(1202.14 194.12)" fill="#fff"/>
    <path id="Path_405" data-name="Path 405" d="M1081.39,468h-96a4.9,4.9,0,0,1-4.91-4.9h0a4.9,4.9,0,0,1,4.91-4.9h96a4.9,4.9,0,0,1,4.9,4.9h0A4.9,4.9,0,0,1,1081.39,468Z" transform="translate(1202.14 194.12)" fill="#fff"/>
    <path id="Path_406" data-name="Path 406" d="M1042.39,408.15a13.181,13.181,0,0,0-4.18-3.38,10.64,10.64,0,0,0-4.12-1.12,10.253,10.253,0,0,0-2.07.07,10.839,10.839,0,0,0-3.1.91,12.629,12.629,0,0,0-4.23,3.23,16,16,0,0,0-2.94,5,18.075,18.075,0,0,0-1,3.79,25.87,25.87,0,0,0,25.32,0,19,19,0,0,0-.68-2.89A16.741,16.741,0,0,0,1042.39,408.15Z" transform="translate(1202.14 194.12)" fill="#f26531"/>
    <path id="Path_407" data-name="Path 407" d="M1034.27,379.53l.46.07a10.3,10.3,0,0,1,6.43,3.37,10.1,10.1,0,0,1,2.51,5.12,10.42,10.42,0,1,1-12.72-8.27c.48-.12,1-.17,1.45-.25h.14Z" transform="translate(1202.14 194.12)" fill="#f26531"/>
    <path id="Path_408" data-name="Path 408" d="M971.33,316.32H925.16a12.3,12.3,0,0,0-12.3,12.3v30.09A12.3,12.3,0,0,0,925.16,371h31.39a15.41,15.41,0,0,0,17.07,12.3,7.026,7.026,0,0,0,5.1-2.62,11.07,11.07,0,0,1-9.48-9.68h2.09a12.29,12.29,0,0,0,12.29-12.29V328.62A12.3,12.3,0,0,0,971.33,316.32Z" transform="translate(1202.14 194.12)" fill="#f26531"/>
    <path id="Path_409" data-name="Path 409" d="M971.33,315.16H925.16a12.3,12.3,0,0,0-12.3,12.29v30.1a12.3,12.3,0,0,0,12.3,12.29h31.39a15.41,15.41,0,0,0,17.07,12.3,7.026,7.026,0,0,0,5.1-2.62,11.07,11.07,0,0,1-9.48-9.68h2.09a12.29,12.29,0,0,0,12.29-12.29v-30.1a12.29,12.29,0,0,0-12.29-12.29Z" transform="translate(1202.14 194.12)" fill="#ffb79c"/>
    <path id="Path_410" data-name="Path 410" d="M970.76,332.84h-49.4a3.44,3.44,0,0,1-3.44-3.44h0a3.44,3.44,0,0,1,3.44-3.44h49.4a3.44,3.44,0,0,1,3.44,3.44h0a3.44,3.44,0,0,1-3.44,3.44Z" transform="translate(1202.14 194.12)" fill="#026185"/>
    <path id="Path_411" data-name="Path 411" d="M970.76,346.63h-49.4a3.44,3.44,0,0,1-3.44-3.44h0a3.44,3.44,0,0,1,3.44-3.44h49.4a3.44,3.44,0,0,1,3.44,3.44h0a3.44,3.44,0,0,1-3.44,3.44Z" transform="translate(1202.14 194.12)" fill="#026185"/>
    <path id="Path_412" data-name="Path 412" d="M970.76,360.42h-49.4a3.44,3.44,0,0,1-3.44-3.44h0a3.44,3.44,0,0,1,3.44-3.44h49.4A3.44,3.44,0,0,1,974.2,357h0a3.44,3.44,0,0,1-3.44,3.42Z" transform="translate(1202.14 194.12)" fill="#026185"/>
    <rect id="Rectangle_41" data-name="Rectangle 41" width="86.52" height="59.96" rx="3.58" transform="translate(2281.24 549.91)" fill="#8e6642"/>
    <rect id="Rectangle_42" data-name="Rectangle 42" width="86.52" height="59.96" rx="3.58" transform="translate(2281.24 548.75)" fill="#ffd1a0"/>
    <path id="Path_413" data-name="Path 413" d="M1117.73,380.27,1081.8,412.2a1.37,1.37,0,0,0,.91,2.39H1162a1.37,1.37,0,0,0,.91-2.39L1127,380.27a7,7,0,0,0-9.27,0Z" transform="translate(1202.14 194.12)" fill="#ffd1a0"/>
    <path id="Path_414" data-name="Path 414" d="M1162.94,412.2l-10.08-8.66-10-8.73-10-8.78-5-4.4-1.24-1.09a6.592,6.592,0,0,0-1.29-.86,6.5,6.5,0,0,0-3-.72,6.62,6.62,0,0,0-4.28,1.58l-1.25,1.09-5,4.4-10,8.78-10,8.73-10.08,8.66,9.78-9,9.85-8.92,9.89-8.87,5-4.43,1.24-1.11a7.222,7.222,0,0,1,1.46-1,7.431,7.431,0,0,1,3.4-.84,7.59,7.59,0,0,1,3.4.84,7.436,7.436,0,0,1,1.45,1l1.25,1.11,5,4.43,9.89,8.87,9.84,8.92Z" transform="translate(1202.14 194.12)" fill="#eda35f"/>
    <path id="Path_415" data-name="Path 415" d="M1117.73,390.56l-35.93-33.05a1.43,1.43,0,0,1,.91-2.48H1162a1.43,1.43,0,0,1,.91,2.48L1127,390.56A6.82,6.82,0,0,1,1117.73,390.56Z" transform="translate(1202.14 194.12)" fill="#56351a" opacity="0.5"/>
    <path id="Path_416" data-name="Path 416" d="M1117.73,389l-35.93-32a1.37,1.37,0,0,1,.91-2.39H1162a1.37,1.37,0,0,1,.91,2.39L1127,389A7,7,0,0,1,1117.73,389Z" transform="translate(1202.14 194.12)" fill="#ffd1a0"/>
    <path id="Path_417" data-name="Path 417" d="M1162.94,357l-9.79,9-9.84,8.92-9.89,8.88-5,4.42-1.25,1.11a7.33,7.33,0,0,1-8.25,1,7.218,7.218,0,0,1-1.46-1l-1.24-1.1-5-4.43-9.89-8.87-9.85-8.92-9.78-9,10.08,8.66,10,8.73,10,8.78,5,4.4,1.25,1.09a6.167,6.167,0,0,0,1.29.86,6.6,6.6,0,0,0,3,.73,6.75,6.75,0,0,0,3-.72,6.635,6.635,0,0,0,1.29-.87l1.24-1.09,5-4.4,10-8.77,10-8.74Z" transform="translate(1202.14 194.12)" fill="#eda35f"/>
    <path id="Rectangle_43" data-name="Rectangle 43" d="M7.09,0H68.11A7.09,7.09,0,0,1,75.2,7.09V45.25a7.09,7.09,0,0,1-7.09,7.09H7.09A7.09,7.09,0,0,1,0,45.25V7.09A7.09,7.09,0,0,1,7.09,0Z" transform="translate(2757.1 461.61)" fill="#026185"/>
    <path id="Rectangle_44" data-name="Rectangle 44" d="M7.09,0H68.11A7.09,7.09,0,0,1,75.2,7.09V45.25a7.09,7.09,0,0,1-7.09,7.09H7.09A7.09,7.09,0,0,1,0,45.25V7.09A7.09,7.09,0,0,1,7.09,0Z" transform="translate(2757.1 460.45)" fill="#0092c9"/>
    <path id="Path_418" data-name="Path 418" d="M2784.09,497.09V477.53l21.21,9.09Z" fill="#026185"/>
    <rect id="Rectangle_45" data-name="Rectangle 45" width="109.27" height="109.27" rx="11.22" transform="translate(2346.36 803.19)" fill="#0092c9"/>
    <rect id="Rectangle_46" data-name="Rectangle 46" width="109.27" height="109.27" rx="11.22" transform="translate(2346.36 801.55)" fill="#026185"/>
    <path id="Path_419" data-name="Path 419" d="M1199.71,697H1198a5,5,0,0,1-2.65-1.62c-4-5.12-8-10.2-11.93-15.32-2.8-3.63-5.62-7.24-8.27-11a26.168,26.168,0,0,1-4.58-12.67,27.56,27.56,0,0,1,6.43-21.56c6.7-7.85,15.34-11.14,25.57-9.91a27.23,27.23,0,0,1,19.47,11.63,28,28,0,0,1,5.1,19.84,29.448,29.448,0,0,1-6.21,15.13c-6,7.72-12,15.35-18,23.05a5.691,5.691,0,0,1-3.22,2.43Zm-.79-54.7a11.3,11.3,0,1,0,11.24,11.33,11.18,11.18,0,0,0-11.24-11.31Z" transform="translate(1202.14 194.12)" fill="#301635"/>
    <path id="Path_420" data-name="Path 420" d="M1199.71,695.38H1198a5,5,0,0,1-2.65-1.62c-4-5.12-8-10.2-11.93-15.32-2.8-3.63-5.62-7.24-8.27-11a26.17,26.17,0,0,1-4.58-12.67,27.52,27.52,0,0,1,6.43-21.55c6.7-7.86,15.34-11.15,25.57-9.91A27.19,27.19,0,0,1,1222.05,635a28,28,0,0,1,5.1,19.84,29.45,29.45,0,0,1-6.21,15.13c-6,7.72-12,15.36-18,23.05a5.69,5.69,0,0,1-3.23,2.36Zm-.79-54.69A11.3,11.3,0,1,0,1210.16,652a11.17,11.17,0,0,0-11.24-11.31Z" transform="translate(1202.14 194.12)" fill="#fff"/>
    <path id="Path_430" data-name="Path 430" d="M1134.08,134.8a41,41,0,1,0,20.22,54.31,41,41,0,0,0-20.22-54.31Z" transform="translate(1202.14 194.12)" fill="#026185" fill-rule="evenodd"/>
    <path id="Path_431" data-name="Path 431" d="M1136.42,208.17A40.86,40.86,0,0,0,1153,191.72h-.48l-.26.3-.41-.18a.36.36,0,0,1-.37-.22c-.12-.24.08-.27-.22-.38a.87.87,0,0,0-.47-.07,6.138,6.138,0,0,0-.91.2c-.32.06-.7-.1-.93.12l-1,.84a1.853,1.853,0,0,0-.49.61c-.11.3-.07.58-.32.86a1.63,1.63,0,0,1-.78.51,4.578,4.578,0,0,1-1.18-.3,1,1,0,0,0-.84-.17c-.5,0-.8,0-1,.25s-.67.24-.72.35-.42,0-.55-.21a.47.47,0,0,0-.43-.26,2.36,2.36,0,0,1-.66-.09,2,2,0,0,0-.51-.23c-.19,0-.29-.15-.58-.07l-.6.17a1.611,1.611,0,0,0-.48.18l-.74.27-.53-.25s-.62.18-.69.22-.68.63-.8.75a6.106,6.106,0,0,0-.41.78v.9c0,.3.6,1.12.57,1.71a5.09,5.09,0,0,0,.33,1.58,4.225,4.225,0,0,1-.29,1.08,20.124,20.124,0,0,1-.77,2c-.15.12-.09.94-.18,1.52a3.85,3.85,0,0,0,.18,1.41s-.53.34,0,1.05c.34.44.72.89,1,1.18Z" transform="translate(1202.14 194.12)" fill="#fff" fill-rule="evenodd"/>
    <path id="Path_432" data-name="Path 432" d="M1089,184.43s-.22-1,0-1.17a1.82,1.82,0,0,0,.7-.86,6.156,6.156,0,0,0,0-1.33l-1.15-2.17-.22-1.38s-1.42.41-1.23.55-.65,2.42-.73,2.74-.12,1.81-.18,2.32-.17,2.29-.17,2.29l.26,1.35s.8.91,1.18.21,1.15-1.08,1.35-1.37a3,3,0,0,0,.18-1.18Z" transform="translate(1202.14 194.12)" fill="#fff" fill-rule="evenodd"/>
    <path id="Path_433" data-name="Path 433" d="M1139.71,141.18l-1.13,1.47-2,1.34-1.92.92s-.82.9.76,1.58a19.263,19.263,0,0,1,2.45,1.24,5.136,5.136,0,0,0,.65-1.5c.37-1.13.58-1.82.58-1.82a2.49,2.49,0,0,0,1-1c.51-.8,1.34-1.83,1.34-1.83l-1.65-.42Z" transform="translate(1202.14 194.12)" fill="#fff" fill-rule="evenodd"/>
    <path id="Path_434" data-name="Path 434" d="M1139.77,145.52l-.4,1.06.09.63.61,1.11.65.15s-.19-.78.21-1.11a1.7,1.7,0,0,0,.55-1,13.013,13.013,0,0,0-.39-1.29l-.42-.37-.83.29a2.949,2.949,0,0,1-.07.55Z" transform="translate(1202.14 194.12)" fill="#fff" fill-rule="evenodd"/>
    <path id="Path_435" data-name="Path 435" d="M1122.18,131.4a41,41,0,0,0-42.41,23.6q-.35.77-.66,1.53l.28.2,2.58-2.16a13.282,13.282,0,0,1,1.75-2.16c.8-.69,2.2-2.23,2.2-2.23a14.289,14.289,0,0,0,2.45-1,4,4,0,0,1,2.22-.71l3.54,1.67,2.26-.13a10.23,10.23,0,0,0,2.67.35c.28-.21,2.26-1,2.26-1s1.63-.83.39.47-1.67,1.05-2.23,1.74-3,.28-3,.28l-.26-.88-2.49.62a2.1,2.1,0,0,0-.81,1.44c0,.43-.23,1.9.48,2.62a13.621,13.621,0,0,1,1.51,2c.18.28,1.66,2.44,1.86,2.9a10.931,10.931,0,0,0,1.45,1.69,15.369,15.369,0,0,0,2.68-1.65c.41-.51,1-1.32,1.54-2a25.3,25.3,0,0,1,2.22-2.12s1.58-1.11,2.15-1.46a14,14,0,0,1,1.7-.8s.63-.36-.19,1.29a14.23,14.23,0,0,1-3,3.63c-.3.25-2,1.58-2.1,1.3s-1.7.72-2.16,1.37a7.343,7.343,0,0,1-2.26,1.39,1.71,1.71,0,0,1-2.34-.15,15.311,15.311,0,0,0-2.16-1.76l-.38,2.39.1,3.92,1.71,4.86s.53,2.26.19,2.75-1.45,2.13-2,3-1.42,2.57-1.42,2.57l1.06,3.39.4,1.25-1.2,2.4v1.67a4.527,4.527,0,0,1,.39,1.06c0,.23-.49,2-.49,2l.67,2.33.59,1.78a10.916,10.916,0,0,0,1.69,1.36c.28.06.6.59,1.11.82s.85,1.11,1.55.76,1.28-1.73,1.28-1.73a13.806,13.806,0,0,0,2.06-1.88c1-1.16,1.19-1.21,2.4-2.68s1.72-1.14,2.37-2.59,1.59-3.13,1.59-3.13a7.153,7.153,0,0,1,.65-2.77c.59-1.05,2-2.5,2-2.76s1.78-1.21,1.78-1.21l1.51-1.64.9-2.49a4.491,4.491,0,0,1,1.93.08c.5.3,1.7-.31,2-.34s2.3,1.81,3.32,2.33,1.74,2.82,3.26,2,3-1.83,3.36-1.73,1.8-1.11,1.8-1.11a5.52,5.52,0,0,0,2.39-2.47c.75-1.68,1.21-2.74,1.21-2.74l.55-2.9-.25-2.72s-1.14-.9-1-1.9.52-2.47.52-2.47l-.83-1.87V159.8l-.26-.78-.54.29-1.09-.54-1.46-1-.81-1-1.43-1-.69-.31-.93-.4-.73-.45-.45-.26-.49.06a2.1,2.1,0,0,1-.32.93c-.23.2-.08,1.08-.31,1.23a5.442,5.442,0,0,1-1.51.35c-.15,0-.63-.41-1.22-.21s-.39.43-1.52.41-1.91.28-1.91-.39.19.05.07-.93.2-1.17-.8-1.29a9.231,9.231,0,0,1-2.87-.34c-1.31-.44-2.34-1.06-2.65-1.14s-1.75-.63-1.75-.63v-1.58l.52-1.65.31-.72,2.76,1,.25.58a1.42,1.42,0,0,0,1.27.09,4.221,4.221,0,0,0,1.06-.7l.6-1v-1.14a11.873,11.873,0,0,0,1.56.67c.25,0,.84-.49.61.23a13.419,13.419,0,0,1-1.23,2.2s0,.87.46.93.29,1,1.14-.25,1.18-1.09,1.51-1.29a7.151,7.151,0,0,0,1.09-1.25,8.3,8.3,0,0,0,2.14-.43c.57-.3.75-.69,1.51-.74a2.564,2.564,0,0,1,.84,0s.6,1,.29,1.26a11.063,11.063,0,0,1-1.76.87l-2.53.43s-.62.31-.37.43a2.131,2.131,0,0,0,.82.06s.19.36-.06.53-.48.26-.55.33a3.538,3.538,0,0,0,0,.81l.08.53s.21.37.34-.07a4.237,4.237,0,0,0,.14-1l.64-.55.76-.31c.18-.07.48.08.88,0a2.9,2.9,0,0,0,1.38-.3c.56-.35.48-.84.93-.92l.45-.09.7.13a2.887,2.887,0,0,1,.12.47,4.771,4.771,0,0,0,.61.59s-.16.32,0,.38.22,0,.6,0a2,2,0,0,1,.82.22s.11.5.23.55.08.3-.07.4-.37.12-.15.37a5.876,5.876,0,0,1,.6.93c.08.16.18.63.28.82a4.9,4.9,0,0,1,.22.74l-.32.54.13.92.37.74s-.38.23.17.43a8.166,8.166,0,0,1,1.26.65s-.26.43.07.44a4.489,4.489,0,0,0,.89-.12l.43-.1s-.12.31.44.4.51.48.91-.19a5.351,5.351,0,0,0,.42-.9c.25-.48.51-1.8.6-1.93s.73-.85.73-.85a2,2,0,0,0,0-.55,2.05,2.05,0,0,0-1-.95c-.27-.08-1.34-.38-1.8-.46s-.82.28-1.13-.25a1.36,1.36,0,0,1-.13-1l.66-1.1s.26.22.74-.15a10.249,10.249,0,0,1,.88-.61,1.921,1.921,0,0,0,.85.18c.28-.05.42-.57.42-.57s-1.1-.82-1.11-.72-.52-.47-.52-.47l.42-.62s-.58.05-.73-.08a5.9,5.9,0,0,1-.55-.49,1.213,1.213,0,0,1-.21-.58l.05-.73-.5-.41-.67-.58v-1l-.5-.82-.76-.36-.54-.46.17-.7s.37-1.4.6-1.31.61-.66.61-.66l-.44-1.2s-.81.51-.83.81.21.68-.11.83-1.08.54-1.08.54l-1.7-.07a2.469,2.469,0,0,1-1.09-.65c-.43-.46-.88-.24-1.24-1a2,2,0,0,1-.32-1.18c0-.36-.12-1.43-.2-1.94s-1-.45-1-.45l-.1-.65a5.288,5.288,0,0,0,.5-.84c.09-.28-.47-.89-.64-1l-1.42-.6-.65-.83h0Z" transform="translate(1202.14 194.12)" fill="#fff" fill-rule="evenodd"/>
    <path id="Path_436" data-name="Path 436" d="M1134.08,134.8c-.68-.32-1.37-.6-2.06-.88l-2.37-.85a4.28,4.28,0,0,1-1.63,1c-1,.35.49,1.63.49,1.63a15.149,15.149,0,0,0-.32,2c-.1,1.15.84,1,.84,1s.91.48.88.21.48-.69.67-.82a8.413,8.413,0,0,0,1.2-1c.33-.38.82.67.82.67s.41.35,1.69,1.35.49-.35.49-.35a8.89,8.89,0,0,1,1-1.48,3.881,3.881,0,0,0,.47-1.34c-.71-.38-1.44-.73-2.18-1.07Z" transform="translate(1202.14 194.12)" fill="#fff" fill-rule="evenodd"/>
    <rect id="Rectangle_57" data-name="Rectangle 57" width="40.22" height="53.72" transform="translate(2834.167 608.766) rotate(-0.172)" fill="#fff"/>
    <path id="Path_437" data-name="Path 437" d="M1677.38,411.39a2.63,2.63,0,0,0-2.63-2.61l-44.73.13a2.61,2.61,0,0,0-2.61,2.62l.17,59.62a2.62,2.62,0,0,0,2.62,2.61l44.74-.13a2.62,2.62,0,0,0,2.61-2.62Zm-5,56.74-39.86.11-.15-53.64,39.86-.12Z" transform="translate(1202.14 194.12)"/>
    <rect id="Rectangle_58" data-name="Rectangle 58" width="39.88" height="18.91" transform="translate(2834.563 612.782) rotate(-0.17)" fill="#f26531"/>
    <rect id="Rectangle_59" data-name="Rectangle 59" width="16.81" height="10.5" transform="translate(2836.617 634.03) rotate(-0.172)" fill="#026185"/>
    <rect id="Rectangle_60" data-name="Rectangle 60" width="16.81" height="8.58" transform="translate(2836.735 653.625) rotate(-0.17)" fill="#f26531"/>
    <path id="Path_438" data-name="Path 438" d="M2853.49,646.75l-16.8.04-.01-1.2,16.81-.05Z" fill="#676767"/>
    <rect id="Rectangle_64" data-name="Rectangle 64" width="16.51" height="10.8" transform="translate(2855.257 634.158) rotate(-0.172)" fill="#f26531"/>
    <path id="Path_442" data-name="Path 442" d="M1664.45,461.59Z" transform="translate(1202.14 194.12)" fill="#989897"/>
    <path id="Path_447" data-name="Path 447" d="M1311,196.59a32.62,32.62,0,1,0,32.62,32.62A32.62,32.62,0,0,0,1311,196.59" transform="translate(1202.14 194.12)" fill="#0092c9"/>
    <path id="Path_448" data-name="Path 448" d="M1340.12,225.78a32.62,32.62,0,1,1-32.62-32.62A32.62,32.62,0,0,1,1340.12,225.78Z" transform="translate(1202.14 194.12)" fill="#1d3865"/>
    <circle id="Ellipse_17" data-name="Ellipse 17" cx="28.24" cy="28.24" r="28.24" transform="translate(2478.692 447.345) rotate(-89.427)" fill="#fff"/>
    <path id="Path_449" data-name="Path 449" d="M1309.59,202.66a2.09,2.09,0,1,1-2.09-2.09,2.09,2.09,0,0,1,2.09,2.09Z" transform="translate(1202.14 194.12)" fill="#eb5753"/>
    <path id="Path_450" data-name="Path 450" d="M1309.59,248.9a2.09,2.09,0,1,1-2.09-2.08,2.09,2.09,0,0,1,2.09,2.08Z" transform="translate(1202.14 194.12)" fill="#eb5753"/>
    <path id="Path_451" data-name="Path 451" d="M1284.38,223.7a2.09,2.09,0,1,1-2.09,2.08,2.09,2.09,0,0,1,2.09-2.08Z" transform="translate(1202.14 194.12)" fill="#eb5753"/>
    <path id="Path_452" data-name="Path 452" d="M1330.62,223.7a2.09,2.09,0,1,1-2.09,2.08,2.09,2.09,0,0,1,2.09-2.08Z" transform="translate(1202.14 194.12)" fill="#eb5753"/>
    <rect id="Rectangle_72" data-name="Rectangle 72" width="1.19" height="18.8" transform="translate(2509.17 401.77)" fill="#f9a41f"/>
    <rect id="Rectangle_73" data-name="Rectangle 73" width="1.19" height="23.87" transform="translate(2509.215 420.637) rotate(-45.081)" fill="#f9a41f"/>
    <path id="Path_509" data-name="Path 509" d="M1049.69,259.43H988.55s6.13-12.4,18.58-17.84a30.259,30.259,0,0,1,4.39-1.52,29.339,29.339,0,0,1,7.6-1,29.662,29.662,0,0,1,10.43,1.87c1,.37,1.91.78,2.82,1.22l.21.1c.94.47,1.84,1,2.7,1.51a43.161,43.161,0,0,1,14.41,15.64" transform="translate(1202.14 194.12)" fill="#ffd32e"/>
    <path id="Path_510" data-name="Path 510" d="M1012.57,202.64s-11.43,22.06,0,41.9h5.61s-12.44-12.58-3.24-41.9Z" transform="translate(1202.14 194.12)" fill="#db9e36"/>
    <path id="Path_511" data-name="Path 511" d="M1012.83,203.81a3.15,3.15,0,1,1-.919-2.234,3.15,3.15,0,0,1,.919,2.234" transform="translate(1202.14 194.12)" fill="#ffd34e"/>
    <path id="Path_512" data-name="Path 512" d="M1020,203.81a3.15,3.15,0,1,1-.919-2.234,3.15,3.15,0,0,1,.919,2.234" transform="translate(1202.14 194.12)" fill="#eb7f00"/>
    <path id="Path_513" data-name="Path 513" d="M1013.29,202.64l-23.33-14s10.73-2.48,18.22,2a10.524,10.524,0,0,1,5.11,12" transform="translate(1202.14 194.12)" fill="#39b54a"/>
    <path id="Path_514" data-name="Path 514" d="M1037,188.65l-10.81,6.48-4.34,2.6-1.58,1-2.53,1.52-.88.53-3,1.77-.24.14s-.06-.19-.14-.51a.54.54,0,0,0-.06-.29,10.867,10.867,0,0,1,0-4.11,10.55,10.55,0,0,1,5.31-7.07,17.053,17.053,0,0,1,3.07-1.42c7.05-2.47,15.15-.59,15.15-.59" transform="translate(1202.14 194.12)" fill="#39b54a"/>
    <path id="Path_515" data-name="Path 515" d="M1013.49,202.64H987.42s8.68-8,17.05-8c8.53,0,9,8,9,8" transform="translate(1202.14 194.12)" fill="#8dc63f"/>
    <path id="Path_516" data-name="Path 516" d="M1039.57,202.64h-26.08a3.075,3.075,0,0,1,.06-.51,8.47,8.47,0,0,1,8.32-7.45h.64a16,16,0,0,1,3.7.46c5.19,1.26,10,4.74,12.14,6.48.78.63,1.22,1,1.22,1" transform="translate(1202.14 194.12)" fill="#8dc63f"/>
    <path id="Path_517" data-name="Path 517" d="M1032.58,242.28a27.833,27.833,0,0,1-3,7.74h-4.2s2.82-2.84,4.21-9.06c1.07-4.74,1.3-11.44-1.18-20.34-.18-.66-.38-1.33-.6-2h1.77a30.328,30.328,0,0,1,1.31,3.08c1.54,4.19,3.67,12.17,1.73,20.61" transform="translate(1202.14 194.12)" fill="#db9e36"/>
    <path id="Path_518" data-name="Path 518" d="M1034.08,219.47a2.37,2.37,0,0,1-2.36,2.37,2.25,2.25,0,0,1-.87-.17,2.36,2.36,0,0,1-1.33-3.08,2.106,2.106,0,0,1,.24-.44h0a2.35,2.35,0,0,1,1.71-1h.25a2.35,2.35,0,0,1,2.19,1.48,2.38,2.38,0,0,1,.17.88" transform="translate(1202.14 194.12)" fill="#ffd34e"/>
    <path id="Path_519" data-name="Path 519" d="M1028.68,219.47a2.37,2.37,0,1,1-4.73,0,2.11,2.11,0,0,1,.17-.87,2.34,2.34,0,0,1,2.11-1.49h.08a2.34,2.34,0,0,1,2.12,1.32,1.107,1.107,0,0,1,.07.16h0a2.291,2.291,0,0,1,.17.87" transform="translate(1202.14 194.12)" fill="#eb7f00"/>
    <path id="Path_520" data-name="Path 520" d="M1046.5,208.1l-8.11,4.87-6.92,4.15h0l-1.71,1h0l-.75.44a3.34,3.34,0,0,1-.11-.38,2.1,2.1,0,0,0-.05-.21h0a8.349,8.349,0,0,1,0-3.07,7.891,7.891,0,0,1,4-5.3c5.62-3.38,13.66-1.52,13.66-1.52" transform="translate(1202.14 194.12)" fill="#39b54a"/>
    <path id="Path_521" data-name="Path 521" d="M1028.85,218h0v.22q-.041.187-.1.37h0l-.17-.1-.1-.06-2.12-1.27h-.08l-.57-.34-1.9-1.14-1.19-.71-3.25-1.95-8.11-4.87s6.08-1.4,11.36.44a12,12,0,0,1,2.3,1.08,7.84,7.84,0,0,1,4,5.29h0a7.556,7.556,0,0,1,0,3.07" transform="translate(1202.14 194.12)" fill="#39b54a"/>
    <path id="Path_522" data-name="Path 522" d="M1048.41,218.59h-19.56a2.065,2.065,0,0,1,.05-.38,6.37,6.37,0,0,1,6.72-5.59,11.88,11.88,0,0,1,2.77.35c5.29,1.28,10,5.62,10,5.62" transform="translate(1202.14 194.12)" fill="#8dc63f"/>
    <path id="Path_523" data-name="Path 523" d="M1028.85,218.59H1009.3s.33-.3.91-.77a25.3,25.3,0,0,1,9.11-4.86,11.879,11.879,0,0,1,2.77-.35h.48a6.34,6.34,0,0,1,6.24,5.59,2.014,2.014,0,0,1,0,.37" transform="translate(1202.14 194.12)" fill="#8dc63f"/>
    <rect id="Rectangle_66" data-name="Rectangle 66" width="15.51" height="0.6" transform="translate(2837.333 649.32) rotate(-0.17)" fill="#676767"/>
    <rect id="Rectangle_66-2" data-name="Rectangle 66" width="15.51" height="0.6" transform="translate(2837.333 648.32) rotate(-0.17)" fill="#676767"/>
    <rect id="Rectangle_66-3" data-name="Rectangle 66" width="15.51" height="0.6" transform="translate(2837.333 650.32) rotate(-0.17)" fill="#676767"/>
    <rect id="Rectangle_66-4" data-name="Rectangle 66" width="16.51" height="0.6" transform="translate(2855.333 646.32) rotate(-0.17)" fill="#676767"/>
    <rect id="Rectangle_66-5" data-name="Rectangle 66" width="16.51" height="0.6" transform="translate(2855.333 648.32) rotate(-0.17)" fill="#676767"/>
    <rect id="Rectangle_66-6" data-name="Rectangle 66" width="16.51" height="0.6" transform="translate(2855.333 650.32) rotate(-0.17)" fill="#676767"/>
    <rect id="Rectangle_66-7" data-name="Rectangle 66" width="16.51" height="0.6" transform="translate(2855.333 652.32) rotate(-0.17)" fill="#676767"/>
  </g>
</svg>
