<svg xmlns="http://www.w3.org/2000/svg" xmlns:xlink="http://www.w3.org/1999/xlink" width="698.87" height="617.103" viewBox="0 0 698.87 617.103">
  <defs>
    <linearGradient id="linear-gradient" y1="0.5" x2="1" y2="0.5" gradientUnits="objectBoundingBox">
      <stop offset="0" stop-color="#fff"/>
      <stop offset="1" stop-color="#fff" stop-opacity="0.302"/>
    </linearGradient>
  </defs>
  <g id="Group_3" data-name="Group 3" transform="translate(-476.565 -52.897)">
    <g id="undraw_launch_day_4e04" transform="translate(484.566 59.897)">
      <path id="Path_58" data-name="Path 58" d="M707.093,391.232C625.831,514.2,587.611,658.1,440.223,658.1S173.351,538.621,173.351,391.232,306.53,186.408,440.223,124.361C874.464-77.172,888.918,116.1,707.093,391.232Z" transform="translate(-181.351 -48)" fill="#3f3d56" opacity="0.49"/>
      <circle id="Ellipse_21" data-name="Ellipse 21" cx="8.186" cy="8.186" r="8.186" transform="translate(324.994 139.846)" fill="#0fa"/>
      <circle id="Ellipse_22" data-name="Ellipse 22" cx="8.186" cy="8.186" r="8.186" transform="translate(524.384 163.13)" fill="#0fa"/>
      <circle id="Ellipse_23" data-name="Ellipse 23" cx="4.912" cy="4.912" r="4.912" transform="translate(450.243 179.958)" fill="#0fa"/>
      <circle id="Ellipse_24" data-name="Ellipse 24" cx="4.912" cy="4.912" r="4.912" transform="translate(72.039 334.678)" fill="#0fa"/>
      <circle id="Ellipse_25" data-name="Ellipse 25" cx="4.912" cy="4.912" r="4.912" transform="translate(116.65 490.477)" fill="#0fa"/>
      <path id="Path_59" data-name="Path 59" d="M587.1,438.24l-2.451,2.435-2.435-2.452-1.634,1.624,2.434,2.452-2.452,2.434,1.624,1.635,2.452-2.435,2.435,2.452,1.634-1.623-2.435-2.452,2.452-2.434Z" transform="translate(-360.582 -274.625)" fill="#0fa"/>
      <path id="Path_60" data-name="Path 60" d="M156.3,544.582l-2.452,2.434-2.434-2.452-1.635,1.623,2.435,2.452-2.452,2.434,1.623,1.635,2.451-2.435,2.435,2.452,1.635-1.623-2.435-2.451,2.452-2.435Z" transform="translate(-36.781 -133.742)" fill="#0fa"/>
      <path id="Path_61" data-name="Path 61" d="M182.345,355.771l-2.452,2.434-2.434-2.451-1.635,1.623,2.435,2.452-2.452,2.435,1.623,1.634,2.451-2.434,2.435,2.451,1.635-1.623-2.435-2.452,2.452-2.435Z" transform="translate(-43.177 -87.371)" fill="#0fa"/>
      <path id="Path_62" data-name="Path 62" d="M749.865,155.023l-2.452,2.434-2.434-2.451-1.635,1.623,2.435,2.452-2.452,2.435,1.623,1.634,2.452-2.434,2.435,2.451,1.635-1.623-2.435-2.452,2.452-2.435Z" transform="translate(-182.558 -38.069)" fill="#0fa"/>
      <path id="Path_63" data-name="Path 63" d="M493.776,245.088l-2.452,2.435-2.435-2.452-1.634,1.623,2.434,2.451-2.451,2.435,1.623,1.635,2.452-2.435,2.435,2.452,1.634-1.623-2.434-2.452,2.451-2.434Z" transform="translate(-119.663 -60.188)" fill="#0fa"/>
      <path id="Path_64" data-name="Path 64" d="M691.321,422.123,716.194,393l24.873-29.119,14.041-16.438c.777-.91-.422-2.328-1.2-1.419l-24.873,29.12-24.873,29.119L690.122,420.7c-.777.91.422,2.328,1.2,1.419Z" transform="translate(-454.206 -170.842)" opacity="0.8" fill="url(#linear-gradient)"/>
      <path id="Path_65" data-name="Path 65" d="M632.725,561.019,657.6,531.9l24.873-29.119,14.041-16.438c.777-.91-.422-2.328-1.2-1.419L670.44,514.043l-24.873,29.119L631.526,559.6c-.777.909.422,2.328,1.2,1.419Z" transform="translate(-439.815 -204.954)" opacity="0.8" fill="url(#linear-gradient)"/>
      <path id="Path_78" data-name="Path 78" d="M394.443,379.067l.213.426-.213.393Z" transform="translate(-96.873 -93.097)"/>
      <path id="Path_137" data-name="Path 137" d="M691.321,422.123,716.194,393l24.873-29.119,14.041-16.438c.777-.91-.422-2.328-1.2-1.419l-24.873,29.12-24.873,29.119L690.122,420.7c-.777.91.422,2.328,1.2,1.419Z" transform="translate(-248.206 -314.842)" opacity="0.8" fill="url(#linear-gradient)"/>
      <path id="Path_138" data-name="Path 138" d="M187.039,355.783l-4.212,4.182-4.182-4.211-2.809,2.788,4.184,4.212-4.212,4.184,2.789,2.807,4.211-4.182,4.184,4.211,2.809-2.788-4.184-4.212,4.212-4.184Z" transform="translate(202.823 -286.371)" fill="#0fa"/>
    </g>
    <g id="undraw_accept_tasks_po1c" transform="translate(727.384 310.987)">
      <path id="Path_32" data-name="Path 32" d="M629.582,709.19H209.69a14.079,14.079,0,0,1-14.079-14.079h0q228.316-26.535,448.05,0h0a14.079,14.079,0,0,1-14.079,14.079Z" transform="translate(-195.611 -388.759)" fill="#0fa"/>
      <path id="Path_33" data-name="Path 33" d="M643.661,476.971l-448.05-.828,51.927-87.374.248-.414V195.792a17.8,17.8,0,0,1,17.8-17.8H571.2a17.8,17.8,0,0,1,17.8,17.8V389.68Z" transform="translate(-195.611 -169.791)" fill="#2f2e41"/>
      <path id="Path_34" data-name="Path 34" d="M314.2,199.966a5.8,5.8,0,0,0-5.8,5.8V381.339a5.8,5.8,0,0,0,5.8,5.8H623.109a5.8,5.8,0,0,0,5.8-5.8V205.763a5.8,5.8,0,0,0-5.8-5.8Z" transform="translate(-244.627 -179.339)" fill="#f2f2f2"/>
      <path id="Path_35" data-name="Path 35" d="M308.033,572.015a2.491,2.491,0,0,0-2.257,1.446l-16,34.784a2.484,2.484,0,0,0,2.257,3.523H628.514a2.484,2.484,0,0,0,2.222-3.6l-17.392-34.784a2.472,2.472,0,0,0-2.222-1.373Z" transform="translate(-236.435 -341.029)" fill="#3f3d56"/>
      <circle id="Ellipse_8" data-name="Ellipse 8" cx="3.727" cy="3.727" r="3.727" transform="translate(219.057 10.274)" fill="#f2f2f2"/>
      <path id="Path_36" data-name="Path 36" d="M526.142,654.042a2.488,2.488,0,0,0-2.4,1.838l-4.014,14.907a2.484,2.484,0,0,0,2.4,3.131h76.329a2.484,2.484,0,0,0,2.347-3.3l-5.16-14.907a2.486,2.486,0,0,0-2.348-1.672Z" transform="translate(-336.433 -376.676)" fill="#3f3d56"/>
      <path id="Path_37" data-name="Path 37" d="M433.3,375.126v3.313H91.84l.257-.414v-2.9Z" transform="translate(-39.913 -159.461)" fill="#2f2e41"/>
      <path id="Path_38" data-name="Path 38" d="M597.286,254.83H516.721V256.3h80.565a14.956,14.956,0,0,1,0,29.911H475.377a14.956,14.956,0,1,1,0-29.911h4.556V254.83h-4.556a16.427,16.427,0,1,0,0,32.854H597.286a16.427,16.427,0,0,0,0-32.854Z" transform="translate(-310.055 -203.183)" fill="rgba(0,0,0,0.1)"/>
      <path id="Path_39" data-name="Path 39" d="M597.286,344.619H516.721v1.472h80.565a14.956,14.956,0,0,1,0,29.911H475.377a14.956,14.956,0,1,1,0-29.911h4.556v-1.472h-4.556a16.427,16.427,0,1,0,0,32.854H597.286a16.427,16.427,0,0,0,0-32.854Z" transform="translate(-310.055 -242.204)" fill="rgba(0,0,0,0.1)"/>
      <path id="Path_40" data-name="Path 40" d="M597.286,434.407H516.721v1.472h80.565a14.956,14.956,0,0,1,0,29.911H475.377a14.956,14.956,0,1,1,0-29.911h4.556v-1.472h-4.556a16.427,16.427,0,1,0,0,32.854H597.286a16.427,16.427,0,0,0,0-32.854Z" transform="translate(-310.055 -281.225)" fill="rgba(0,0,0,0.1)"/>
      <path id="Path_40-2" data-name="Path 40" d="M508.781,247.954a4.375,4.375,0,1,0,0,8.75h19.193a4.375,4.375,0,0,0,.144-8.75H508.781Z" transform="translate(-329.81 -200.194)" fill="#0fa"/>
      <path id="Path_40-3" data-name="Path 40" d="M508.781,339.044a4.375,4.375,0,1,0,0,8.75h19.193a4.375,4.375,0,0,0,.144-8.75H508.781Z" transform="translate(-329.81 -239.781)" fill="#0fa"/>
      <path id="Path_40-4" data-name="Path 40" d="M508.781,427.532a4.375,4.375,0,1,0,0,8.75h19.193a4.375,4.375,0,1,0,.144-8.75H508.781Z" transform="translate(-329.81 -278.237)" fill="#0fa"/>
      <path id="Path_40-5" data-name="Path 40" d="M495.317,276.146a4.375,4.375,0,1,0,0,8.75H605.009a4.375,4.375,0,0,0,.144-8.75H495.317Z" transform="translate(-323.959 -212.446)" fill="#0fa"/>
      <path id="Path_40-6" data-name="Path 40" d="M495.317,365.935a4.375,4.375,0,1,0,0,8.75H605.009a4.375,4.375,0,0,0,.144-8.75H495.317Z" transform="translate(-323.959 -251.468)" fill="#0fa"/>
      <path id="Path_40-7" data-name="Path 40" d="M495.317,455.723a4.375,4.375,0,1,0,0,8.75H605.009a4.375,4.375,0,0,0,.144-8.75H495.317Z" transform="translate(-323.959 -290.489)" fill="rgba(0,0,0,0.1)"/>
      <circle id="Ellipse_9" data-name="Ellipse 9" cx="8.761" cy="8.761" r="8.761" transform="translate(121.857 58.968)" fill="#0fa"/>
      <path id="Path_41" data-name="Path 41" d="M227.615,114.321l-2.552-3.282,1.484-1.155,1.209,1.554,4.082-4.31,1.365,1.294Z" transform="translate(-97.81 -42.992)" fill="#fff"/>
      <circle id="Ellipse_10" data-name="Ellipse 10" cx="8.761" cy="8.761" r="8.761" transform="translate(121.857 109.736)" fill="#0fa"/>
      <path id="Path_42" data-name="Path 42" d="M227.615,204.11l-2.552-3.282,1.484-1.155,1.209,1.554,4.082-4.31,1.365,1.294Z" transform="translate(-97.81 -82.014)" fill="#fff"/>
      <circle id="Ellipse_11" data-name="Ellipse 11" cx="8.761" cy="8.761" r="8.761" transform="translate(121.857 160.503)" fill="rgba(0,0,0,0.1)"/>
      <circle id="Ellipse_12" data-name="Ellipse 12" cx="8.761" cy="8.761" r="8.761" transform="translate(313.89 58.968)" fill="rgba(0,0,0,0.1)"/>
      <circle id="Ellipse_13" data-name="Ellipse 13" cx="8.761" cy="8.761" r="8.761" transform="translate(313.89 109.736)" fill="rgba(0,0,0,0.1)"/>
      <circle id="Ellipse_14" data-name="Ellipse 14" cx="8.761" cy="8.761" r="8.761" transform="translate(313.89 160.503)" fill="rgba(0,0,0,0.1)"/>
      <path id="Path_43" data-name="Path 43" d="M227.615,293.9l-2.552-3.282,1.484-1.155,1.209,1.554,4.082-4.31L233.2,288Z" transform="translate(-97.81 -121.035)" fill="#fff"/>
      <rect id="Rectangle_1" data-name="Rectangle 1" width="1.031" height="6.928" transform="translate(319.71 65.644) rotate(-45)" fill="#fff"/>
      <rect id="Rectangle_2" data-name="Rectangle 2" width="6.928" height="1.031" transform="translate(319.968 69.814) rotate(-45)" fill="#fff"/>
      <rect id="Rectangle_3" data-name="Rectangle 3" width="1.031" height="6.928" transform="translate(319.71 116.411) rotate(-45)" fill="#fff"/>
      <rect id="Rectangle_4" data-name="Rectangle 4" width="6.928" height="1.031" transform="translate(319.968 120.581) rotate(-45)" fill="#fff"/>
      <rect id="Rectangle_5" data-name="Rectangle 5" width="1.031" height="6.928" transform="translate(319.711 167.179) rotate(-45)" fill="#fff"/>
      <rect id="Rectangle_6" data-name="Rectangle 6" width="6.928" height="1.031" transform="translate(319.968 171.349) rotate(-45)" fill="#fff"/>
      <path id="Path_56" data-name="Path 56" d="M815.614,558.338a.606.606,0,0,0-.584.448l-.977,3.63a.6.6,0,0,0,.584.762h18.587a.6.6,0,0,0,.572-.8l-1.257-3.63a.606.606,0,0,0-.572-.407Z" transform="translate(-464.37 -335.085)" fill="#0fa"/>
      <path id="Path_57" data-name="Path 57" d="M767.614,558.338a.606.606,0,0,0-.584.448l-.977,3.63a.605.605,0,0,0,.584.762h18.587a.6.6,0,0,0,.572-.8l-1.257-3.63a.605.605,0,0,0-.572-.407Z" transform="translate(-443.51 -335.085)" fill="#0fa"/>
    </g>
  </g>
</svg>
